<svg id="SXmock_IlluVideoCutout_44_N" xmlns="http://www.w3.org/2000/svg" width="45.512" height="45.512" viewBox="0 0 45.512 45.512">
  <g id="SLMOCK">
    <rect id="Canvas" width="45.512" height="45.512" fill="rgba(255,19,220,0)"/>
  </g>
  <g id="Illu" transform="translate(0.751 1.604)">
    <path id="Path_127416" data-name="Path 127416" d="M26.947,33.418l5.421-3.309a1.228,1.228,0,0,0,0-2.108l-5.421-3.309A1.273,1.273,0,0,0,25,25.745v6.619a1.273,1.273,0,0,0,1.947,1.054Z" transform="translate(1.173 -0.022)"/>
    <path id="Path_127417" data-name="Path 127417" d="M23.267,22.145a1.707,1.707,0,1,0-1.149-.444A1.706,1.706,0,0,0,23.267,22.145Z" transform="translate(0.698 -0.821)"/>
    <path id="Path_127418" data-name="Path 127418" d="M20.327,25.385a1.7,1.7,0,1,0-1.138-.433A1.754,1.754,0,0,0,20.327,25.385Z" transform="translate(0.293 -0.372)"/>
    <path id="Path_127419" data-name="Path 127419" d="M10.535,31.463H17.7a.235.235,0,0,1,.236.236v6.026a8.546,8.546,0,0,0,8.535,8.539H37.845a8.546,8.546,0,0,0,8.535-8.539V26.34A8.546,8.546,0,0,0,37.845,17.8H30.684a.235.235,0,0,1-.236-.236V11.539A8.546,8.546,0,0,0,21.914,3H10.535A8.546,8.546,0,0,0,2,11.539V22.924a8.546,8.546,0,0,0,8.535,8.539ZM5.414,11.539a5.128,5.128,0,0,1,5.121-5.123H21.914a5.128,5.128,0,0,1,5.121,5.123v6.026a3.651,3.651,0,0,0,3.649,3.651h7.162a5.128,5.128,0,0,1,5.121,5.123V37.725a5.128,5.128,0,0,1-5.121,5.123H26.466a5.128,5.128,0,0,1-5.121-5.123V31.7a3.625,3.625,0,0,0-.356-1.546c0-.049.014-.1.014-.147a1.584,1.584,0,0,0-.034-.33,2.735,2.735,0,0,0-.091-.319,2.5,2.5,0,0,0-.159-.3A1.547,1.547,0,0,0,20.5,28.8a1.682,1.682,0,0,0-1.361-.449,3.633,3.633,0,0,0-1.446-.3H10.535a5.128,5.128,0,0,1-5.121-5.123Z" transform="translate(-2 -3)"/>
    <path id="Path_127420" data-name="Path 127420" d="M12.947,20.418l5.421-3.309a1.228,1.228,0,0,0,0-2.108l-5.421-3.309A1.273,1.273,0,0,0,11,12.745v6.619a1.273,1.273,0,0,0,1.947,1.054Z" transform="translate(-0.758 -1.823)"/>
  </g>
</svg>
