<?xml version="1.0" encoding="UTF-8"?>
<svg id="ICONS" xmlns="http://www.w3.org/2000/svg" width="44" height="44" viewBox="0 0 44 44">
  <defs>
    <style>
      .fill {
        fill: #444;
      }
    </style>
  </defs>
  <path class="fill" d="M5.22302,28.75739c1.05029,.90265,2.28149,1.65991,3.65051,2.24323,1.00659,.43353,2.01208,.7431,2.98218,.98907l.00012,.6933c0,.86658,.33044,1.68591,.93054,2.3067,.62292,.64294,1.49097,1.01031,2.38403,1.01031,.75281,0,1.46277-.26904,2.04688-.7395,.79517,3.28754,3.75415,5.7395,7.28271,5.7395h10c4.13574,0,7.5-3.36426,7.5-7.5v-10c0-4.13574-3.36426-7.5-7.5-7.5h-7.5v-1.44141c0-.82812-.67188-1.5-1.5-1.5s-1.5,.67188-1.5,1.5v2.94141c0,.82812,.67188,1.5,1.5,1.5h9c2.48145,0,4.5,2.01855,4.5,4.5v10c0,2.48145-2.01855,4.5-4.5,4.5h-10c-2.48145,0-4.5-2.01855-4.5-4.5v-1c-.00415-.04211,3.12427-3.26263,3.12427-3.26263,.02185-.02252,.04346-.04541,.06458-.0686,.93518-1.02527,1.07886-2.48315,.45288-3.65332,.17603,.06897,.35779,.11346,.54187,.11346,.45215,0,.89941-.2041,1.19434-.5918,.49316-.64746,.87402-1.36523,1.13477-2.13281,.26562-.78516-.15527-1.63672-.93945-1.90234-.78906-.26562-1.63672,.15527-1.90234,.93945-.15527,.46094-.38477,.89062-.67969,1.2793-.25574,.33588-.34607,.74463-.28784,1.13141l-5.17603-5.34973c-.01611-.01672-.03247-.03326-.04907-.04956-.62292-.61462-1.44324-.95312-2.30981-.95312-.89209,0-1.75916,.36615-2.37878,1.00458-.60291,.61945-.93591,1.44263-.93481,2.31494v.66864c-.43506,.06946-.84875,.11511-1.24512,.12579-.07532,.00226-.14087,.00323-.20654,.00323-.53772,0-1.02954-.06696-1.50342-.20483-.57178-.16455-1.16321-.44672-1.76587-.84076-.54614-.35767-1.1731-.54492-1.81873-.54492-.88855,0-1.75378,.36572-2.37378,1.00342-1.09094,1.12335-1.25659,2.82416-.40417,4.13727,.5293,.8136,1.12048,1.55933,1.75867,2.21887,.29724,.30719,.60913,.60034,.92712,.87146Zm-.13062-5.13635c.05994-.06165,.14062-.09467,.22278-.09467,.05798,0,.11658,.01642,.16919,.05084,.83606,.54663,1.7019,.96344,2.57764,1.21552,.78027,.22693,1.56226,.32416,2.34119,.32416,.09583,0,.19141-.00146,.28711-.00433,1.34985-.03625,2.68286-.34747,4.16467-.68536l-.00012-3.11194c-.00012-.09064,.0343-.16687,.08752-.22156,.03894-.0401,.1261-.09399,.22607-.09399,.06555,0,.13647,.02319,.20288,.08868l5.60107,5.78906c.09644,.10614,.03613,.22998,0,.26959l-5.6001,5.76483c-.06616,.065-.13672,.08813-.2019,.08813-.09973,0-.18701-.05408-.22705-.0954-.0531-.05493-.08752-.13135-.08752-.22198l-.00037-3.10114c-1.52527-.31262-3.20935-.65314-4.80603-1.34082-1.0459-.44562-2.03674-1.04144-2.88-1.76611-.25232-.21515-.49121-.4408-.71753-.67468-.53357-.55145-.99683-1.14911-1.39844-1.76642-.07422-.11432-.07983-.2901,.03894-.41241Z"/>
  <path class="fill" d="M17.5,6.00001h1.90625c.82812,0,1.51758-.67188,1.51758-1.5s-.6543-1.5-1.48242-1.5h-1.94141c-.82812,0-1.5,.67188-1.5,1.5s.67188,1.5,1.5,1.5Z"/>
  <path class="fill" d="M9.5,6.00001h1.90625c.82812,0,1.5-.67188,1.5-1.5s-.67188-1.5-1.5-1.5h-1.94141c-.82812,0-1.48242,.67188-1.48242,1.5s.68945,1.5,1.51758,1.5Z"/>
  <path class="fill" d="M23.74316,9.292c.18457,.66406,.78711,1.09863,1.44434,1.09863,.13281,0,.26855-.01758,.40234-.05469,.79785-.22168,1.26562-1.04883,1.04395-1.84668-.21777-.78418-.56055-1.52344-1.01758-2.19531-.46582-.6875-1.40039-.86328-2.08301-.39746-.68555,.46484-.86328,1.39844-.39746,2.08301,.27246,.40234,.47754,.84375,.60742,1.3125Z"/>
  <path class="fill" d="M3.31641,10.33595c.13379,.03711,.26953,.05469,.40234,.05469,.65723,0,1.25977-.43457,1.44434-1.09863,.12988-.46875,.33496-.91016,.60742-1.3125,.46582-.68457,.28809-1.61816-.39746-2.08301-.68262-.46582-1.61719-.29004-2.08301,.39746-.45703,.67188-.7998,1.41113-1.01758,2.19531-.22168,.79785,.24609,1.625,1.04395,1.84668Z"/>
  <path class="fill" d="M3.5,18.00001c.82812,0,1.5-.67188,1.5-1.5v-1.94141c0-.82812-.67188-1.5-1.5-1.5s-1.5,.67188-1.5,1.5v1.94141c0,.82812,.67188,1.5,1.5,1.5Z"/>
</svg>