<?xml version="1.0" encoding="UTF-8"?>
<svg id="a" data-name="Outline" xmlns="http://www.w3.org/2000/svg" width="180" height="120" viewBox="0 0 180 120">
  <path d="m70.17158,77.05899v2.28125h1.03223v-4.56348h-22.2251v4.56348h1.03223v-2.28125c0-.69043.55957-1.25,1.25-1.25h7.06396c.69043,0,1.25.55957,1.25,1.25v17.66016c0,.69043-.55957,1.25-1.25,1.25h-2.28223v1.03223h8.09668v-1.03223h-2.28223c-.69043,0-1.25-.55957-1.25-1.25v-17.66016c0-.69043.55957-1.25,1.25-1.25h7.06445c.69043,0,1.25.55957,1.25,1.25Z" fill="none"/>
  <path d="m51.48707,29.57676l3.18256-4.87177c.44678-.68457,1.13379-1.15381,1.93408-1.32178.7998-.16895,1.61768-.01416,2.30176.43311l7.05225,4.60742,1.4668-2.24512c.92139-1.4126,2.82275-1.81055,4.23535-.88916l3.48492,2.27686c-.02002-.25452-.05035-.50922-.10358-.76318l-1.81885-8.67188c-.58545-2.79102-3.05615-4.7124-5.80176-4.7124-.40186,0-.80957.04102-1.21826.12646l-11.51221,2.41455c-1.5498.32471-2.88086,1.23438-3.74707,2.56006-.86621,1.32617-1.16406,2.91016-.83936,4.45996l1.38336,6.59686Zm15.98749-13.1272c1.17651-.2467,2.33044.50708,2.57721,1.68365.24677,1.17664-.50714,2.33051-1.68365,2.57727-1.17651.2467-2.33044-.50708-2.57721-1.68365-.24677-1.17664.50708-2.33051,1.68365-2.57727Z" fill="none"/>
  <path d="m97.71846,24.80069c-1.09863-1.09912-2.54645-1.71826-4.0918-1.76849v17.41937c0,3.34814,2.72363,6.07178,6.07129,6.07178h17.41895c-.05005-1.54681-.66876-2.99396-1.76758-4.09277l-17.63086-17.62988Z" fill="none"/>
  <path d="m69.51729,27.54581l-2.15039,3.2915c-.18115.27783-.46533.47168-.79004.54004-.32471.06787-.6626.00439-.93994-.17725l-8.09863-5.29102c-.16895-.11084-.33691-.09766-.42139-.0791-.08496.01758-.24365.07275-.35449.24219l-4.27148,6.53857c-.05359.08203-.11755.15259-.18542.21753.45801,1.04175,1.20233,1.93317,2.17712,2.57007,1.32617.86621,2.91064,1.16357,4.45996.83936l11.51221-2.41455c1.5498-.32471,2.88086-1.23438,3.74707-2.56006.20618-.31567.37787-.64679.51892-.98779l-4.42761-2.89258c-.2583-.16895-.60693-.09619-.77588.16309Z" fill="none"/>
  <g>
    <path d="m97.43617,91.16739h-24.23871c-1.50244,0-2.9917-.2002-4.42627-.5957-.07831-.02167-.15063-.05353-.22229-.08618,2.57953,6.65485,9.44708,10.92682,16.82086,9.89331l18.20819-2.55212c-2.08307-1.70679-4.33038-4.30872-6.14178-6.6593Z" fill="#ddddf6"/>
    <path d="m129.92451,78.24839l-4.00873-28.60059c-.28955-2.06592-1.388-3.93225-3.05359-5.18842l-4.77557-3.46808c1.32104,1.61432,2.04004,3.61774,2.04004,5.73273v25.28253c2.29382,1.7428,4.12781,4.00323,5.36133,6.65497.0166.03711.0332.0752.04688.11328.97406,2.64105,2.08197,5.23779,3.2973,7.78296,1.07697-2.53424,1.5025-5.383,1.09235-8.30939Z" fill="#ddddf6"/>
  </g>
  <g>
    <path d="m67.47456,16.44956c-1.17657.24677-1.93042,1.40063-1.68365,2.57727.24677,1.17657,1.4007,1.93036,2.57721,1.68365,1.17651-.24677,1.93042-1.40063,1.68365-2.57727-.24677-1.17657-1.4007-1.93036-2.57721-1.68365Z" fill="#5c5cd7"/>
    <path d="m77.48799,26.28995l-1.81885-8.67188c-.95361-4.54834-5.43164-7.47217-9.97998-6.51953l-11.51172,2.41455c-2.2041.46191-4.0957,1.75439-5.32715,3.63965s-1.65527,4.13672-1.19287,6.34033l1.81836,8.6709c.46191,2.2041,1.75488,4.0957,3.63965,5.32715,1.3877.90674,2.97363,1.37549,4.59326,1.37549.58057,0,1.16553-.06055,1.74707-.18213l11.51172-2.41455c2.2041-.46191,4.0957-1.75439,5.32715-3.63965s1.65527-4.13672,1.19336-6.34033Zm-3.28613,4.97314c-.86621,1.32568-2.19727,2.23535-3.74707,2.56006l-11.51221,2.41455c-1.54932.32422-3.13379.02686-4.45996-.83936-.97479-.6369-1.71912-1.52832-2.17712-2.57007.06787-.06494.13184-.1355.18542-.21753l4.27148-6.53857c.11084-.16943.26953-.22461.35449-.24219.08447-.01855.25244-.03174.42139.0791l8.09863,5.29102c.27734.18164.61523.24512.93994.17725.32471-.06836.60889-.26221.79004-.54004l2.15039-3.2915c.16895-.25928.51758-.33203.77588-.16309l4.42761,2.89258c-.14105.341-.31274.67212-.51892.98779Zm-2.54199-5.97363c-1.4126-.92139-3.31396-.52344-4.23535.88916l-1.4668,2.24512-7.05225-4.60742c-.68408-.44727-1.50195-.60205-2.30176-.43311-.80029.16797-1.4873.63721-1.93408,1.32178l-3.18256,4.87177-1.38336-6.59686c-.32471-1.5498-.02686-3.13379.83936-4.45996.86621-1.32568,2.19727-2.23535,3.74707-2.56006l11.51221-2.41455c.40869-.08545.81641-.12646,1.21826-.12646,2.74561,0,5.21631,1.92139,5.80176,4.7124l1.81885,8.67188c.05322.25397.08356.50867.10358.76318l-3.48492-2.27686Z" fill="#5c5cd7"/>
    <path d="m71.57051,72.27677h-22.95898c-1.17627,0-2.13281.95703-2.13281,2.13281v5.29785c0,1.17578.95654,2.13281,2.13281,2.13281h1.76611c1.17627,0,2.1333-.95703,2.1333-2.13281v-1.39844h4.56396v15.16016h-1.39893c-1.17627,0-2.1333.95703-2.1333,2.13281v1.7666c0,1.17578.95703,2.13281,2.1333,2.13281h8.83057c1.17627,0,2.13281-.95703,2.13281-2.13281v-1.7666c0-1.17578-.95654-2.13281-2.13281-2.13281h-1.39941v-15.16016h4.56445v1.39844c0,1.17578.95654,2.13281,2.13281,2.13281h1.76611c1.17627,0,2.1333-.95703,2.1333-2.13281v-5.29785c0-1.17578-.95703-2.13281-2.1333-2.13281Zm-.3667,7.06348h-1.03223v-2.28125c0-.69043-.55957-1.25-1.25-1.25h-7.06445c-.69043,0-1.25.55957-1.25,1.25v17.66016c0,.69043.55957,1.25,1.25,1.25h2.28223v1.03223h-8.09668v-1.03223h2.28223c.69043,0,1.25-.55957,1.25-1.25v-17.66016c0-.69043-.55957-1.25-1.25-1.25h-7.06396c-.69043,0-1.25.55957-1.25,1.25v2.28125h-1.03223v-4.56348h22.2251v4.56348Z" fill="#5c5cd7"/>
  </g>
  <g>
    <path d="m58.05439,41.1171c-.82861,0-1.5.67139-1.5,1.5v25.36182c0,.82812.67139,1.5,1.5,1.5s1.5-.67188,1.5-1.5v-25.36182c0-.82861-.67139-1.5-1.5-1.5Z" fill="#242424"/>
    <path d="m133.30146,94.82657c-1.63025-2.67114-3.11731-5.4375-4.4693-8.2688-1.21533-2.54517-2.32324-5.14191-3.2973-7.78296-.01367-.03809-.03027-.07617-.04688-.11328-1.23352-2.65173-3.0675-4.91217-5.36133-6.65497v-25.28253c0-2.11499-.71899-4.11841-2.04004-5.73273-.19293-.23572-.39795-.46356-.61621-.68182l-17.63086-17.62988c-1.71289-1.71338-3.99121-2.65723-6.41406-2.65723h-13.396c-.82861,0-1.5.67139-1.5,1.5s.67139,1.5,1.5,1.5h10.59717v17.4292c0,5.00244,4.06934,9.07178,9.07129,9.07178h17.42871v20.80499c-.78247-.15625-1.59644-.09283-2.35254.1994-.06451.0249-.12207.05927-.18103.09174-1.08716-1.21704-2.0094-1.92365-2.89026-2.12689-1.86493-.42969-2.97052.08008-3.47302.42889-.84503-.64539-1.33716-.72028-1.63538-.72675-1.24426-.13049-2.48035.27728-3.40033,1.112-.9209-.948-1.87103-1.8736-2.86627-2.76337-3.05273-2.41699-6.18945-5.02441-7.19043-5.88281-.05664-.04883-.11719-.09326-.18164-.1333-.9541-.5957-2.15137-.4541-3.0498.36377-1.02588.93359-1.67188,2.85449-.63086,4.93262.73584,1.30859,2.64551,3.32617,4.66797,5.46289,1.33887,1.41602,2.85742,3.01953,3.30371,3.74023.83881,1.19666,1.58795,2.4566,2.26038,3.75555.22632.43726.44318.87842.64954,1.32513-.0152-.01917-.02948-.03705-.04468-.05627-.27905-.35199-.54095-.67944-.79529-.99481-1.38702-1.71997-2.42987-2.88831-3.32776-3.33722-1.33887-.6709-2.9668-.84375-4.05566-.43066-.61719.23438-1.07812.66504-1.29785,1.21387-.71631,1.78906,3.31641,9.60547,3.3584,9.68359.211.39581.65796,1.10437,1.25714,1.98145h-22.05353c-1.23291,0-2.4541-.16406-3.62939-.48828-.79932-.21484-1.62451.24902-1.84473,1.04785-.19818.72052.1665,1.45807.82556,1.75854.07166.03265.14398.06451.22229.08618,1.43457.39551,2.92383.5957,4.42627.5957h24.23871c1.8114,2.35059,4.05872,4.95251,6.14178,6.6593.6582.53931,1.30096.99438,1.9071,1.31726,3.13574,1.81543,6.42773,3.43945,9.7832,4.8252.04492.01855.09082.03516.1377.04883.65332.19824,1.24902.5625,1.74121,1.07227l3.55078,3.55176c.29297.29297.67676.43945,1.06055.43945s.76758-.14648,1.06055-.43945c.58594-.58594.58594-1.53516,0-2.12109l-3.53125-3.53223c-.80957-.83984-1.82422-1.46777-2.9375-1.81836-2.55975-1.06036-5.07825-2.26947-7.53925-3.60687-.6261-.34021-1.25104-.68311-1.86896-1.04059-.65021-.34668-1.37073-.89636-2.11938-1.56842-1.16718-1.04773-2.40405-2.3988-3.55933-3.78705-.32837-.39459-.6413-.78888-.95215-1.18158-.49274-.62238-.96783-1.23749-1.39545-1.81842-1.10431-1.50037-1.94739-2.77826-2.27545-3.39355-.16089-.302-.34717-.68103-.54132-1.08759-.82288-1.72314-1.85077-4.16296-2.3288-5.57257.26758.04785.57324.13574.87305.28613.53448.28796,1.9707,2.0705,2.88788,3.22577.07825.09851.15961.20093.22931.28888.75391.95117,1.40527,1.77246,1.8916,2.25879.78906.78613,1.6543,1.50781,2.57031,2.14355.67871.46973,1.61523.30371,2.08789-.37695.33453-.48181.34186-1.08832.07959-1.57062-.21948-1.41364-.52521-2.81946-.92236-4.17938-.01562-.05371-.03418-.10645-.05566-.1582-.57788-1.38104-1.25238-2.71973-1.98981-4.00458-.52496-.91473-1.07764-1.80603-1.66937-2.64874-.56055-.90918-1.9834-2.41309-3.63086-4.15332-1.63867-1.73145-3.67773-3.88574-4.19727-4.80762-.20605-.41211-.21387-.75391-.15918-.9873,1.36621,1.15039,4.05762,3.37305,6.63086,5.40723,1.84576,1.65155,3.55829,3.4425,5.15002,5.33514,1.31378,1.56213,2.54944,3.19012,3.67322,4.8963.45605.69238,1.38867.88281,2.07812.42773.69141-.45605.88281-1.38574.42773-2.07812-.81885-1.24298-1.70477-2.43933-2.62219-3.6131-.60626-.77563-1.22247-1.54395-1.87134-2.28839.28607-.25092.66052-.37921,1.04138-.33972.45776.26111,1.32819,1.21637,2.33093,2.47314,1.07861,1.35181,2.31061,3.05298,3.35364,4.62939.28809.43652.76562.67285,1.25195.67285.28418,0,.57227-.08008.82617-.24902.69141-.45703.88086-1.3877.42383-2.07812-.86823-1.31305-1.63452-2.40344-2.32678-3.33942-.55536-.75085-1.0592-1.39508-1.51343-1.94019.11554.0127.24084.03064.38904.06476.42072.14862,1.10907.87122,1.86194,1.79932,1.23059,1.51697,2.63403,3.58466,3.32654,4.60498l.37469.55084.13409.1972c.29102.4248.76074.65332,1.23926.65332.26361,0,.52631-.07983.76593-.22339.02582-.01544.05463-.02118.07977-.03833.677-.46356.85303-1.38.40448-2.0614-.005-.00763-.00769-.01599-.01288-.02356l-.50293-.73926c-.55725-.82141-1.06512-1.55029-1.55273-2.23712-.13354-.18805-.2677-.3772-.39655-.5553.13538.078.26416.16443.39655.24628.82629.51105,1.57324,1.11566,2.27515,1.76617.2207.20459.45642.39392.6637.61176,1.0863,1.14172,1.99207,2.45331,2.67639,3.9104,1.23779,3.34827,2.69275,6.62079,4.30963,9.80951.73322,1.44604,1.48938,2.88007,2.29187,4.28699.46173.80945.9126,1.62573,1.39752,2.4201.28223.46289.77637.71875,1.28125.71875.2666,0,.53613-.07031.78027-.21973.70703-.43164.93066-1.35449.49902-2.06152Zm-33.60352-48.30322c-3.34766,0-6.07129-2.72363-6.07129-6.07178v-17.41937c1.54535.05023,2.99316.66937,4.0918,1.76849l17.63086,17.62988c1.09882,1.09882,1.71753,2.54596,1.76758,4.09277h-17.41895Z" fill="#242424"/>
  </g>
</svg>