<svg id="SX_Crop_22_N" xmlns="http://www.w3.org/2000/svg" width="22" height="22" viewBox="0 0 22 22">
  <defs>
    <style>
      .cls-1 {
        fill: rgba(255,19,220,0);
      }

      .cls-2 {
        fill: #484848;
      }
    </style>
  </defs>
  <g id="SMOCK">
    <rect id="Canvas" class="cls-1" width="22" height="22"/>
  </g>
  <g id="ICONS">
    <path id="Path_126086" data-name="Path 126086" class="cls-2" d="M20,16H7a1,1,0,0,1-1-1V2A1,1,0,1,0,4,2V4H2A1,1,0,0,0,2,6H4v9a3,3,0,0,0,3,3h9v2a1,1,0,0,0,2,0V18h2a1,1,0,0,0,0-2Z"/>
    <path id="Path_126087" data-name="Path 126087" class="cls-2" d="M8.989,6H15a1,1,0,0,1,1,1v6.01a1,1,0,0,0,2,0V7a3,3,0,0,0-3-3H8.989a1,1,0,0,0,0,2Z"/>
  </g>
</svg>
