<svg id="SX_RemoveBackground_44_N" xmlns="http://www.w3.org/2000/svg" width="44" height="44" viewBox="0 0 44 44">
  <g id="SLMOCK">
    <rect id="Canvas" width="44" height="44" fill="rgba(255,19,220,0)"/>
  </g>
  <g id="Illu">
    <circle id="Ellipse_24863" data-name="Ellipse 24863" cx="3" cy="3" r="3" transform="translate(26.006 13)" fill="#484848"/>
    <path id="Path_129340" data-name="Path 129340" d="M26.19,17H22v8.091l.916.909h4.507l2.19-2.078A3.617,3.617,0,0,1,31,23.171V18.227A2.974,2.974,0,0,1,26.19,17Z" fill="#484848" opacity="0.3"/>
    <path id="Path_129341" data-name="Path 129341" d="M32.506,8H31v5.773A2.922,2.922,0,0,1,31.823,17h7.183V14.5a6.508,6.508,0,0,0-6.5-6.5Z" fill="#484848" opacity="0.3"/>
    <path id="Path_129342" data-name="Path 129342" d="M11.109,18.872A3.635,3.635,0,0,1,13,18.044V17H5.006v7.568Z" fill="#484848" opacity="0.3"/>
    <rect id="Rectangle_163137" data-name="Rectangle 163137" width="9" height="9" transform="translate(13 8)" fill="#484848" opacity="0.3"/>
    <path id="Path_129343" data-name="Path 129343" d="M42,14.5A9.511,9.511,0,0,0,32.5,5h-21A9.511,9.511,0,0,0,2,14.5V27.951c0,.018,0,.035,0,.053v1.5A9.511,9.511,0,0,0,11.5,39h21a9.515,9.515,0,0,0,9.083-6.721,1.477,1.477,0,0,0,.2-.8A9.488,9.488,0,0,0,42,29.5ZM11.5,8h21A6.507,6.507,0,0,1,39,14.5V28.3l-4.655-4.346a3.5,3.5,0,0,0-4.737-.035l-4.144,3.932a.5.5,0,0,1-.366.137.586.586,0,0,1-.414-.23L15.83,18.975a3.512,3.512,0,0,0-4.727-.1L5,24.567V14.5A6.507,6.507,0,0,1,11.5,8Zm21,28h-21A6.507,6.507,0,0,1,5,29.5v-.829l8.089-7.552a.5.5,0,0,1,.647,0l8.772,8.7a3.5,3.5,0,0,0,5.019.206l4.1-3.892a.5.5,0,0,1,.671.012l6.217,5.8A6.508,6.508,0,0,1,32.5,36Z" fill="#484848"/>
  </g>
</svg>
