<svg xmlns="http://www.w3.org/2000/svg" width="28.09" height="23.347" viewBox="0 0 28.09 23.347">
  <g id="Designed_for_Developers_-_initialize_SDK_icon" data-name="Designed for Developers - initialize SDK icon" transform="translate(-41.5 -13)">
    <rect id="Rectangle_151582" data-name="Rectangle 151582" width="26.09" height="21.347" rx="3" transform="translate(42.5 14)" fill="none" stroke="#8488fd" stroke-width="2"/>
    <path id="code" d="M6.315,11.991l-.491.491a.309.309,0,0,1-.452,0L.8,7.907a.309.309,0,0,1,0-.452L5.373,2.88a.309.309,0,0,1,.452,0l.491.491a.309.309,0,0,1,0,.452L2.457,7.681l3.858,3.858a.309.309,0,0,1,0,.452Zm5.8-10.475L8.456,14.19a.32.32,0,0,1-.152.191.273.273,0,0,1-.231.024l-.609-.167a.32.32,0,0,1-.191-.152.293.293,0,0,1-.024-.241L10.91,1.172a.32.32,0,0,1,.152-.191.273.273,0,0,1,.231-.024l.609.167a.32.32,0,0,1,.191.152A.293.293,0,0,1,12.117,1.516Zm6.45,6.391-4.575,4.575a.309.309,0,0,1-.452,0l-.491-.491a.309.309,0,0,1,0-.452l3.858-3.858L13.05,3.823a.309.309,0,0,1,0-.452l.491-.491a.309.309,0,0,1,.452,0l4.575,4.575a.309.309,0,0,1,0,.452Z" transform="translate(45.752 16.992)" fill="#8488fd"/>
  </g>
</svg>
