<svg id="SXmock_IlluSpeedFast_44_N" xmlns="http://www.w3.org/2000/svg" width="45.706" height="45.706" viewBox="0 0 45.706 45.706">
  <g id="SLMOCK" transform="translate(0 0)">
    <rect id="Canvas" width="45.706" height="45.706" fill="rgba(255,19,220,0)"/>
  </g>
  <g id="Illu" transform="translate(3.194 7.474)">
    <path id="Path_128822" data-name="Path 128822" d="M38.137,18.755a1.55,1.55,0,0,0-.95,1.975c.159.454.295.915.412,1.38H36.55a1.55,1.55,0,1,0,0,3.1h1.512c.017.3.038.607.038.913a16.119,16.119,0,0,1-1.661,7.164,1.549,1.549,0,1,0,2.782,1.366,19.425,19.425,0,0,0,.891-14.948A1.554,1.554,0,0,0,38.137,18.755Z" transform="translate(-1.939 -6.607)"/>
    <path id="Path_128823" data-name="Path 128823" d="M12.072,13.879A16.417,16.417,0,0,1,20.756,10.2c.109-.012.215-.008.324-.017v1.465a1.55,1.55,0,1,0,3.1,0V10.187a16.457,16.457,0,0,1,4.107.9,1.549,1.549,0,1,0,1.054-2.914A19.655,19.655,0,0,0,3.075,24.789,19.424,19.424,0,0,0,4.99,35.064a1.549,1.549,0,0,0,2.78-1.37,16.3,16.3,0,0,1-1.635-8.1H7.649a1.55,1.55,0,1,0,0-3.1H6.6a16.306,16.306,0,0,1,3.266-6.437l.817.817a1.55,1.55,0,0,0,2.192-2.191Z" transform="translate(-3 -6.994)"/>
    <path id="Path_128824" data-name="Path 128824" d="M37.745,10.594a2.59,2.59,0,0,0-3.221-.073C31.4,12.839,18.831,26.322,18.033,27.3a4.551,4.551,0,0,0,.771,6.515,4.8,4.8,0,0,0,6.586-.747c.794-.972,11.437-15.908,13.064-19.418a2.522,2.522,0,0,0-.71-3.053ZM22.991,31.1a1.671,1.671,0,0,1-2.3.251h0a1.481,1.481,0,0,1-.583-1.008,1.446,1.446,0,0,1,.324-1.087c.424-.517,8.982-9.721,13.6-14.162C30.687,20.384,23.677,30.26,22.991,31.1Z" transform="translate(-2.536 -6.895)"/>
  </g>
</svg>
