<svg id="Trim_Video" data-name="Trim Video" xmlns="http://www.w3.org/2000/svg" width="45.518" height="45.518" viewBox="0 0 45.518 45.518">
  <g id="SLmock_IlluVideoCutout_44_N">
    <g id="SLMOCK">
      <rect id="Canvas" width="45.518" height="45.518" fill="rgba(255,19,220,0)"/>
    </g>
    <g id="Illu" transform="translate(2.126 3.188)">
      <path id="Path_127606" data-name="Path 127606" d="M39.851,32.565a4.783,4.783,0,1,0-4.783-4.783,4.732,4.732,0,0,0,.157,1.156L30.092,32.26,19.46,25.381a1.595,1.595,0,1,0-1.732,2.678l9.429,6.1-9.429,6.1a1.595,1.595,0,1,0,1.732,2.678l10.632-6.879,4.994,3.232c0,.062-.018.12-.018.183a4.831,4.831,0,1,0,1.244-3.189L33.027,34.16l3.965-2.566A4.737,4.737,0,0,0,39.851,32.565Zm0-6.377a1.594,1.594,0,1,1-1.594,1.594,1.594,1.594,0,0,1,1.594-1.594Zm0,11.691a1.594,1.594,0,1,1-1.594,1.594,1.594,1.594,0,0,1,1.594-1.594Z" transform="translate(-1.719 -2.405)"/>
      <path id="Path_127607" data-name="Path 127607" d="M15.6,12.246A1.7,1.7,0,0,0,13,13.6v8.5a1.7,1.7,0,0,0,2.6,1.353L22.83,19.2a1.546,1.546,0,0,0,0-2.705Z" transform="translate(-1.543 -2.64)"/>
      <path id="Path_127608" data-name="Path 127608" d="M12.1,33.822h2.126a1.594,1.594,0,0,0,0-3.188H12.1a6.916,6.916,0,0,1-6.908-6.908V13.1A6.916,6.916,0,0,1,12.1,6.188H24.851A6.916,6.916,0,0,1,31.759,13.1v8.5a1.594,1.594,0,1,0,3.188,0V13.1A10.108,10.108,0,0,0,24.851,3H12.1A10.108,10.108,0,0,0,2,13.1V23.725a10.108,10.108,0,0,0,10.1,10.1Z" transform="translate(-2 -3)"/>
    </g>
  </g>
</svg>
