<svg id="SXmock_IlluVideoCutout_44_N" xmlns="http://www.w3.org/2000/svg" width="45.512" height="45.83" viewBox="0 0 45.512 45.83">
  <g id="SLMOCK">
    <rect id="Canvas" width="45.512" height="45.512" fill="rgba(255,19,220,0)"/>
  </g>
  <g id="Illu" transform="translate(2.083 3.125)">
    <path id="Path_127607" data-name="Path 127607" d="M15.545,12.241A1.668,1.668,0,0,0,13,13.566v8.326a1.668,1.668,0,0,0,2.545,1.326l7.088-4.163a1.515,1.515,0,0,0,0-2.651Z" transform="translate(-1.543 -2.626)"/>
    <path id="Path_127608" data-name="Path 127608" d="M11.895,33.2h2.083a1.562,1.562,0,0,0,0-3.125H11.895a6.778,6.778,0,0,1-6.77-6.77V12.895a6.778,6.778,0,0,1,6.77-6.77h12.5a6.778,6.778,0,0,1,6.77,6.77v8.332a1.562,1.562,0,0,0,3.125,0V12.895A9.906,9.906,0,0,0,24.393,3h-12.5A9.906,9.906,0,0,0,2,12.895V23.31A9.906,9.906,0,0,0,11.895,33.2Z" transform="translate(-2 -3)"/>
    <g id="Group_302481" data-name="Group 302481" transform="translate(20.611 22.801)">
      <path id="Path_603601" data-name="Path 603601" d="M-19.963,1296.313l.015-.061h-12.93a.66.66,0,0,1-.658-.659v-12.538a1.267,1.267,0,0,0-.373-.9,1.259,1.259,0,0,0-.9-.371,1.265,1.265,0,0,0-1.272,1.269v1.623H-37.7a1.273,1.273,0,0,0-1.271,1.27,1.273,1.273,0,0,0,1.271,1.271h1.623v8.375a3.2,3.2,0,0,0,3.2,3.2H-24.5v1.623a1.273,1.273,0,0,0,1.27,1.271,1.273,1.273,0,0,0,1.27-1.271V1298.8h1.623a1.272,1.272,0,0,0,1.27-1.27A1.272,1.272,0,0,0-19.963,1296.313Z" transform="translate(38.972 -1281.785)"/>
      <path id="Path_603602" data-name="Path 603602" d="M-29.439,1287.871h5.8a.66.66,0,0,1,.658.658v5.794a1.271,1.271,0,0,0,1.27,1.269,1.272,1.272,0,0,0,1.27-1.269v-5.794a3.2,3.2,0,0,0-3.2-3.2h-5.8a1.272,1.272,0,0,0-1.27,1.271A1.271,1.271,0,0,0-29.439,1287.871Z" transform="translate(37.451 -1282.438)"/>
    </g>
  </g>
</svg>
