<svg id="SX_IlluConvert_44_N" xmlns="http://www.w3.org/2000/svg" width="45.512" height="45.512" viewBox="0 0 45.512 45.512">
  <g id="SLMOCK">
    <rect id="Canvas" width="45.512" height="45.512" fill="rgba(255,19,220,0)"/>
  </g>
  <g id="Illu" transform="translate(1.685 3.057)">
    <path id="Path_127224" data-name="Path 127224" d="M5.4,29.228a14.829,14.829,0,0,0,3.845,2.31,21.169,21.169,0,0,0,3.141,1.019v.714a3.361,3.361,0,0,0,.98,2.376,3.553,3.553,0,0,0,2.511,1.041,3.474,3.474,0,0,0,2.156-.762A7.874,7.874,0,0,0,25.7,41.837H36.235a7.823,7.823,0,0,0,7.9-7.725v-10.3a7.822,7.822,0,0,0-7.9-7.725h-7.9V14.6a1.58,1.58,0,0,0-3.16,0v3.03a1.563,1.563,0,0,0,1.58,1.545h9.48a4.693,4.693,0,0,1,4.74,4.635v10.3a4.694,4.694,0,0,1-4.74,4.635H25.7a4.693,4.693,0,0,1-4.74-4.635v-1.03c0-.015,0-.029,0-.043l3.3-3.317.068-.071a3.215,3.215,0,0,0,.477-3.763,1.556,1.556,0,0,0,1.829-.493,7.656,7.656,0,0,0,1.2-2.2,1.537,1.537,0,0,0-.99-1.959,1.589,1.589,0,0,0-2,.968,4.58,4.58,0,0,1-.716,1.318,1.512,1.512,0,0,0-.3,1.165l-5.452-5.51-.052-.051a3.487,3.487,0,0,0-2.433-.982,3.55,3.55,0,0,0-2.506,1.035,3.355,3.355,0,0,0-.985,2.384v.689a10.3,10.3,0,0,1-1.312.13c-.079,0-.148,0-.218,0a5.711,5.711,0,0,1-1.584-.211,7.018,7.018,0,0,1-1.86-.866,3.557,3.557,0,0,0-4.387.444,3.363,3.363,0,0,0-.455,4.29A15.294,15.294,0,0,0,4.419,28.33C4.732,28.647,5.06,28.948,5.4,29.228Zm-.138-5.29a.33.33,0,0,1,.413-.045l.008,0a10.2,10.2,0,0,0,2.707,1.247,8.963,8.963,0,0,0,2.466.334q.151,0,.3,0a23.152,23.152,0,0,0,4.387-.706V21.563a.318.318,0,0,1,.092-.228.359.359,0,0,1,.238-.1.3.3,0,0,1,.214.091l5.9,5.963a.206.206,0,0,1,0,.278l-5.9,5.938a.3.3,0,0,1-.213.091.359.359,0,0,1-.239-.1.32.32,0,0,1-.092-.229V30.076A26.059,26.059,0,0,1,10.479,28.7a11.774,11.774,0,0,1-3.034-1.819q-.4-.332-.756-.695a12.147,12.147,0,0,1-1.473-1.819A.338.338,0,0,1,5.258,23.937Z" transform="translate(-1.996 -2.699)"/>
    <path id="Path_127225" data-name="Path 127225" d="M3.375,10.477A1.585,1.585,0,0,0,5.32,9.4,4.549,4.549,0,0,1,5.96,8.05,1.523,1.523,0,0,0,5.541,5.9a1.6,1.6,0,0,0-2.194.409A7.579,7.579,0,0,0,2.275,8.575a1.542,1.542,0,0,0,1.1,1.9Z" transform="translate(-1.984 -2.921)"/>
    <path id="Path_127226" data-name="Path 127226" d="M23.789,9.4a1.585,1.585,0,0,0,1.945,1.075,1.541,1.541,0,0,0,1.1-1.9,7.579,7.579,0,0,0-1.072-2.261A1.6,1.6,0,0,0,23.568,5.9,1.523,1.523,0,0,0,23.15,8.05,4.549,4.549,0,0,1,23.789,9.4Z" transform="translate(-0.882 -2.921)"/>
    <path id="Path_127227" data-name="Path 127227" d="M17.58,6.09h2.008a1.579,1.579,0,0,0,1.6-1.545,1.512,1.512,0,0,0-.452-1.09A1.583,1.583,0,0,0,19.625,3H17.58a1.545,1.545,0,1,0,0,3.09Z" transform="translate(-1.249 -3)"/>
    <path id="Path_127228" data-name="Path 127228" d="M9.581,6.09h2.008a1.545,1.545,0,1,0,0-3.09H9.544a1.583,1.583,0,0,0-1.11.455,1.512,1.512,0,0,0-.452,1.09,1.579,1.579,0,0,0,1.6,1.545Z" transform="translate(-1.677 -3)"/>
    <path id="Path_127229" data-name="Path 127229" d="M3.58,18.148A1.563,1.563,0,0,0,5.16,16.6v-2A1.58,1.58,0,0,0,2,14.6v2a1.563,1.563,0,0,0,1.58,1.545Z" transform="translate(-1.996 -2.699)"/>
  </g>
</svg>
