<?xml version="1.0" encoding="UTF-8"?>
<svg id="ICONS" xmlns="http://www.w3.org/2000/svg" width="44" height="44" viewBox="0 0 44 44">
  <defs>
    <style>
      .fill {
        fill: #222;
      }
    </style>
  </defs>
  <path class="fill" d="m24.60707,26.79905l-2.75192-2.70294.26757-3.88389c.02812-.38821-.11519-.76553-.38911-1.03401-.24762-.2449-.57324-.37914-.91882-.37914-.00726,0-.01361,0-.02086.00181-.35374.00363-.6839.14875-.93061.40816l-2.64943,2.79365-3.81768-.27392c-.37914-.01633-.76009.12154-1.0331.40453-.49433.51701-.48163,1.34966.02993,1.85396l2.75283,2.70838-.27029,3.88752c-.02449.37914.1161.75102.38639,1.02131.24853.24671.57687.38277.92608.38277h.01633c.35374-.00363.68481-.14694.93242-.40453l2.65487-2.78276,3.81042.25941c.3873.01995.75918-.11791,1.02676-.39546.5034-.51882.49524-1.3551-.02177-1.86485Z"/>
  <path class="fill" d="m25.5,41h-11c-6.34131,0-11.5-5.15918-11.5-11.5v-11c0-6.34082,5.15869-11.5,11.5-11.5h3.4375c.82861,0,1.5.67188,1.5,1.5s-.67139,1.5-1.5,1.5h-3.4375c-4.68701,0-8.5,3.81348-8.5,8.5v11c0,4.68652,3.81299,8.5,8.5,8.5h11c4.68701,0,8.5-3.81348,8.5-8.5v-4.5c0-.82812.67139-1.5,1.5-1.5s1.5.67188,1.5,1.5v4.5c0,6.34082-5.15869,11.5-11.5,11.5Z"/>
  <path class="fill" d="m29.76855,21.4375c-.56006,0-1.08643-.2168-1.48633-.6123-.44385-.44043-.67236-1.0498-.62842-1.67383l.43213-6.32812-4.45166-4.40234c-.82031-.81543-.84131-2.1582-.05029-2.99609.43896-.46387,1.04248-.71484,1.68262-.6582l6.146.44238,4.27979-4.54297c.39502-.41895.92822-.65527,1.50195-.66602.5835.00293,1.11475.20801,1.52344.6123.44336.44043.67236,1.0498.62891,1.67188l-.43457,6.32812,4.45361,4.40527c.8208.8125.84277,2.15625.05029,2.99512-.43701.46191-1.04639.70801-1.67432.66016l-6.15479-.44434-4.2793,4.54395c-.39697.41992-.93018.65527-1.50342.66504h-.03564Zm-2.36621-13.50977l3.07373,3.04004c.44336.44141.67139,1.04883.62939,1.66992l-.29248,4.28516,2.87842-3.05664c.44287-.46387,1.04492-.7002,1.67725-.66113l4.22949.30566-3.07422-3.04102c-.44238-.43066-.67578-1.04395-.63184-1.67285l.29395-4.28027-2.87744,3.05469c-.44238.4668-1.06348.70703-1.69531.66016l-4.21094-.30371Z"/>
</svg>