<?xml version="1.0" encoding="UTF-8"?>
<svg id="ICONS" xmlns="http://www.w3.org/2000/svg" width="44" height="44" viewBox="0 0 44 44">
  <defs>
    <style>
      .fill {
        fill: #222;
      }
    </style>
  </defs>
  <circle class="fill" cx="35.2" cy="29.2" r="2.2"/>
  <circle class="fill" cx="28.8" cy="29.2" r="2.2"/>
  <path class="fill" d="m32,23c4.97058,0,9,4.02942,9,9s-4.02942,9-9,9-9-4.02942-9-9,4.02942-9,9-9Zm0-3c-6.61682,0-12,5.38318-12,12s5.38318,12,12,12,12-5.38318,12-12-5.38318-12-12-12Z"/>
  <path class="fill" d="m32,38.5c-2.4707,0-4.98242-1.2793-6.24902-3.18262-.45898-.68945-.27148-1.62109.41797-2.08008.6875-.45801,1.62012-.27441,2.08008.41797.72266,1.08594,2.26465,1.84473,3.75098,1.84473,1.46289,0,3.04102-.77344,3.75293-1.83887.45996-.68945,1.39258-.87305,2.08008-.41406.68848.45996.87402,1.39062.41406,2.08008-1.2666,1.89746-3.77734,3.17285-6.24707,3.17285Z"/>
  <path class="fill" d="m23.74927,17.22729l-6.80542-3.99683c-1.06384-.62476-2.44385.09399-2.44385,1.27295v7.99316c0,1.17896,1.38,1.89771,2.44385,1.27295l6.80542-3.99683c1.00098-.58789,1.00098-1.95776,0-2.54541Z"/>
  <path class="fill" d="m14.5,34h-2c-5.23828,0-9.5-4.26172-9.5-9.5v-12C3,7.26172,7.26172,3,12.5,3h12c5.23828,0,9.5,4.26172,9.5,9.5v2c0,.82812-.67188,1.5-1.5,1.5s-1.5-.67188-1.5-1.5v-2c0-3.58398-2.91602-6.5-6.5-6.5h-12c-3.58398,0-6.5,2.91602-6.5,6.5v12c0,3.58398,2.91602,6.5,6.5,6.5h2c.82812,0,1.5.67188,1.5,1.5s-.67188,1.5-1.5,1.5Z"/>
</svg>