<?xml version="1.0" encoding="UTF-8"?>
<svg id="ICONS" xmlns="http://www.w3.org/2000/svg" width="44" height="44" viewBox="0 0 44 44">
  <defs>
    <style>
      .fill {
        fill: #444;
      }
    </style>
  </defs>
  <path class="fill" d="M18.27933,15.35564c-.45353-.50035-1.32102-.75467-2.57829-.75467-.61887,0-1.318,.06254-2.08243,.18556-.41405-.40982-.81747-.89324-1.19965-1.43885-.27298-.38839-.52471-.79061-.75061-1.19904,.44273-1.4328,.66725-2.59591,.66725-3.45822,0-1.05841-.408-2.19041-1.55305-2.19041-.37613,0-.76141,.23393-.95854,.58155-.48834,.86214-.29268,2.63651,.48687,4.44181-.27143,.82948-.5673,1.63719-.92978,2.53198-.30477,.75605-.66725,1.52938-1.05098,2.24363-1.16777,.48342-3.6506,1.65585-3.88713,2.9513-.06989,.38839,.05002,.75467,.33976,1.03214,.08941,.08742,.43064,.37112,1.01158,.37112,1.49535,0,2.9862-2.12821,3.99027-3.96012,.57024-.19955,1.15265-.38045,1.73196-.53784,.63554-.17312,1.24975-.31496,1.82906-.42105,1.58346,1.42036,2.99087,1.63547,3.69613,1.63547,.96908,0,1.33156-.43176,1.46356-.7951,.17441-.47392,.00449-.96494-.22599-1.21926Zm-12.76566,4.48259c-.10159,0-.18495-.03127-.24568-.09036-.11066-.10608-.15161-.22149-.12578-.36179,.10461-.56773,1.19507-1.38616,2.82086-2.13288-.95699,1.58381-1.89886,2.58503-2.4494,2.58503ZM10.43821,7.44956c.0774-.13735,.2018-.21994,.33069-.21994,.36248,0,.44135,.44904,.44135,.82482,.00302,.59866-.17295,1.55305-.47478,2.60835-.60816-1.65585-.52324-2.81585-.29726-3.21323Zm2.12485,7.53825c-.41094,.08863-.8357,.1916-1.26634,.30857-.30944,.08431-.62336,.17623-.93729,.27454,.16681-.35073,.31998-.69852,.45336-1.02903,.17597-.4366,.34131-.87319,.49301-1.30029,.13347,.2151,.27151,.42398,.41249,.62509,.27903,.39772,.57965,.77782,.84477,1.12112Zm3.95995,1.57932c-.10617,0-.21683-.01417-.32758-.04216-.71277-.1745-1.3954-.52868-2.0763-1.08052,.63848-.09986,1.17693-.12146,1.53647-.12146,.40947,0,.78404,.02954,1.02359,.08103,.30797,.06565,.65524,.24015,.56885,.69835-.05321,.28231-.33673,.46476-.72504,.46476Zm25.11029-7.32396l-5.229-5.6084c-.96875-1.03906-2.34277-1.63477-3.76953-1.63477h-5.13477c-3.52441,0-6.48071,2.44653-7.27979,5.72827l-3.81592-4.09351c-.9707-1.03906-2.34082-1.63477-3.76074-1.63477H7.5C3.36426,2,0,5.36426,0,9.5v11c0,4.13574,3.36426,7.5,7.5,7.5H15.5c.87793,0,1.71753-.15796,2.5-.43701v-3.32471c-.7157,.47998-1.5752,.76172-2.5,.76172H7.5c-2.48145,0-4.5-2.01855-4.5-4.5V9.5c0-2.48145,2.01855-4.5,4.5-4.5h5.14355c.5918,0,1.16309,.24902,1.56738,.68066l5.23242,5.61279c.35938,.38477,.55664,.88721,.55664,1.41455v6.64185c.4563-.21777,.96094-.34985,1.5-.34985s1.0437,.13208,1.5,.34985V9.5c0-2.48145,2.01855-4.5,4.5-4.5h3.5v3.5c0,3.03223,2.46777,5.5,5.5,5.5h3.5v6.5c0,2.48145-2.01855,4.5-4.5,4.5h-8c-.9248,0-1.7843-.28174-2.5-.76172v3.32471c.78247,.27905,1.62207,.43701,2.5,.43701h8c4.13574,0,7.5-3.36426,7.5-7.5v-7.79199c0-1.28809-.48584-2.51855-1.3667-3.46484Zm-5.1333,1.75684c-1.37891,0-2.5-1.12109-2.5-2.5v-3.00244c.07202,.05908,.14685,.1145,.21094,.18311l4.95996,5.31934h-2.6709Zm-7.93945,24.56055l-6,6c-.29297,.29297-.67676,.43945-1.06055,.43945s-.76758-.14648-1.06055-.43945l-6-6c-.58594-.58594-.58594-1.53516,0-2.12109s1.53516-.58594,2.12109,0l3.43945,3.43945v-14.37891c0-.82812,.67188-1.5,1.5-1.5s1.5,.67188,1.5,1.5v14.37891l3.43945-3.43945c.58594-.58594,1.53516-.58594,2.12109,0s.58594,1.53516,0,2.12109Z"/>
</svg>