<?xml version="1.0" encoding="UTF-8"?>
<svg id="ICONS" xmlns="http://www.w3.org/2000/svg" width="44" height="44" viewBox="0 0 44 44">
  <defs>
    <style>
      .fill {
        fill: #444;
      }
    </style>
  </defs>
  <path class="fill" d="M40,41.00146h-12c-.82812,0-1.5-.67188-1.5-1.5s.67188-1.5,1.5-1.5h12c.82812,0,1.5,.67188,1.5,1.5s-.67188,1.5-1.5,1.5Zm1.5-7.5c0-.82812-.67188-1.5-1.5-1.5h-12c-.82812,0-1.5,.67188-1.5,1.5s.67188,1.5,1.5,1.5h12c.82812,0,1.5-.67188,1.5-1.5Zm-.03711-6c0-.82812-.67188-1.5-1.5-1.5h-11.96289c-.82812,0-1.5,.67188-1.5,1.5s.67188,1.5,1.5,1.5h11.96289c.82812,0,1.5-.67188,1.5-1.5Zm.53711-13.00293v-5c0-4.13574-3.36426-7.5-7.5-7.5H9.5c-4.13574,0-7.5,3.36426-7.5,7.5v5c0,4.13574,3.36426,7.5,7.5,7.5h25c4.13574,0,7.5-3.36426,7.5-7.5Zm-7.5-9.5c2.48145,0,4.5,2.01855,4.5,4.5v5c0,2.48145-2.01855,4.5-4.5,4.5H9.5c-2.48145,0-4.5-2.01855-4.5-4.5v-5c0-2.48145,2.01855-4.5,4.5-4.5h25Zm-10.5,29.50293v-2c0-4.13574-3.36426-7.5-7.5-7.5h-7c-4.13574,0-7.5,3.36426-7.5,7.5v2c0,4.13574,3.36426,7.5,7.5,7.5h7c4.13574,0,7.5-3.36426,7.5-7.5Zm-7.5-6.5c2.48145,0,4.5,2.01855,4.5,4.5v2c0,2.48145-2.01855,4.5-4.5,4.5h-7c-2.48145,0-4.5-2.01855-4.5-4.5v-2c0-2.48145,2.01855-4.5,4.5-4.5h7Zm11.24753-14.48573c-.38452-.42422-1.12002-.63984-2.18599-.63984-.52471,0-1.11746,.05303-1.76558,.15732-.35105-.34746-.69309-.75732-1.01711-1.21992-.23145-.3293-.44487-.67031-.6364-1.0166,.37537-1.2148,.56572-2.20093,.56572-2.93203,0-.89736-.34592-1.85713-1.31675-1.85713-.3189,0-.64556,.19834-.8127,.49307-.41404,.73096-.24814,2.23535,.41279,3.76597-.23013,.70327-.48098,1.38809-.78831,2.14673-.2584,.64102-.56572,1.29668-.89106,1.90225-.99009,.40986-3.09514,1.40391-3.29568,2.50225-.05925,.3293,.04241,.63984,.28806,.8751,.07581,.07412,.36511,.31465,.85767,.31465,1.26782,0,2.53184-1.8044,3.38313-3.35757,.48347-.16919,.97727-.32256,1.46843-.45601,.53884-.14678,1.0596-.26704,1.55076-.35698,1.34253,1.20425,2.53579,1.38662,3.13374,1.38662,.82163,0,1.12896-.36606,1.24087-.67412,.14788-.40181,.00381-.81812-.1916-1.03374Zm-10.8233,3.80054c-.08613,0-.15681-.02651-.2083-.07661-.09382-.08994-.12854-.18779-.10664-.30674,.0887-.48135,1.01323-1.17524,2.39165-1.80835-.81138,1.34282-1.60994,2.1917-2.07671,2.1917Zm4.17525-10.50367c.06563-.11646,.17109-.18647,.28037-.18647,.30732,0,.37419,.38071,.37419,.69932,.00256,.50757-.14663,1.31675-.40254,2.21148-.51563-1.40391-.44363-2.3874-.25203-2.72432Zm1.80154,6.39126c-.34841,.07515-.70855,.16245-1.07366,.26162-.26235,.07148-.52852,.14941-.79468,.23276,.14143-.29736,.27129-.59224,.38438-.87246,.14919-.37017,.28938-.74033,.41799-1.10244,.11316,.18237,.2302,.35947,.34973,.52998,.23657,.33721,.49146,.65947,.71624,.95054Zm3.35742,1.33901c-.09001,0-.18384-.01201-.27773-.03574-.60432-.14795-1.18308-.44824-1.76038-.91611,.54133-.08467,.99785-.10298,1.30269-.10298,.34717,0,.66475,.02505,.86785,.0687,.26111,.05566,.55554,.20361,.4823,.59209-.04512,.23936-.2855,.39404-.61472,.39404Z"/>
</svg>