<?xml version="1.0" encoding="UTF-8"?>
<svg id="ICONS" xmlns="http://www.w3.org/2000/svg" width="44" height="44" viewBox="0 0 44 44">
  <defs>
    <style>
      .fill {
        fill: #444;
      }
    </style>
  </defs>
  <path class="fill" d="M41.5,38.00001h-11.84619c-.36035,0-.65381-.29395-.65381-.6543v-11.8457c0-.82812-.67139-1.5-1.5-1.5s-1.5,.67188-1.5,1.5v1.5h-1.5c-.82861,0-1.5,.67188-1.5,1.5s.67139,1.5,1.5,1.5h1.5v7.3457c0,2.01465,1.63916,3.6543,3.65381,3.6543h7.34619v1.5c0,.82812,.67139,1.5,1.5,1.5s1.5-.67188,1.5-1.5v-1.5h1.5c.82861,0,1.5-.67188,1.5-1.5s-.67139-1.5-1.5-1.5Z"/>
  <path class="fill" d="M31,28.50001c0,.82812,.67139,1.5,1.5,1.5h3.84619c.36035,0,.65381,.29395,.65381,.6543v3.8457c0,.82812,.67139,1.5,1.5,1.5s1.5-.67188,1.5-1.5v-3.8457c0-2.01465-1.63916-3.6543-3.65381-3.6543h-3.84619c-.82861,0-1.5,.67188-1.5,1.5Z"/>
  <circle class="fill" cx="24.5" cy="12.50001" r="2.5"/>
  <path class="fill" d="M10.55859,32.00001h7.94141c.82861,0,1.5-.67188,1.5-1.5s-.67139-1.5-1.5-1.5h-7.94141c-3.06494,0-5.55859-2.4375-5.55859-5.43359v-.78271l6.54932-6.54932c.27344-.27246,.71875-.27246,1.03516,.04102l9.04492,8.35547c.2876,.26562,.65283,.39844,1.01807,.39844s.73096-.13281,1.01807-.39844l4.89307-4.52637c.15234-.125,.36182-.14746,.53516-.06348l3.50293,2.6416c.45459,.34375,1.06348,.39941,1.57227,.14551,.50928-.25391,.83105-.77344,.83105-1.34277V11.4336c0-4.65039-3.83936-8.43359-8.55859-8.43359H10.55859C5.83936,3.00001,2,6.78321,2,11.4336v12.13281c0,4.65039,3.83936,8.43359,8.55859,8.43359ZM5,11.4336c0-2.99609,2.49365-5.43359,5.55859-5.43359h15.88281c3.06494,0,5.55859,2.4375,5.55859,5.43359v7.04199l-1.17822-.88867c-.03906-.03027-.07959-.05762-.12158-.08301-1.271-.77539-2.896-.66113-4.11133,.33984l-3.94189,3.64355-7.98389-7.37402c-1.44385-1.44336-3.79199-1.44336-5.23486,0l-4.42822,4.42822v-7.10791Z"/>
</svg>