<?xml version="1.0" encoding="UTF-8"?>
<svg id="ICONS" xmlns="http://www.w3.org/2000/svg" width="44" height="44" viewBox="0 0 44 44">
  <defs>
    <style>
      .fill {
        fill: #444;
      }
    </style>
  </defs>
  <circle class="fill" cx="24.5" cy="12.5" r="2.5"/>
  <path class="fill" d="M28.55859,20.10449c.15283-.125,.36133-.14746,.53516-.06348l3.50293,2.6416c.4541,.34375,1.06299,.39941,1.57227,.14551s.83105-.77344,.83105-1.34277V11.43359c0-4.65039-3.83936-8.43359-8.55859-8.43359H10.55859C5.83936,3,2,6.7832,2,11.43359v12.13281c0,4.65039,3.83936,8.43359,8.55859,8.43359h7.94141c.82861,0,1.5-.67188,1.5-1.5s-.67139-1.5-1.5-1.5h-7.94141c-3.06494,0-5.55859-2.4375-5.55859-5.43359v-.78271l6.54932-6.54932c.27295-.27344,.71875-.27246,1.03516,.04102l9.04492,8.35547c.2876,.26562,.65283,.39844,1.01807,.39844s.73096-.13281,1.01807-.39844l4.89307-4.52637Zm-5.91162,1.38281l-7.98389-7.37402c-1.44385-1.44434-3.79199-1.44238-5.23486,0l-4.42822,4.42822v-7.10791c0-2.99609,2.49365-5.43359,5.55859-5.43359h15.88281c3.06494,0,5.55859,2.4375,5.55859,5.43359v7.04199l-1.17822-.88867c-.03906-.03027-.07959-.05762-.12158-.08301-1.27051-.77441-2.89648-.66113-4.11133,.33984l-3.94189,3.64355Z"/>
  <path class="fill" d="M41.5,36c-.82861,0-1.5,.67188-1.5,1.5,0,1.92969-1.57031,3.5-3.5,3.5h-1.59143c-.20612-.58203-.75488-1-1.40857-1s-1.20239,.41797-1.40851,1h-2.59149c-1.92969,0-3.5-1.57031-3.5-3.5v-2.59155c.58197-.20605,1-.75476,1-1.40845s-.41803-1.20239-1-1.40857v-1.59143c0-1.92969,1.57031-3.5,3.5-3.5,.82861,0,1.5-.67188,1.5-1.5s-.67139-1.5-1.5-1.5c-3.58398,0-6.5,2.91602-6.5,6.5v7c0,3.58398,2.91602,6.5,6.5,6.5h7c3.58398,0,6.5-2.91602,6.5-6.5,0-.82812-.67139-1.5-1.5-1.5Z"/>
  <path class="fill" d="M41.5,24h-6c-.82861,0-1.5,.67188-1.5,1.5s.67139,1.5,1.5,1.5h2.37891l-4.43945,4.43945c-.58594,.58594-.58594,1.53516,0,2.12109,.29297,.29297,.67676,.43945,1.06055,.43945s.76758-.14648,1.06055-.43945l4.43945-4.43945v2.37891c0,.82812,.67139,1.5,1.5,1.5s1.5-.67188,1.5-1.5v-6c0-.82812-.67139-1.5-1.5-1.5Z"/>
  <circle class="fill" cx="29.5" cy="33.5" r="1.5"/>
  <circle class="fill" cx="33.5" cy="37.5" r="1.5"/>
</svg>