<?xml version="1.0" encoding="UTF-8"?>
<svg id="ICONS" xmlns="http://www.w3.org/2000/svg" width="44" height="44" viewBox="0 0 44 44">
  <defs>
    <style>
      .fill {
        fill: #444;
      }
    </style>
  </defs>
  <path class="fill" d="M12.5,20.06539H7.5c-4.13574,0-7.5-3.36426-7.5-7.5V7.56539C0,3.42965,3.36426,.06539,7.5,.06539h5c4.13574,0,7.5,3.36426,7.5,7.5v5c0,4.13574-3.36426,7.5-7.5,7.5ZM7.5,3.06539c-2.48145,0-4.5,2.01855-4.5,4.5v5c0,2.48145,2.01855,4.5,4.5,4.5h5c2.48145,0,4.5-2.01855,4.5-4.5V7.56539c0-2.48145-2.01855-4.5-4.5-4.5H7.5ZM30.99806,28.06442v-.99979c0-1.65685-1.34315-3-3-3h-.99955c-1.65685,0-3,1.34315-3,3v.99979c0,1.65685,1.34315,3,3,3h.99955c1.65685,0,3-1.34315,3-3Zm12.99917,0v-.99979c0-1.65685-1.34315-3-3-3h-.99955c-1.65685,0-3,1.34315-3,3v.99979c0,1.65685,1.34315,3,3,3h.99955c1.65685,0,3-1.34315,3-3Zm-12.99917,12.99961v-.99979c0-1.65685-1.34315-3-3-3h-.99955c-1.65685,0-3,1.34315-3,3v.99979c0,1.65685,1.34315,3,3,3h.99955c1.65685,0,3-1.34315,3-3Zm12.99917,0v-.99979c0-1.65685-1.34315-3-3-3h-.99955c-1.65685,0-3,1.34315-3,3v.99979c0,1.65685,1.34315,3,3,3h.99955c1.65685,0,3-1.34315,3-3ZM13,11.06548v-2.00019c0-1.10452-.89539-1.99991-1.99991-1.99991h-2.00019c-1.10452,0-1.99991,.89539-1.99991,1.99991v2.00019c0,1.10452,.89539,1.99991,1.99991,1.99991h2.00019c1.10452,0,1.99991-.89539,1.99991-1.99991Zm-.5,32.93448H7.5c-4.13574,0-7.5-3.36426-7.5-7.5v-5c0-4.13574,3.36426-7.5,7.5-7.5h5c4.13574,0,7.5,3.36426,7.5,7.5v5c0,4.13574-3.36426,7.5-7.5,7.5ZM7.5,26.99996c-2.48145,0-4.5,2.01855-4.5,4.5v5c0,2.48145,2.01855,4.5,4.5,4.5h5c2.48145,0,4.5-2.01855,4.5-4.5v-5c0-2.48145-2.01855-4.5-4.5-4.5H7.5Zm5.5,8.06552v-2.00019c0-1.10452-.89539-1.99991-1.99991-1.99991h-2.00019c-1.10452,0-1.99991,.89539-1.99991,1.99991v2.00019c0,1.10452,.89539,1.99991,1.99991,1.99991h2.00019c1.10452,0,1.99991-.89539,1.99991-1.99991Zm23.5-15.00009h-5c-4.13574,0-7.5-3.36426-7.5-7.5V7.56539C24,3.42965,27.36426,.06539,31.5,.06539h5c4.13574,0,7.5,3.36426,7.5,7.5v5c0,4.13574-3.36426,7.5-7.5,7.5ZM31.5,3.06539c-2.48145,0-4.5,2.01855-4.5,4.5v5c0,2.48145,2.01855,4.5,4.5,4.5h5c2.48145,0,4.5-2.01855,4.5-4.5V7.56539c0-2.48145-2.01855-4.5-4.5-4.5h-5Zm5.5,8.00009v-2.00019c0-1.10452-.89539-1.99991-1.99991-1.99991h-2.00019c-1.10452,0-1.99991,.89539-1.99991,1.99991v2.00019c0,1.10452,.89539,1.99991,1.99991,1.99991h2.00019c1.10452,0,1.99991-.89539,1.99991-1.99991Zm0,24v-2.00019c0-1.10452-.89539-1.99991-1.99991-1.99991h-2.00019c-1.10452,0-1.99991,.89539-1.99991,1.99991v2.00019c0,1.10452,.89539,1.99991,1.99991,1.99991h2.00019c1.10452,0,1.99991-.89539,1.99991-1.99991Z"/>
</svg>