<?xml version="1.0" encoding="UTF-8"?>
<svg id="ICONS" xmlns="http://www.w3.org/2000/svg" width="44" height="44" viewBox="0 0 44 44">
  <defs>
    <style>
      .fill {
        fill: #444;
      }

    </style>
  </defs>
  <circle class="fill" cx="29.00623" cy="16" r="3"/>
  <path class="fill" opacity="0.3" d="M26.18994,17h-4.18994v8.09106l.91602,.90894h4.50708l2.19019-2.07812c.41821-.36682,.89355-.6073,1.38672-.75098v-4.94434c-.53088,.47559-1.22485,.77344-1.99377,.77344-1.30432,0-2.40295-.8374-2.81628-2Z"/>
  <path class="fill" opacity="0.3" d="M32.50586,8h-1.50586v5.77344c.61304,.54932,1.00623,1.33862,1.00623,2.22656,0,.35254-.07202,.68579-.18372,1h7.18335v-2.5c0-3.58398-2.91602-6.5-6.5-6.5Z"/>
  <path class="fill" opacity="0.3" d="M11.10938,18.87207c.56641-.4751,1.22363-.7439,1.89062-.82788v-1.04419H5.00586v7.5675l6.10352-5.69543Z"/>
  <rect class="fill" opacity="0.3" x="13" y="8" width="9" height="9"/>
  <path class="fill" d="M42,14.5c0-5.23828-4.26168-9.5-9.49991-9.5H11.50029C6.26206,5,2.00038,9.26172,2.00038,14.5v13.45117c-.00098,.01807,.00024,.03503,0,.0531v1.49573c0,5.23828,4.26168,9.5,9.49991,9.5h20.9998c4.27144,0,7.89165-2.83447,9.08316-6.7207,.13818-.25024,.22021-.5188,.20483-.79541,.13672-.64038,.21191-1.30322,.21191-1.98389V14.5ZM11.50029,8h20.9998c3.58395,0,6.49994,2.91602,6.49994,6.5v13.80334l-4.65523-4.34631c-1.31639-1.23047-3.33591-1.26465-4.73726-.03516l-4.14351,3.93164c-.13574,.12793-.2998,.14355-.36621,.13672-.0791-.00293-.22949-.0293-.41406-.23047l-8.85343-8.78516c-1.291-1.2373-3.29684-1.30176-4.72652-.10254l-6.10346,5.69543V14.5c0-3.58398,2.91599-6.5,6.49994-6.5Zm20.9998,28H11.50029c-3.58395,0-6.49994-2.91602-6.49994-6.5v-.82935l8.08879-7.55151c.19629-.16309,.48242-.1543,.64745,.00293l8.77238,8.70215c.63574,.71094,1.5117,1.12402,2.46482,1.16406,.95702,.03223,1.86033-.30176,2.55369-.95801l4.09957-3.8916c.19336-.16895,.48144-.16406,.67089,.01172l6.2171,5.80457c-.97082,2.36975-3.29965,4.04504-6.01496,4.04504Z"/>
</svg>