<?xml version="1.0" encoding="UTF-8"?>
<svg id="ICONS" xmlns="http://www.w3.org/2000/svg" width="44" height="44" viewBox="0 0 44 44">
  <defs>
    <style>
      .fill {
        fill: #444;
      }
    </style>
  </defs>
  <path class="fill" d="M38.5,32.00001c2.48145,0,4.5-2.01855,4.5-4.5s-2.01855-4.5-4.5-4.5-4.5,2.01855-4.5,4.5c0,.37701,.06042,.73749,.14813,1.08765l-4.82996,3.12524-10.00323-6.47266c-.69531-.44727-1.62402-.25098-2.07422,.44531-.4502,.69531-.25098,1.62402,.44434,2.07422l8.87128,5.74023-8.87128,5.74023c-.69531,.4502-.89453,1.37891-.44434,2.07422,.28711,.44434,.76904,.68555,1.26074,.68555,.2793,0,.56152-.07812,.81348-.24023l10.00323-6.47266,4.69922,3.04065c-.00226,.05841-.0174,.11328-.0174,.17224,0,2.48145,2.01855,4.5,4.5,4.5s4.5-2.01855,4.5-4.5-2.01855-4.5-4.5-4.5c-1.32465,0-2.50525,.586-3.32941,1.49982l-3.09058-1.99982,3.73071-2.414c.7525,.56592,1.67725,.914,2.68927,.914Zm0-6c.82715,0,1.5,.67285,1.5,1.5s-.67285,1.5-1.5,1.5-1.5-.67285-1.5-1.5,.67285-1.5,1.5-1.5Zm0,11c.82715,0,1.5,.67285,1.5,1.5s-.67285,1.5-1.5,1.5-1.5-.67285-1.5-1.5,.67285-1.5,1.5-1.5Z"/>
  <path class="fill" d="M15.44385,12.23054c-1.06384-.62482-2.44385,.09387-2.44385,1.27277v7.99341c0,1.17883,1.38,1.89752,2.44385,1.27277l6.80542-3.9967c1.00098-.58789,1.00098-1.9577,0-2.54553l-6.80542-3.9967Z"/>
  <path class="fill" d="M11.5,32.00001h2c.82861,0,1.5-.67188,1.5-1.5s-.67139-1.5-1.5-1.5h-2c-3.58398,0-6.5-2.91602-6.5-6.5V12.50001c0-3.58398,2.91602-6.5,6.5-6.5h12c3.58398,0,6.5,2.91602,6.5,6.5v8c0,.82812,.67139,1.5,1.5,1.5s1.5-.67188,1.5-1.5V12.50001c0-5.23828-4.26172-9.5-9.5-9.5H11.5C6.26172,3.00001,2,7.26173,2,12.50001v10c0,5.23828,4.26172,9.5,9.5,9.5Z"/>
</svg>