<?xml version="1.0" encoding="UTF-8"?>
<svg id="ICONS" xmlns="http://www.w3.org/2000/svg" width="44" height="44" viewBox="0 0 44 44">
  <defs>
    <style>
      .fill {
        fill: #444;
      }
    </style>
  </defs>
  <path class="fill" d="M22.24927,16.22729l-6.80542-3.99683c-1.06384-.62476-2.44385,.09399-2.44385,1.27283v7.99341c0,1.17883,1.38,1.89758,2.44385,1.27283l6.80542-3.99683c1.00098-.58777,1.00098-1.95764,0-2.54541Z"/>
  <path class="fill" d="M18.5,29h-7c-3.58398,0-6.5-2.91602-6.5-6.5V12.5c0-3.58398,2.91602-6.5,6.5-6.5h12c3.58398,0,6.5,2.91602,6.5,6.5v7c0,.82812,.67139,1.5,1.5,1.5s1.5-.67188,1.5-1.5v-7c0-5.23828-4.26172-9.5-9.5-9.5H11.5C6.26172,3,2,7.26172,2,12.5v10c0,5.23828,4.26172,9.5,9.5,9.5h7c.82861,0,1.5-.67188,1.5-1.5s-.67139-1.5-1.5-1.5Z"/>
  <path class="fill" d="M41.5,36c-.82861,0-1.5,.67188-1.5,1.5,0,1.92969-1.57031,3.5-3.5,3.5h-1.59143c-.20612-.58203-.75488-1-1.40857-1s-1.20239,.41797-1.40851,1h-2.59149c-1.92969,0-3.5-1.57031-3.5-3.5v-2.59155c.58197-.20605,1-.75476,1-1.40845s-.41803-1.20239-1-1.40857v-1.59143c0-1.92969,1.57031-3.5,3.5-3.5,.82861,0,1.5-.67188,1.5-1.5s-.67139-1.5-1.5-1.5c-3.58398,0-6.5,2.91602-6.5,6.5v7c0,3.58398,2.91602,6.5,6.5,6.5h7c3.58398,0,6.5-2.91602,6.5-6.5,0-.82812-.67139-1.5-1.5-1.5Z"/>
  <path class="fill" d="M41.5,24h-6c-.82861,0-1.5,.67188-1.5,1.5s.67139,1.5,1.5,1.5h2.37891l-4.43945,4.43945c-.58594,.58594-.58594,1.53516,0,2.12109,.29297,.29297,.67676,.43945,1.06055,.43945s.76758-.14648,1.06055-.43945l4.43945-4.43945v2.37891c0,.82812,.67139,1.5,1.5,1.5s1.5-.67188,1.5-1.5v-6c0-.82812-.67139-1.5-1.5-1.5Z"/>
  <circle class="fill" cx="29.5" cy="33.5" r="1.5"/>
  <circle class="fill" cx="33.5" cy="37.5" r="1.5"/>
</svg>