<?xml version="1.0" encoding="UTF-8"?>
<svg id="ICONS" xmlns="http://www.w3.org/2000/svg" width="18" height="18" viewBox="0 0 18 18">
  <defs>
    <style>
      .fill {
        fill: #222;
      }
    </style>
  </defs>
  <path class="fill" d="m6.08615,4.68727c-.47282-.28401-1.08615.04267-1.08615.57853v3.63336c0,.53583.61333.86251,1.08615.57853l3.02463-1.81668c.44488-.26722.44488-.88986,0-1.15706l-3.02463-1.81668Z"/>
  <path class="fill" d="m15.25,18h-5.5c-1.5166,0-2.75-1.2334-2.75-2.75v-2.5c0-1.5166,1.2334-2.75,2.75-2.75h5.5c1.5166,0,2.75,1.2334,2.75,2.75v2.5c0,1.5166-1.2334,2.75-2.75,2.75Zm-5.5-6.5c-.68945,0-1.25.56055-1.25,1.25v2.5c0,.68945.56055,1.25,1.25,1.25h5.5c.68945,0,1.25-.56055,1.25-1.25v-2.5c0-.68945-.56055-1.25-1.25-1.25h-5.5Z"/>
  <path class="fill" d="m11.4873,13.2793c.24707,0,.39648.03613.48926.07031.05371.0127.10352.00391.14355-.02539.02344-.01855.06348-.06055.06348-.13867l.00586-.64062c0-.09277-.04004-.15527-.11719-.18359-.13379-.05176-.33496-.07715-.61621-.07715-1.10938,0-1.88379.71777-1.88379,1.74609,0,1.00977.72559,1.71582,1.76562,1.71582.32422,0,.56055-.03418.73047-.10352.04492-.0127.12109-.05176.12109-.16992v-.64648l-.00879-.08887-.05176-.03809c-.02832-.01953-.07715-.04004-.14844-.01855-.08105.02441-.25586.05176-.48145.05176-.2373,0-.78809-.07129-.78809-.73242,0-.45801.2832-.7207.77637-.7207Zm.57715,2.19336h0Z"/>
  <path class="fill" d="m15.46777,14.69922c-.02832-.01953-.07812-.04004-.14844-.01855-.08105.02441-.25586.05176-.48145.05176-.2373,0-.78906-.07129-.78906-.73242,0-.45801.2832-.7207.77734-.7207.24707,0,.39648.03613.48926.07031.05371.0127.10352.00391.14355-.02539.02344-.01855.06348-.06055.06348-.13867l.00586-.64062c0-.09277-.04004-.15527-.11719-.18359-.13379-.05176-.33496-.07715-.61621-.07715-1.10938,0-1.88379.71777-1.88379,1.74609,0,1.00977.72559,1.71582,1.76465,1.71582.3252,0,.56152-.03418.73145-.10352.04492-.0127.12109-.05176.12109-.16992v-.64648l-.00879-.08887-.05176-.03809Zm-.0647.77344h.00024-.00024Z"/>
  <path class="fill" d="m4.42871,14c-2.44238,0-4.42871-1.98633-4.42871-4.42871v-5.14258C0,1.98633,1.98633,0,4.42871,0h5.14258c2.44238,0,4.42871,1.98633,4.42871,4.42871v2.86914c0,.55273-.44727,1-1,1s-1-.44727-1-1v-2.86914c0-1.33887-1.08984-2.42871-2.42871-2.42871h-5.14258c-1.33887,0-2.42871,1.08984-2.42871,2.42871v5.14258c0,1.33887,1.08984,2.42871,2.42871,2.42871.55273,0,1,.44727,1,1s-.44727,1-1,1Z"/>
</svg>