<?xml version="1.0" encoding="UTF-8"?>
<svg id="a" data-name="Outline" xmlns="http://www.w3.org/2000/svg" width="180" height="120" viewBox="0 0 180 120">
  <g>
    <g id="b" data-name="Friends &amp;amp; Family">
      <g id="c" data-name="a person">
        <path d="m83.47957,105.47843h-6.18262c-.82861,0-1.5-.67188-1.5-1.5s.67139-1.5,1.5-1.5h6.18262c2.06494,0,3.77197-1.67969,3.80518-3.74414l.4707-29.08887c.08203-4.00488,1.71582-7.7334,4.60156-10.50293s6.66895-4.25146,10.67578-4.16797l1.79443.03662c7.69629.15771,14.42188,5.19629,16.73584,12.5376l2.30469,7.3125c.26123.82812.10596,1.73828-.41455,2.43359-.521.69531-1.37305,1.07422-2.21875,1.08301l-1.97656-.04102-.08252,5.99805c-.021,1.50781-.62939,2.91504-1.71338,3.96289-1.08447,1.04883-2.50732,1.625-4.01904,1.57715l-4.25439-.08691c-.58496-.02051-1.15381.20703-1.58154.61719s-.66992.96289-.68213,1.55469l-.06152,3.01758c-.03809,1.86719.65283,3.63672,1.9458,4.9834s3.03271,2.10938,4.89941,2.14746l15.74951.32227c.82812.01758,1.48584.70215,1.46875,1.53027-.0166.8291-.65771,1.45996-1.53027,1.46973l-15.74951-.32227c-2.66748-.05469-5.1543-1.14453-7.00244-3.07031-1.84766-1.9248-2.83496-4.4541-2.78027-7.12207l.06152-3.0166c.02832-1.39453.59766-2.69336,1.60352-3.6582,1.00635-.96582,2.32764-1.46094,3.7207-1.45312l4.25439.08691c.69238.04297,1.36768-.24609,1.87256-.73438.50537-.48828.78906-1.14453.79834-1.84668l.08594-6.2207c.03271-1.54688,1.32568-2.73047,2.84473-2.74023l1.77637.03711-2.18066-6.91895c-1.92676-6.11328-7.52686-10.30908-13.93604-10.44092l-1.79443-.03662c-3.21582-.05615-6.22998,1.11865-8.53662,3.33301-2.30762,2.21484-3.61426,5.19629-3.67969,8.39355l-.47021,29.08301c-.06006,3.69141-3.11279,6.69531-6.80518,6.69531Z" fill="#5c5cd7"/>
      </g>
    </g>
    <g id="d" data-name="cloud">
      <path d="m114.75362,25.89876c.09927-.48552.15157-.97929.15623-1.47459.02555-5.43548-4.31539-9.61413-9.94522-9.8874-7.36984-.35777-10.25921,5.70102-10.90542,8.0752-6.98239-1.37945-11.61982,2.71864-11.28321,8.92707.32517-.02149.64681-.04844.98615-.04844,7.66832,0,11.72256,5.59483,12.17561,11.52261h19.40818c3.44036,0,8.17048-2.12433,8.17048-8.20268,0-4.84636-4.88734-8.33755-8.76279-8.91177Z" fill="#ddddf6"/>
    </g>
    <g>
      <path d="m122.40828,45.79678c-.55225,0-1,.44775-1,1v2.95166c0,.55225.44775,1,1,1s1-.44775,1-1v-2.95166c0-.55225-.44775-1-1-1Z" fill="#242424"/>
      <path d="m122.40828,53.72061c-.55225,0-1,.44775-1,1v2.95166c0,.55225.44775,1,1,1s1-.44775,1-1v-2.95166c0-.55225-.44775-1-1-1Z" fill="#242424"/>
      <path d="m119.92244,51.23428h-2.95166c-.55225,0-1,.44775-1,1s.44775,1,1,1h2.95166c.55225,0,1-.44775,1-1s-.44775-1-1-1Z" fill="#242424"/>
      <path d="m127.84627,51.23428h-2.95166c-.55225,0-1,.44775-1,1s.44775,1,1,1h2.95166c.55225,0,1-.44775,1-1s-.44775-1-1-1Z" fill="#242424"/>
      <path d="m66.91756,84.10831c-.55225,0-1,.44727-1,1v2.95215c0,.55273.44775,1,1,1s1-.44727,1-1v-2.95215c0-.55273-.44775-1-1-1Z" fill="#242424"/>
      <path d="m66.91756,92.03214c-.55225,0-1,.44727-1,1v2.95215c0,.55273.44775,1,1,1s1-.44727,1-1v-2.95215c0-.55273-.44775-1-1-1Z" fill="#242424"/>
      <path d="m64.43172,89.54581h-2.95166c-.55225,0-1,.44727-1,1s.44775,1,1,1h2.95166c.55225,0,1-.44727,1-1s-.44775-1-1-1Z" fill="#242424"/>
      <path d="m72.35555,89.54581h-2.95166c-.55225,0-1,.44727-1,1s.44775,1,1,1h2.95166c.55225,0,1-.44727,1-1s-.44775-1-1-1Z" fill="#242424"/>
      <path d="m85.77547,30.35684h-25.14453c-6.37305,0-11.55811,5.18457-11.55811,11.55762v25.14502c0,6.37305,5.18506,11.55859,11.55811,11.55859h22.27295c.82861,0,1.5-.67188,1.5-1.5s-.67139-1.5-1.5-1.5h-22.27295c-4.71875,0-8.55811-3.83984-8.55811-8.55859v-25.14502c0-4.71875,3.83936-8.55762,8.55811-8.55762h25.14453c4.71875,0,8.55811,3.83887,8.55811,8.55762v8.34717c0,.82861.67139,1.5,1.5,1.5s1.5-.67139,1.5-1.5v-8.34717c0-6.37305-5.18506-11.55762-11.55811-11.55762Z" fill="#242424"/>
    </g>
  </g>
  <path d="m77.67068,46.60678c-.77601-1.74602-2.52203-3.00703-4.46205-3.00703s-3.68604,1.16401-4.46205,3.00703l-6.11106,14.55015c-.87301,2.03702.582,4.17104,2.81303,4.17104h6.79007c1.64902,0,3.00703-1.35802,3.00703-3.00703s-1.35802-3.00703-3.00703-3.00703h-1.16401c-.48501,0-.87301-.48501-.67901-.97001l2.13402-5.14105c.194-.582.97001-.582,1.26101,0l4.46205,10.37911c.582,1.35802,1.74602,1.84302,2.81303,1.84302,2.13402,0,3.58903-2.23103,2.81303-4.17104l-6.20807-14.64716Z" fill="#242424"/>
</svg>