<svg xmlns="http://www.w3.org/2000/svg" width="203" height="361" viewBox="0 0 203 361">
  <g id="Crop_objects" data-name="Crop objects" transform="translate(-1.655 -2.486)">
    <path id="Subtraction_76" data-name="Subtraction 76" d="M172.655,361h-143a29.975,29.975,0,0,1-30-30V30a29.975,29.975,0,0,1,30-30h143a29.975,29.975,0,0,1,30,30V331a29.976,29.976,0,0,1-30,30Zm-159-258V306h175V103Z" transform="translate(2 2.486)" opacity="0.455"/>
    <g id="Rectangle_151596" data-name="Rectangle 151596" transform="translate(15.655 105.486)" fill="none" stroke="#fff" stroke-width="2">
      <rect width="175" height="203" stroke="none"/>
      <rect x="1" y="1" width="173" height="201" fill="none"/>
    </g>
    <g id="Group_162056" data-name="Group 162056" transform="translate(10.767 100.727)" opacity="0.75">
      <circle id="Ellipse_10156" data-name="Ellipse 10156" cx="5.5" cy="5.5" r="5.5" transform="translate(-0.111 -0.241)" fill="#c6d0d8"/>
      <circle id="Ellipse_10156-2" data-name="Ellipse 10156" cx="5.5" cy="5.5" r="5.5" transform="translate(86.889 -0.241)" fill="#c6d0d8"/>
      <circle id="Ellipse_10156-3" data-name="Ellipse 10156" cx="5.5" cy="5.5" r="5.5" transform="translate(173.889 -0.241)" fill="#c6d0d8"/>
      <circle id="Ellipse_10156-4" data-name="Ellipse 10156" cx="5.5" cy="5.5" r="5.5" transform="translate(-0.111 100.759)" fill="#c6d0d8"/>
      <circle id="Ellipse_10156-5" data-name="Ellipse 10156" cx="5.5" cy="5.5" r="5.5" transform="translate(173.889 100.759)" fill="#c6d0d8"/>
      <circle id="Ellipse_10156-6" data-name="Ellipse 10156" cx="5.5" cy="5.5" r="5.5" transform="translate(-0.111 201.759)" fill="#c6d0d8"/>
      <circle id="Ellipse_10156-7" data-name="Ellipse 10156" cx="5.5" cy="5.5" r="5.5" transform="translate(86.889 201.759)" fill="#c6d0d8"/>
      <circle id="Ellipse_10156-8" data-name="Ellipse 10156" cx="5.5" cy="5.5" r="5.5" transform="translate(173.889 201.759)" fill="#c6d0d8"/>
    </g>
    <path id="Path_103602" data-name="Path 103602" d="M10067.822,6680v199.3" transform="translate(-9933.598 -6572.723)" fill="none" stroke="#fff" stroke-linecap="square" stroke-width="2" stroke-dasharray="3 7"/>
    <path id="Path_103604" data-name="Path 103604" d="M10067.822,6680v199.3" transform="translate(-9996.213 -6572.723)" fill="none" stroke="#fff" stroke-linecap="square" stroke-width="2" stroke-dasharray="3 7"/>
    <path id="Path_103605" data-name="Path 103605" d="M0,0V173.14" transform="translate(189.591 240.109) rotate(90)" fill="none" stroke="#fff" stroke-linecap="square" stroke-width="2" stroke-dasharray="3 7"/>
    <path id="Path_103606" data-name="Path 103606" d="M0,0V173.14" transform="translate(189.591 173.341) rotate(90)" fill="none" stroke="#fff" stroke-linecap="square" stroke-width="2" stroke-dasharray="3 7"/>
  </g>
</svg>
