<?xml version="1.0" encoding="UTF-8"?>
<svg id="ICONS" xmlns="http://www.w3.org/2000/svg" width="44" height="44" viewBox="0 0 44 44">
  <defs>
    <style>
      .fill {
        fill: #444;
      }
    </style>
  </defs>
  <path class="fill" d="M26.71069,32.81135l4.76379-3.27002c.70068-.48096,.70068-1.60175,0-2.0827l-4.76379-3.27002c-.74463-.51117-1.71069,.07684-1.71069,1.04138v6.54004c0,.96454,.96606,1.55255,1.71069,1.04132Z"/>
  <path class="fill" d="M23,22.00001c.40015,0,.81018-.16034,1.10986-.48987,.55933-.61102,.50964-1.56232-.10059-2.1225-.60913-.55145-1.55896-.51135-2.11841,.09973-.5603,.62079-.5105,1.56232,.09961,2.1225,.29004,.26007,.65015,.39014,1.00952,.39014Z"/>
  <path class="fill" d="M19.99878,25.00001c.40991,0,.81885-.16998,1.11951-.50006,.54944-.61047,.49963-1.55981-.11023-2.11066-.61987-.55963-1.56958-.50983-2.11902,.11035-.5592,.61041-.50952,1.56079,.11023,2.12042,.28992,.25,.64917,.37994,.99951,.37994Z"/>
  <path class="fill" d="M9.5,28.00001h6.29297c.05566,0,.10742,.02148,.14648,.06055s.06055,.09082,.06055,.14648v5.29297c0,4.13574,3.36426,7.5,7.5,7.5h10c4.13574,0,7.5-3.36426,7.5-7.5v-10c0-4.13574-3.36426-7.5-7.5-7.5h-6.29297c-.05566,0-.10742-.02148-.14648-.06055s-.06055-.09082-.06055-.14648v-5.29297c0-4.13574-3.36426-7.5-7.5-7.5H9.5c-4.13574,0-7.5,3.36426-7.5,7.5v10c0,4.13574,3.36426,7.5,7.5,7.5ZM5,10.50001c0-2.48145,2.01855-4.5,4.5-4.5h10c2.48145,0,4.5,2.01855,4.5,4.5v5.29297c0,.85645,.33398,1.66211,.93945,2.26758s1.41113,.93945,2.26758,.93945h6.29297c2.48145,0,4.5,2.01855,4.5,4.5v10c0,2.48145-2.01855,4.5-4.5,4.5h-10c-2.48145,0-4.5-2.01855-4.5-4.5v-5.29297c0-.85645-.33398-1.66211-.93945-2.26758s-1.41113-.93945-2.26758-.93945h-6.29297c-2.48145,0-4.5-2.01855-4.5-4.5V10.50001Z"/>
  <path class="fill" d="M12.71069,19.81135l4.76379-3.27002c.70068-.48096,.70068-1.60175,0-2.0827l-4.76379-3.27002c-.74463-.51117-1.71069,.07684-1.71069,1.04138v6.54004c0,.96454,.96606,1.55255,1.71069,1.04132Z"/>
</svg>