<svg id="SX_Resize_22_N" xmlns="http://www.w3.org/2000/svg" width="22" height="22" viewBox="0 0 22 22">
  <defs>
    <style>
      .cls-1 {
        fill: rgba(255,19,220,0);
      }

      .cls-2 {
        fill: #484848;
      }
    </style>
  </defs>
  <g id="SMOCK">
    <rect id="Canvas" class="cls-1" width="22" height="22"/>
  </g>
  <g id="ICONS">
    <path id="Path_125937" data-name="Path 125937" class="cls-2" d="M16,1H6A5.006,5.006,0,0,0,1,6V16a5.006,5.006,0,0,0,5,5H16a5.006,5.006,0,0,0,5-5V6a5.006,5.006,0,0,0-5-5Zm3,15a3,3,0,0,1-3,3H6a3,3,0,0,1-3-3V6A3,3,0,0,1,6,3H16a3,3,0,0,1,3,3Z"/>
    <path id="Path_125938" data-name="Path 125938" class="cls-2" d="M16,5H12a1,1,0,0,0,0,2h1.588L11.209,9.376a1,1,0,1,0,1.415,1.414L15,8.414V9.99a1,1,0,0,0,2,0V6A1,1,0,0,0,16,5Z"/>
    <path id="Path_125939" data-name="Path 125939" class="cls-2" d="M12.91,14.04v.009h0Z"/>
    <circle id="Ellipse_24609" data-name="Ellipse 24609" class="cls-2" cx="1" cy="1" r="1" transform="translate(6.76 10)"/>
    <path id="Path_125940" data-name="Path 125940" class="cls-2" d="M11.06,11.05a1,1,0,1,0-1.22,1.58.981.981,0,0,0,.61.21,1.014,1.014,0,0,0,.79-.39.991.991,0,0,0-.18-1.4Z"/>
    <circle id="Ellipse_24610" data-name="Ellipse 24610" class="cls-2" cx="1" cy="1" r="1" transform="translate(3.88 10)"/>
    <path id="Path_125941" data-name="Path 125941" class="cls-2" d="M11.93,15.229a1.415,1.415,0,0,0,.19-.009,1.036,1.036,0,1,0-.19.009Z"/>
    <circle id="Ellipse_24611" data-name="Ellipse 24611" class="cls-2" cx="1" cy="1" r="1" transform="translate(11 16.109)"/>
  </g>
</svg>
