<svg xmlns="http://www.w3.org/2000/svg" width="130" height="117.127" viewBox="0 0 130 117.127">
  <g id="Benefits_blade_image_1" data-name="Benefits blade image 1" transform="translate(0.021 16.25)">
    <rect id="Canvas" width="130" height="115" transform="translate(-0.021 -16.25)" fill="#ff13dc" opacity="0"/>
    <g id="Group_162085" data-name="Group 162085" transform="translate(-2474.669 -816.682)">
      <g id="Group_162021" data-name="Group 162021" transform="translate(2481.878 804.584)">
        <g id="Group_162014" data-name="Group 162014" transform="translate(10.652 22.028)">
          <path id="Path_103523" data-name="Path 103523" d="M2500.334,862.422a.84.84,0,0,1-.811-1.06l3.258-12.01a6.889,6.889,0,0,1,4.266-4.694,6.9,6.9,0,0,1,6.3.71l9,5.956a3.511,3.511,0,0,0,5.209-1.651l2.5-6.411a3.948,3.948,0,0,1,5.669-1.976.84.84,0,0,1,.3,1.149.838.838,0,0,1-1.149.3,2.271,2.271,0,0,0-3.258,1.136l-2.5,6.41a5.186,5.186,0,0,1-7.7,2.442l-9-5.956a5.252,5.252,0,0,0-2.9-.885,5.317,5.317,0,0,0-1.879.346,5.233,5.233,0,0,0-3.237,3.562l-3.259,12.01A.838.838,0,0,1,2500.334,862.422Z" transform="translate(-2499.268 -840.521)" fill="#b5b5b5"/>
          <path id="Path_103524" data-name="Path 103524" d="M2500.311,862.172a.611.611,0,0,0,.59-.453l3.259-12.01a5.459,5.459,0,0,1,3.376-3.715,5.548,5.548,0,0,1,1.959-.361,5.47,5.47,0,0,1,3.03.923l8.995,5.956a4.964,4.964,0,0,0,7.365-2.335l2.5-6.41a2.5,2.5,0,0,1,3.583-1.249.613.613,0,1,0,.618-1.059,3.722,3.722,0,0,0-5.343,1.862l-2.5,6.411a3.734,3.734,0,0,1-5.545,1.757l-9-5.956a6.686,6.686,0,0,0-3.7-1.128,6.771,6.771,0,0,0-2.394.442,6.666,6.666,0,0,0-4.127,4.541l-3.258,12.01a.613.613,0,0,0,.431.753.607.607,0,0,0,.161.021m0,.453a1.067,1.067,0,0,1-1.03-1.346l3.259-12.01a7.113,7.113,0,0,1,4.4-4.847,7.124,7.124,0,0,1,6.508.733l9,5.956a3.285,3.285,0,0,0,4.873-1.544l2.5-6.411a4.175,4.175,0,0,1,5.994-2.089,1.066,1.066,0,1,1-1.075,1.841,2.044,2.044,0,0,0-2.932,1.023l-2.5,6.41a5.413,5.413,0,0,1-8.037,2.548l-9-5.956a5.024,5.024,0,0,0-2.78-.847,5.089,5.089,0,0,0-1.8.332,5.009,5.009,0,0,0-3.1,3.409l-3.258,12.01A1.065,1.065,0,0,1,2500.311,862.625Z" transform="translate(-2499.244 -840.498)" fill="#b5b5b5"/>
        </g>
        <g id="Group_162015" data-name="Group 162015" transform="translate(28.131 11.361)">
          <path id="Path_103525" data-name="Path 103525" d="M2532.925,833.214a4.921,4.921,0,1,1,1.809-.346A4.883,4.883,0,0,1,2532.925,833.214Zm-.005-8.177a3.254,3.254,0,1,0,1.288.268A3.248,3.248,0,0,0,2532.92,825.037Z" transform="translate(-2527.765 -823.13)" fill="#b5b5b5"/>
          <path id="Path_103526" data-name="Path 103526" d="M2532.9,832.963a4.7,4.7,0,1,0-4.376-2.969,4.667,4.667,0,0,0,4.376,2.969m-.005-8.177a3.479,3.479,0,1,1-1.281.246,3.474,3.474,0,0,1,1.281-.246m.005,8.63a5.148,5.148,0,1,1,1.893-.362A5.158,5.158,0,0,1,2532.9,833.416Zm-.005-8.177a3.027,3.027,0,1,0,1.2.25A3.022,3.022,0,0,0,2532.9,825.24Z" transform="translate(-2527.741 -823.107)" fill="#b5b5b5"/>
        </g>
        <g id="Group_162016" data-name="Group 162016">
          <path id="Path_103527" data-name="Path 103527" d="M2498.538,857.4a3.458,3.458,0,0,1-3.207-2.18l-12.958-32.7a3.45,3.45,0,0,1,1.937-4.479l32.7-12.958a3.452,3.452,0,0,1,4.479,1.936l12.958,32.7a3.454,3.454,0,0,1-1.937,4.478l-32.7,12.958A3.434,3.434,0,0,1,2498.538,857.4Zm19.741-50.882a1.763,1.763,0,0,0-.65.125l-32.7,12.958a1.769,1.769,0,0,0-.994,2.3l12.958,32.7a1.766,1.766,0,0,0,2.3.994l32.7-12.958a1.773,1.773,0,0,0,.994-2.3l-12.958-32.7A1.762,1.762,0,0,0,2518.28,806.516Z" transform="translate(-2481.902 -804.607)" fill="#b5b5b5"/>
          <path id="Path_103528" data-name="Path 103528" d="M2498.514,857.148a3.22,3.22,0,0,0,1.188-.228l32.7-12.958a3.228,3.228,0,0,0,1.81-4.184l-12.958-32.7a3.217,3.217,0,0,0-4.185-1.809l-32.7,12.958a3.224,3.224,0,0,0-1.809,4.185l12.958,32.7a3.233,3.233,0,0,0,3,2.038m19.742-50.882a2,2,0,0,1,1.859,1.262l12.958,32.7a2,2,0,0,1-1.121,2.593l-32.7,12.958a1.982,1.982,0,0,1-.734.142,2.006,2.006,0,0,1-.794-.166,1.983,1.983,0,0,1-1.064-1.1l-12.958-32.7a2,2,0,0,1,1.121-2.593l32.7-12.958a2,2,0,0,1,.733-.14m13.923,37.126h.006Zm-33.665,14.21a3.685,3.685,0,0,1-3.417-2.323l-12.958-32.7a3.676,3.676,0,0,1,2.063-4.772l32.7-12.958a3.678,3.678,0,0,1,4.772,2.063l12.958,32.7a3.681,3.681,0,0,1-2.064,4.772l-32.7,12.958A3.661,3.661,0,0,1,2498.514,857.6Zm19.742-50.883a1.538,1.538,0,0,0-.567.109l-32.7,12.958a1.543,1.543,0,0,0-.866,2.005l12.958,32.7a1.54,1.54,0,0,0,2,.867l32.7-12.958a1.546,1.546,0,0,0,.866-2l-12.958-32.7A1.537,1.537,0,0,0,2518.256,806.719Z" transform="translate(-2481.878 -804.584)" fill="#b5b5b5"/>
        </g>
        <path id="Path_103529" data-name="Path 103529" d="M2576.4,905.635a6.634,6.634,0,1,1,6.635-6.634,6.634,6.634,0,0,1-6.635,6.634Zm0-12.042a5.407,5.407,0,1,0,5.408,5.408,5.407,5.407,0,0,0-5.408-5.408Z" transform="translate(-2515.713 -838.377)" fill="#b5b5b5"/>
        <path id="Path_103530" data-name="Path 103530" d="M2580.977,903.41h-4.22a.613.613,0,0,1,0-1.227h4.22a.613.613,0,0,1,0,1.227Z" transform="translate(-2518.177 -842.172)" fill="#b5b5b5"/>
        <path id="Path_103531" data-name="Path 103531" d="M2580.2,904.189a.613.613,0,0,1-.613-.613v-4.221a.614.614,0,0,1,1.227,0v4.221a.614.614,0,0,1-.614.613Z" transform="translate(-2519.507 -840.841)" fill="#b5b5b5"/>
        <path id="Path_103532" data-name="Path 103532" d="M2604.074,948.583a.5.5,0,0,1-.5-.5V937.023a.5.5,0,1,1,1,0v11.059A.5.5,0,0,1,2604.074,948.583Z" transform="translate(-2528.782 -855.449)" fill="#b5b5b5"/>
        <path id="Path_103533" data-name="Path 103533" d="M2644.358,958.59h-37.374a.5.5,0,0,1,0-1h37.374a.5.5,0,1,1,0,1Z" transform="translate(-2529.908 -863.594)" fill="#b5b5b5"/>
        <path id="Path_103534" data-name="Path 103534" d="M2670.656,948.583a.5.5,0,0,1-.5-.5V937.023a.5.5,0,0,1,1,0v11.059A.5.5,0,0,1,2670.656,948.583Z" transform="translate(-2554.526 -855.449)" fill="#b5b5b5"/>
        <path id="Path_103535" data-name="Path 103535" d="M2644.321,934.613h-37.336a.5.5,0,1,1,0-1h37.336a.5.5,0,0,1,0,1Z" transform="translate(-2529.908 -854.324)" fill="#b5b5b5"/>
        <path id="Path_103536" data-name="Path 103536" d="M2642.88,951.7h-29.833a.5.5,0,0,1,0-1h29.836a.5.5,0,0,1,0,1Z" transform="translate(-2532.252 -860.928)" fill="#b5b5b5"/>
        <path id="Path_103537" data-name="Path 103537" d="M2650.181,941.508h-18.255a.5.5,0,0,1,0-1h18.255a.5.5,0,0,1,0,1Z" transform="translate(-2539.552 -856.989)" fill="#b5b5b5"/>
        <path id="Path_103538" data-name="Path 103538" d="M2619.717,941.508h-6.669a.5.5,0,0,1,0-1h6.672a.5.5,0,0,1,0,1Z" transform="translate(-2532.252 -856.989)" fill="#b5b5b5"/>
        <path id="Path_103539" data-name="Path 103539" d="M2669.641,935.273a2.287,2.287,0,1,1,2.287-2.287A2.287,2.287,0,0,1,2669.641,935.273Zm0-3.57a1.284,1.284,0,1,0,1.284,1.284,1.284,1.284,0,0,0-1.284-1.284Z" transform="translate(-2553.443 -853.198)" fill="#b5b5b5"/>
        <path id="Path_103540" data-name="Path 103540" d="M2669.641,959.126a2.287,2.287,0,1,1,2.287-2.287A2.287,2.287,0,0,1,2669.641,959.126Zm0-3.571a1.284,1.284,0,1,0,1.284,1.283,1.283,1.283,0,0,0-1.284-1.283Z" transform="translate(-2553.443 -862.42)" fill="#b5b5b5"/>
        <path id="Path_103541" data-name="Path 103541" d="M2602.949,935.273a2.287,2.287,0,1,1,2.287-2.287A2.286,2.286,0,0,1,2602.949,935.273Zm0-3.57a1.284,1.284,0,1,0,1.284,1.284,1.284,1.284,0,0,0-1.284-1.284Z" transform="translate(-2527.658 -853.198)" fill="#b5b5b5"/>
        <path id="Path_103542" data-name="Path 103542" d="M2602.949,959.126a2.287,2.287,0,1,1,2.287-2.287A2.287,2.287,0,0,1,2602.949,959.126Zm0-3.571a1.284,1.284,0,1,0,1.284,1.283,1.284,1.284,0,0,0-1.284-1.283Z" transform="translate(-2527.658 -862.42)" fill="#b5b5b5"/>
        <g id="Group_162018" data-name="Group 162018" transform="translate(51.575 25.135)">
          <path id="Path_103545" data-name="Path 103545" d="M2605.618,897.062a1.148,1.148,0,0,1-1.147-1.146V848.855a.749.749,0,0,0-.749-.749H2567.36a1.147,1.147,0,1,1,0-2.293h36.363a3.046,3.046,0,0,1,3.042,3.042v47.061A1.148,1.148,0,0,1,2605.618,897.062Z" transform="translate(-2565.987 -845.586)" fill="#b5b5b5"/>
          <path id="Path_103546" data-name="Path 103546" d="M2605.595,896.813a.92.92,0,0,0,.92-.92V848.831a2.818,2.818,0,0,0-2.815-2.815h-36.364a.92.92,0,0,0,0,1.84H2603.7a.976.976,0,0,1,.975.975v47.061a.921.921,0,0,0,.92.92m0,.453a1.375,1.375,0,0,1-1.373-1.373V848.831a.523.523,0,0,0-.522-.522h-36.364a1.373,1.373,0,1,1,0-2.746H2603.7a3.272,3.272,0,0,1,3.268,3.268v47.061A1.375,1.375,0,0,1,2605.595,897.266Z" transform="translate(-2565.963 -845.563)" fill="#b5b5b5"/>
        </g>
        <g id="Group_162019" data-name="Group 162019" transform="translate(49.396 97.371)">
          <path id="Path_103547" data-name="Path 103547" d="M2601.479,973.911h-.044l-13.1-.153h-24.523a1.147,1.147,0,1,1,0-2.293h24.537l13.114.153a1.672,1.672,0,0,0,1.159-.468,1.61,1.61,0,0,0,.48-1.153v-5.268a1.147,1.147,0,0,1,2.293,0V970a3.913,3.913,0,0,1-3.913,3.914Z" transform="translate(-2562.436 -963.355)" fill="#b5b5b5"/>
          <path id="Path_103548" data-name="Path 103548" d="M2601.455,973.661a3.686,3.686,0,0,0,3.687-3.688v-5.268a.92.92,0,1,0-1.84,0v5.268a1.833,1.833,0,0,1-.548,1.314,1.894,1.894,0,0,1-1.32.534l-13.111-.153h-24.537a.92.92,0,0,0,0,1.84h24.526l13.1.154Zm0,.453h-.049l-13.1-.153h-24.523a1.373,1.373,0,0,1,0-2.746h24.542l13.107.153a1.442,1.442,0,0,0,1-.4,1.383,1.383,0,0,0,.414-.992v-5.268a1.373,1.373,0,1,1,2.747,0v5.268a4.14,4.14,0,0,1-4.14,4.141Z" transform="translate(-2562.412 -963.332)" fill="#b5b5b5"/>
        </g>
        <g id="Group_162020" data-name="Group 162020" transform="translate(28.792 53.23)">
          <path id="Path_103549" data-name="Path 103549" d="M2530.216,929.721a1.148,1.148,0,0,1-1.146-1.147V892.763a1.147,1.147,0,1,1,2.293,0v35.811A1.148,1.148,0,0,1,2530.216,929.721Z" transform="translate(-2528.843 -891.389)" fill="#b5b5b5"/>
          <path id="Path_103550" data-name="Path 103550" d="M2530.192,929.471a.921.921,0,0,0,.92-.92V892.739a.92.92,0,0,0-1.84,0V928.55a.921.921,0,0,0,.92.92m0,.453a1.375,1.375,0,0,1-1.373-1.373V892.739a1.373,1.373,0,0,1,2.747,0V928.55A1.375,1.375,0,0,1,2530.192,929.923Z" transform="translate(-2528.819 -891.366)" fill="#b5b5b5"/>
        </g>
        <path id="Path_103551" data-name="Path 103551" d="M2578.753,856.321h-1.9a.46.46,0,1,1,0-.92h1.9a.46.46,0,1,1,0,.92Z" transform="translate(-2518.273 -824.085)" fill="#b5b5b5"/>
        <path id="Path_103552" data-name="Path 103552" d="M2608.042,893.636a.46.46,0,0,1-.46-.46v-3.9a.46.46,0,1,1,.919,0v3.9a.46.46,0,0,1-.46.46Zm0-7.792a.46.46,0,0,1-.46-.46v-3.9a.46.46,0,1,1,.919,0v3.9a.46.46,0,0,1-.46.46Zm0-7.792a.46.46,0,0,1-.46-.46v-3.9a.46.46,0,1,1,.919,0v3.9a.46.46,0,0,1-.46.46Zm0-7.792a.46.46,0,0,1-.46-.46v-3.9a.46.46,0,1,1,.919,0v3.9a.459.459,0,0,1-.459.46Zm0-7.792a.46.46,0,0,1-.46-.46v-3.9a.46.46,0,1,1,.919,0v3.9a.46.46,0,0,1-.46.46Zm-2.257-6.149h-3.9a.46.46,0,1,1,0-.92h3.9a.46.46,0,1,1,0,.92Zm-7.792,0h-3.9a.46.46,0,1,1,0-.92h3.9a.46.46,0,1,1,0,.92Zm-7.792,0h-3.9a.46.46,0,1,1,0-.92h3.9a.46.46,0,0,1,0,.92Z" transform="translate(-2521.929 -824.085)" fill="#b5b5b5"/>
        <path id="Path_103553" data-name="Path 103553" d="M2621.744,925.417a.461.461,0,0,1-.46-.46v-1.9a.46.46,0,0,1,.921,0v1.9A.461.461,0,0,1,2621.744,925.417Z" transform="translate(-2535.632 -850.064)" fill="#b5b5b5"/>
      </g>
      <path id="Path_103554" data-name="Path 103554" d="M2591.668,941.876h-1.9a.46.46,0,0,1,0-.92h1.9a.46.46,0,0,1,0,.92Z" transform="translate(-41.39 -52.58)" fill="#b5b5b5"/>
      <path id="Path_103555" data-name="Path 103555" d="M2566.368,923.8h-3.706a.46.46,0,0,1,0-.92h3.706a.46.46,0,1,1,0,.92Zm-7.41,0h-3.706a.46.46,0,0,1,0-.92h3.706a.46.46,0,1,1,0,.92Zm-7.411,0h-3.706a.46.46,0,0,1,0-.92h3.706a.46.46,0,1,1,0,.92Zm-7.411,0h-3.706a.46.46,0,0,1,0-.92h3.706a.46.46,0,0,1,0,.92Zm-5.3-2.731a.46.46,0,0,1-.46-.46v-3.7a.46.46,0,1,1,.919,0v3.7a.46.46,0,0,1-.458.461Zm0-7.411a.46.46,0,0,1-.46-.46v-3.7a.46.46,0,1,1,.919,0v3.7a.46.46,0,0,1-.458.461Zm0-7.411a.46.46,0,0,1-.46-.46v-3.708a.46.46,0,1,1,.919,0v3.7a.461.461,0,0,1-.458.463Zm0-7.411a.46.46,0,0,1-.46-.46v-3.7a.46.46,0,1,1,.919,0v3.7a.46.46,0,0,1-.458.461Z" transform="translate(-21.7 -34.506)" fill="#b5b5b5"/>
      <path id="Path_103556" data-name="Path 103556" d="M2538.841,887.891a.46.46,0,0,1-.46-.46v-1.9a.46.46,0,0,1,.919,0v1.9a.46.46,0,0,1-.459.46Z" transform="translate(-21.7 -30.972)" fill="#b5b5b5"/>
      <path id="Path_103557" data-name="Path 103557" d="M2570.68,966.131h-1.9a.46.46,0,0,1,0-.921h1.9a.46.46,0,1,1,0,.921Z" transform="translate(-33.273 -61.958)" fill="#b5b5b5"/>
      <path id="Path_103558" data-name="Path 103558" d="M2582.7,966.131h-4.112a.46.46,0,1,1,0-.921h4.112a.46.46,0,1,1,0,.921Z" transform="translate(-37.066 -61.958)" fill="#b5b5b5"/>
      <path id="Path_103559" data-name="Path 103559" d="M2593.9,966.131H2592a.46.46,0,1,1,0-.921h1.9a.46.46,0,0,1,0,.921Z" transform="translate(-42.25 -61.958)" fill="#b5b5b5"/>
      <path id="Path_103560" data-name="Path 103560" d="M2570.68,956.043h-1.9a.46.46,0,0,1,0-.921h1.9a.46.46,0,1,1,0,.921Z" transform="translate(-33.273 -58.057)" fill="#b5b5b5"/>
      <path id="Path_103561" data-name="Path 103561" d="M2582.7,956.043h-4.112a.46.46,0,1,1,0-.921h4.112a.46.46,0,1,1,0,.921Z" transform="translate(-37.066 -58.057)" fill="#b5b5b5"/>
      <path id="Path_103562" data-name="Path 103562" d="M2593.9,956.043H2592a.46.46,0,1,1,0-.921h1.9a.46.46,0,0,1,0,.921Z" transform="translate(-42.25 -58.057)" fill="#b5b5b5"/>
    </g>
    <g id="Group_162078" data-name="Group 162078" transform="matrix(0.974, 0.225, -0.225, 0.974, 32.183, 51.435)">
      <g id="Group_162044" data-name="Group 162044" transform="translate(0)">
        <rect id="Canvas-2" data-name="Canvas" width="39.932" height="38.908" fill="#ff13dc" opacity="0"/>
        <g id="Path_103521" data-name="Path 103521" transform="translate(3.997 9.826)" fill="#f8f8f8">
          <path d="M 21.14482879638672 31.30519676208496 L 20.17082786560059 31.30519676208496 L 2.268068075180054 31.30519676208496 L 1.221368074417114 31.30519676208496 L 0.8601980805397034 30.32277679443359 C 0.2529480755329132 28.67100715637207 -0.5738219618797302 26.22123718261719 -1.064041972160339 23.93076705932617 C -1.733581900596619 20.80239677429199 -1.637211918830872 18.74284744262695 -0.7607419490814209 17.44922637939453 L -0.6821519136428833 17.33322715759277 L -0.5834319591522217 17.23379707336426 C 0.2343299388885498 16.41006660461426 1.281093120574951 15.82704448699951 2.408240556716919 15.55955982208252 C 2.484449148178101 15.47468852996826 2.558595180511475 15.38804626464844 2.630287885665894 15.3000602722168 C 3.384214878082275 14.3320894241333 4.46006441116333 13.66286182403564 5.662018299102783 13.41460704803467 L 5.74025821685791 13.39844703674316 L 5.819767951965332 13.39068698883057 C 6.105567932128906 13.36279678344727 6.396078109741211 13.34866714477539 6.683228015899658 13.34866714477539 C 6.879698276519775 13.34866714477539 7.078718185424805 13.35528755187988 7.274747848510742 13.36835670471191 L 7.28695821762085 13.36917686462402 L 7.299158096313477 13.3701868057251 L 7.365578174591064 13.24473667144775 L 7.457397937774658 13.13228702545166 C 8.172758102416992 12.23964691162109 9.183837890625 11.62139701843262 10.30437850952148 11.3914270401001 L 10.33563804626465 11.38500690460205 L 10.36714839935303 11.37992668151855 C 10.53261852264404 11.35324668884277 10.69984817504883 11.33971691131592 10.8641881942749 11.33971691131592 C 11.08743858337402 11.33971691131592 11.29124927520752 11.36375617980957 11.47587776184082 11.40115928649902 L 11.47587776184082 2.649850130081177 C 11.32983493804932 1.242522716522217 11.99531745910645 -0.1446212977170944 13.19276809692383 -0.9090928435325623 C 13.79828834533691 -1.29567289352417 14.49806785583496 -1.499992847442627 15.21645832061768 -1.499992847442627 C 15.93483829498291 -1.499992847442627 16.63461875915527 -1.29567289352417 17.24013900756836 -0.9091028571128845 C 18.43758964538574 -0.1446118205785751 19.10307121276855 1.242523193359375 18.95702743530273 2.649850130081177 L 18.95702743530273 14.63143730163574 C 18.95551490783691 15.68601322174072 19.13263893127441 16.71687126159668 19.48407363891602 17.7034854888916 C 20.25064086914062 16.97281455993652 20.93077659606934 16.1570930480957 21.51589393615723 15.26547622680664 C 22.26566314697266 13.858567237854 23.46568298339844 12.70807266235352 24.90374374389648 12.01907920837402 C 25.34077453613281 11.80299663543701 25.82869720458984 11.68886756896973 26.31591796875 11.68886756896973 C 27.05118179321289 11.68886756896973 27.76070594787598 11.9420919418335 28.32842254638672 12.4045238494873 C 28.97809600830078 12.83882522583008 29.40517616271973 13.45690155029297 29.56668853759766 14.19931697845459 C 29.6956787109375 14.79220676422119 29.65318870544434 15.43541717529297 29.43679809570312 16.16568756103516 C 29.12120819091797 17.23075675964355 28.48962783813477 18.30540657043457 27.87884712219238 19.34467697143555 L 27.87063980102539 19.35864448547363 C 27.79669189453125 19.48670387268066 27.72393989562988 19.61047744750977 27.65416717529297 19.72912788391113 C 27.55325126647949 19.90076637268066 27.45784759521484 20.06302261352539 27.38167190551758 20.2003002166748 C 27.30191421508789 20.34719657897949 27.17895317077637 20.53080558776855 26.85647583007812 20.98562240600586 C 24.79696464538574 23.94754219055176 23.00874137878418 27.11997985839844 21.54107856750488 30.41544723510742 L 21.14482879638672 31.30519676208496 Z" stroke="none"/>
          <path d="M 20.17082786560059 29.80519676208496 C 21.68141746520996 26.4133472442627 23.50891876220703 23.17171669006348 25.62898826599121 20.12346649169922 C 25.86586761474609 19.78942680358887 26.01978874206543 19.56672668457031 26.06563758850098 19.48048782348633 C 26.20645713806152 19.22613716125488 26.38657760620117 18.92920684814453 26.57433891296387 18.60390663146973 C 27.68998718261719 16.70553779602051 28.96282768249512 14.55173683166504 27.43454742431641 13.61293697357178 C 26.91887664794922 13.1561861038208 26.17727661132812 13.05894756317139 25.56129837036133 13.36731719970703 C 24.37951850891113 13.93093681335449 23.41373825073242 14.86453723907471 22.81038856506348 16.02654647827148 C 21.82672882080078 17.54105758666992 20.58489799499512 18.87120628356934 19.14141845703125 19.9564380645752 C 18.87942886352539 19.58746719360352 18.37509727478027 18.92047691345215 18.25063896179199 18.67594718933105 C 17.72464752197266 17.39249801635742 17.45503807067871 16.01848793029785 17.45702743530273 14.63143730163574 L 17.45702743530273 2.562287092208862 C 17.57440757751465 1.689977169036865 17.17485809326172 0.8288471698760986 16.43298721313477 0.3552171289920807 C 15.69110870361328 -0.1184028536081314 14.74179744720459 -0.1184028536081314 13.99992847442627 0.3552171289920807 C 13.25804805755615 0.8288471698760986 12.85849761962891 1.689977169036865 12.97587776184082 2.562287092208862 L 12.97587776184082 11.70693683624268 C 12.97587776184082 11.70693683624268 12.85033798217773 13.06274700164795 12.41368770599365 13.25268745422363 C 11.94325828552246 13.28382778167725 11.54156303405762 12.83971500396729 10.86419200897217 12.83971500396729 C 10.78235912322998 12.83971500396729 10.69643306732178 12.84620571136475 10.60594844818115 12.86079692840576 C 9.825717926025391 13.02092742919922 9.126008033752441 13.44878673553467 8.627907752990723 14.07032680511475 C 8.346338272094727 14.60219669342041 7.77468729019165 14.91487312316895 7.174958229064941 14.8650369644165 C 6.771946430206299 14.83816814422607 6.36740779876709 14.84437656402588 5.965427875518799 14.8835973739624 C 5.107257843017578 15.06084728240967 4.340908050537109 15.5394868850708 3.805088043212891 16.23286628723145 C 3.604038000106812 16.48073768615723 3.389378070831299 16.71725654602051 3.162108182907104 16.94132804870605 C 2.145678043365479 17.08817672729492 1.204618096351624 17.56177711486816 0.4810680747032166 18.29059791564941 C -0.9249519109725952 20.36580657958984 1.082558035850525 26.58049774169922 2.268068075180054 29.80519676208496 L 20.17082786560059 29.80519676208496 M 22.11881828308105 32.80519866943359 L 0.1746580600738525 32.80519866943359 L -0.5476819276809692 30.84036636352539 C -1.45527195930481 28.37161636352539 -2.122501850128174 26.15251731872559 -2.530822038650513 24.24469757080078 C -3.291721820831299 20.68949699401855 -3.123862028121948 18.26284790039062 -2.002562046051025 16.60785675048828 L -1.845371961593628 16.37585639953613 L -1.647931933403015 16.17698669433594 C -0.7564272284507751 15.27898693084717 0.3543835282325745 14.61157321929932 1.559540390968323 14.23768520355225 C 2.525334596633911 13.06470108032227 3.866776466369629 12.25374126434326 5.358608245849609 11.94560718536377 L 5.515098094940186 11.91328716278076 L 5.674138069152832 11.89776706695557 C 5.975358009338379 11.86838436126709 6.281062602996826 11.85206508636475 6.58432674407959 11.84914493560791 C 7.484997272491455 10.87660217285156 8.673088073730469 10.20090961456299 9.97587776184082 9.927637100219727 L 9.97587776184082 2.720747709274292 C 9.806399345397949 0.7811928391456604 10.73448657989502 -1.119309067726135 12.38560771942139 -2.173412799835205 C 13.23264789581299 -2.714172840118408 14.21153831481934 -2.999992847442627 15.21645832061768 -2.999992847442627 C 16.22137832641602 -2.999992847442627 17.20026779174805 -2.714172840118408 18.04728889465332 -2.173422813415527 C 19.69842910766602 -1.119290351867676 20.62650680541992 0.7812040448188782 20.45702743530273 2.720749378204346 L 20.45702743530273 14.09714412689209 C 21.36042404174805 12.62293243408203 22.68715667724609 11.41958999633789 24.24825286865234 10.66985702514648 C 24.88856315612793 10.35511207580566 25.60276794433594 10.18886756896973 26.31591796875 10.18886756896973 C 27.37438011169434 10.18886756896973 28.39661026000977 10.54573917388916 29.22248458862305 11.19876480102539 C 30.15608024597168 11.84529113769531 30.79487037658691 12.7886209487915 31.03240776062012 13.88044738769531 C 31.21388816833496 14.71462726593018 31.16091728210449 15.62687683105469 30.8749885559082 16.59184646606445 C 30.50730895996094 17.83269691467285 29.79792785644531 19.03974723815918 29.17205810546875 20.10469627380371 L 29.16669082641602 20.11382675170898 C 29.09172248840332 20.24358940124512 29.01798057556152 20.36906623840332 28.94721794128418 20.48940658569336 C 28.85283660888672 20.64994239807129 28.76351356506348 20.80185890197754 28.69677734375 20.92180633544922 C 28.58458518981934 21.12792587280273 28.44369125366211 21.34030532836914 28.08437919616699 21.84720230102539 C 26.08015441894531 24.73031044006348 24.33982276916504 27.81818771362305 22.91132736206055 31.02570724487305 L 22.11881828308105 32.80519866943359 Z" stroke="none" fill="#fff"/>
        </g>
        <g id="Path_103522" data-name="Path 103522" transform="translate(8.718 1.969)" fill="#f8f8f8">
          <path d="M 6.415701389312744 22.34025573730469 L 4.108781337738037 20.86809730529785 C 1.877281546592712 19.44406700134277 0.2059315741062164 17.38144683837891 -0.7245784401893616 14.90321636199951 C -1.655088424682617 12.42498683929443 -1.754308462142944 9.772076606750488 -1.011518478393555 7.231266498565674 C -0.2692384421825409 4.692236423492432 1.242021560668945 2.511576652526855 3.358871459960938 0.9250265955924988 C 5.475611686706543 -0.6614434123039246 7.992561340332031 -1.499993443489075 10.6376314163208 -1.499993443489075 L 10.64804172515869 -1.499993443489075 L 10.65417194366455 -1.499993443489075 C 13.29940128326416 -1.499993443489075 15.81638145446777 -0.6614834070205688 17.93301200866699 0.9248865842819214 C 20.04972076416016 2.511326551437378 21.56093215942383 4.691966533660889 22.30328178405762 7.231076717376709 C 23.04601097106934 9.771506309509277 22.94696235656738 12.42408657073975 22.01684188842773 14.90204620361328 C 21.08672142028809 17.38000679016113 19.41589164733887 19.44260597229004 17.18499183654785 20.86684608459473 L 14.87783145904541 22.33978652954102 L 14.87783145904541 19.60253715515137 L 14.87783145904541 16.48372650146484 L 14.87783145904541 15.85360622406006 L 15.32783126831055 15.41251659393311 C 16.60345077514648 14.16214656829834 17.31581115722656 12.4898567199707 17.33367156982422 10.70369625091553 C 17.35152244567871 8.917546272277832 16.67275238037109 7.231346607208252 15.42238140106201 5.955716609954834 C 14.15430164337158 4.662026405334473 12.45811176300049 3.949556589126587 10.6462516784668 3.949556589126587 C 8.885541915893555 3.949556589126587 7.223271369934082 4.628456592559814 5.965651512145996 5.861206531524658 C 3.334129571914673 8.440673828125 3.29010534286499 12.6790771484375 5.86605167388916 15.31275653839111 L 5.976361751556396 15.42306613922119 L 6.415701389312744 15.86240673065186 L 6.415701389312744 16.48372650146484 L 6.415701389312744 19.6036262512207 L 6.415701389312744 22.34025573730469 Z" stroke="none"/>
          <path d="M 10.65414714813232 -5.7220458984375e-06 C 10.65183925628662 -5.7220458984375e-06 10.64906978607178 -5.7220458984375e-06 10.64676189422607 -3.814697265625e-06 L 10.64676189422607 5.7220458984375e-06 C 10.64358711242676 3.814697265625e-06 10.64080142974854 1.9073486328125e-06 10.63762760162354 1.9073486328125e-06 C 5.913201332092285 0.0001735687255859375 1.754131317138672 3.116792678833008 0.4282207489013672 7.652166366577148 C -0.8985786437988281 12.19057655334473 0.9297809600830078 17.06001663208008 4.915700912475586 19.6036262512207 L 4.915700912475586 16.48372650146484 L 4.799982070922852 16.36800765991211 C 1.63475227355957 13.13889694213867 1.686531066894531 7.955236434936523 4.915641784667969 4.790006637573242 C 8.14475154876709 1.624765396118164 13.32839202880859 1.676576614379883 16.49359130859375 4.905716896057129 C 19.6588020324707 8.134856224060059 19.60697174072266 13.31851673126221 16.37783050537109 16.48372650146484 L 16.37783050537109 19.60253715515137 C 20.3626708984375 17.05853652954102 22.19021224975586 12.18973636627197 20.86355209350586 7.652006149291992 C 19.53752899169922 3.116493225097656 15.37895679473877 -5.7220458984375e-06 10.65414714813232 -5.7220458984375e-06 M 10.64676189422607 -3.000003814697266 L 10.65415191650391 -3.000003814697266 C 13.62630176544189 -3.000003814697266 16.45436096191406 -2.057853698730469 18.83260154724121 -0.2754135131835938 C 21.2109317779541 1.507097244262695 22.90892219543457 3.957246780395508 23.74301147460938 6.81015682220459 C 24.5775318145752 9.664556503295898 24.46623229980469 12.64495658874512 23.42116165161133 15.42916679382324 C 22.37609100341797 18.21338653564453 20.49877166748047 20.53089714050293 17.99216079711914 22.13116645812988 L 13.37783145904541 25.07703590393066 L 13.37783145904541 15.22347640991211 L 14.27782154083252 14.34130668640137 C 15.26732158660889 13.37139701843262 15.81989097595215 12.07421684265137 15.83374214172363 10.68870639801025 C 15.84759140014648 9.303186416625977 15.32107162475586 7.995216369628906 14.35117149353027 7.00572681427002 C 13.36753177642822 6.002216339111328 12.05177116394043 5.449556350708008 10.6462516784668 5.449556350708008 C 9.280561447143555 5.449556350708008 7.991191864013672 5.976176261901855 7.015671730041504 6.932406425476074 C 6.026181221008301 7.902326583862305 5.473621368408203 9.199506759643555 5.459781646728516 10.58501625061035 C 5.445985794067383 11.96612930297852 5.96912956237793 13.27018737792969 6.933164596557617 14.25854969024658 L 7.915701866149902 15.24108695983887 L 7.915701866149902 25.07687759399414 L 3.301860809326172 22.13256645202637 C 0.7945709228515625 20.53253746032715 -1.083337783813477 18.21499633789062 -2.12885856628418 15.43048667907715 C -3.174379348754883 12.64597702026367 -3.285858154296875 9.665186882019043 -2.451248168945312 6.810356140136719 C -1.617227554321289 3.957546234130859 0.08080101013183594 1.507387161254883 2.459291458129883 -0.2752227783203125 C 4.83757209777832 -2.057672500610352 7.665561676025391 -2.999883651733398 10.63752174377441 -2.999994277954102 L 10.64676189422607 -3.000003814697266 Z" stroke="none" fill="#fff"/>
        </g>
      </g>
      <g id="Group_162045" data-name="Group 162045" transform="translate(0)">
        <rect id="Canvas-3" data-name="Canvas" width="39.932" height="38.908" fill="#ff13dc" opacity="0"/>
        <path id="Path_103521-2" data-name="Path 103521" d="M26.066,19.48c-.046.086-.2.309-.437.643a58.982,58.982,0,0,0-5.458,9.682H2.268C1.083,26.58-.925,20.366.481,18.291a4.731,4.731,0,0,1,2.681-1.349,8.625,8.625,0,0,0,.643-.708,3.668,3.668,0,0,1,2.16-1.349,7.392,7.392,0,0,1,1.21-.019,1.5,1.5,0,0,0,1.453-.795,3.415,3.415,0,0,1,1.978-1.21c.839-.135,1.28.427,1.808.392.437-.19.562-1.546.562-1.546V2.562a2.261,2.261,0,1,1,4.481,0V14.631a10.625,10.625,0,0,0,.794,4.045c.124.245.629.912.891,1.28a15.435,15.435,0,0,0,3.669-3.93,6.019,6.019,0,0,1,2.751-2.659,1.687,1.687,0,0,1,1.873.246c1.528.939.255,3.093-.86,4.991C26.387,18.929,26.206,19.226,26.066,19.48Z" transform="translate(3.997 9.826)" fill="#5c5ce0"/>
        <path id="Path_103522-2" data-name="Path 103522" d="M10.647,0a10.637,10.637,0,0,1,5.731,19.6V16.484A8.187,8.187,0,1,0,4.8,16.368l.116.116V19.6A10.637,10.637,0,0,1,10.647,0Z" transform="translate(8.718 1.969)" fill="#5c5ce0"/>
      </g>
    </g>
  </g>
</svg>
