<?xml version="1.0" encoding="UTF-8"?>
<svg id="a" data-name="Outline" xmlns="http://www.w3.org/2000/svg" width="180" height="120" viewBox="0 0 180 120">
  <rect x="75.98617" y="23.48644" width="6.71229" height="6.71229" rx="3.35614" ry="3.35614" fill="#484848"/>
  <rect x="86.05461" y="23.48644" width="6.71229" height="6.71229" rx="3.35614" ry="3.35614" fill="#484848"/>
  <rect x="96.12305" y="23.48644" width="6.71229" height="6.71229" rx="3.35614" ry="3.35614" fill="#484848"/>
  <g>
    <path d="m86.76758,73.02271c1.2431-.47406,2.55566-.34131,3.65179.32031.03082-.20898.06799-.41705.09235-.62695.09277-.79883.14062-1.61816.14062-2.43652,0-11.53467-9.38379-20.91846-20.91895-20.91846-11.53418,0-20.91797,9.38379-20.91797,20.91846s9.38379,20.91895,20.91797,20.91895c5.27185,0,10.27576-1.98846,14.08887-5.46411v-8.25659c0-2.02441,1.15625-3.77344,2.94531-4.45508Z" fill="#ddddf6"/>
    <g>
      <path d="m116.25977,15.27417h-33.56152c-8.22949,0-14.9248,6.69531-14.9248,14.9248v15.29688c0,.82861.67188,1.5,1.5,1.5s1.5-.67139,1.5-1.5v-3.72852h57.41113v21.99268c0,6.5752-5.34961,11.9248-11.9248,11.9248h-16.39844c-.82812,0-1.5.67188-1.5,1.5s.67188,1.5,1.5,1.5h16.39844c8.22949,0,14.9248-6.69531,14.9248-14.9248V30.19897c0-8.22949-6.69531-14.9248-14.9248-14.9248Zm11.9248,23.49316h-57.41113v-8.56836c0-6.5752,5.34961-11.9248,11.9248-11.9248h33.56152c6.5752,0,11.9248,5.34961,11.9248,11.9248v8.56836Z" fill="#242424"/>
      <path d="m91.47168,74.21899c-.31616-.35492-.67163-.64618-1.05231-.87598-1.09613-.66162-2.40869-.79437-3.65179-.32031-1.78906.68164-2.94531,2.43066-2.94531,4.45508v24.12891c0,1.36914.83691,2.56348,2.08105,2.97266.29883.09863.60156.14648.90039.14648.89844,0,1.75781-.43164,2.33398-1.21289l5.30664-7.21094c.31934-.43164.79785-.64453,1.25684-.57129l8.63672,1.37012c1.22852.19629,2.40332-.40527,3.01465-1.52441.6543-1.19824.49219-2.67773-.39453-3.67383l-15.48633-17.68359Zm13.25391,19.90625l-8.55469-1.35742c-1.57422-.24805-3.15918.42285-4.1416,1.75488l-5.20703,7.07129v-24.11621c0-.93262.52344-1.46484,1.01367-1.65137.11328-.04297.26855-.08398.44629-.08398.28125,0,.62012.10254.94043.46289l.41992.47949,15.06641,17.2041c.06836.07617.04297.17773.0166.23633Z" fill="#242424"/>
    </g>
  </g>
  <g>
    <path d="m79.34235,30.19873c1.85358,0,3.35614-1.50275,3.35614-3.35614s-1.50256-3.35614-3.35614-3.35614-3.3562,1.50269-3.3562,3.35614,1.50256,3.35614,3.3562,3.35614Z" fill="#5c5cd7"/>
    <circle cx="89.41077" cy="26.84259" r="3.35614" fill="#5c5cd7"/>
    <circle cx="99.47919" cy="26.84259" r="3.35614" fill="#5c5cd7"/>
    <path d="m63.05078,63.47583l-6.13867,6.13965c-.48828.48828-.48828,1.2793,0,1.76758l5.7002,5.7002c.24414.24414.56348.36621.88379.36621s.63965-.12207.88379-.36621c.48828-.48828.48828-1.2793,0-1.76758l-4.81641-4.81641,5.25488-5.25586c.48828-.48828.48828-1.2793,0-1.76758s-1.2793-.48828-1.76758,0Z" fill="#5c5cd7"/>
    <path d="m76.85449,63.47583c-.48828-.48828-1.2793-.48828-1.76758,0s-.48828,1.2793,0,1.76758l4.81738,4.81738-5.25586,5.25488c-.48828.48828-.48828,1.2793,0,1.76758.24414.24414.56348.36621.88379.36621s.63965-.12207.88379-.36621l6.13965-6.13867c.23438-.23438.36621-.55176.36621-.88379,0-.33105-.13184-.64941-.36621-.88379l-5.70117-5.70117Z" fill="#5c5cd7"/>
    <path d="m72.45801,60.83521c-.66113-.18799-1.35547.19141-1.54785.85449l-4.75586,16.48633c-.19141.66309.19141,1.35645.85449,1.54785.11621.0332.23242.04883.34766.04883.54199,0,1.04199-.35645,1.2002-.90332l4.75586-16.48633c.19141-.66309-.19141-1.35645-.85449-1.54785Z" fill="#5c5cd7"/>
  </g>
</svg>