<svg xmlns="http://www.w3.org/2000/svg" width="148.864" height="117.613" viewBox="0 0 148.864 117.613">
  <g id="Benefits_blade_image_3" data-name="Benefits blade image 3" transform="translate(-0.021)">
    <rect id="Canvas" width="130" height="115" transform="translate(0.021)" fill="#ff13dc" opacity="0"/>
    <rect id="Rectangle_151548" data-name="Rectangle 151548" width="42" height="22" transform="translate(19.021 36)" fill="none" stroke="#b5b5b5" stroke-width="2"/>
    <rect id="Rectangle_151578" data-name="Rectangle 151578" width="42" height="50" transform="translate(69.021 36)" fill="none" stroke="#b5b5b5" stroke-linecap="round" stroke-width="2" stroke-dasharray="1 5"/>
    <rect id="Rectangle_151574" data-name="Rectangle 151574" width="44" height="2" transform="translate(18.021 79)" fill="#b5b5b5"/>
    <rect id="Rectangle_151575" data-name="Rectangle 151575" width="44" height="2" transform="translate(18.021 73)" fill="#b5b5b5"/>
    <rect id="Rectangle_151576" data-name="Rectangle 151576" width="44" height="2" transform="translate(18.021 66)" fill="#b5b5b5"/>
    <rect id="Rectangle_151551" data-name="Rectangle 151551" width="110" height="3" transform="translate(10.021 26)" fill="#b5b5b5" stroke="#fff" stroke-width="1"/>
    <rect id="Rectangle_151556" data-name="Rectangle 151556" width="10" height="3" rx="1.5" transform="translate(14.021 21)" fill="#b5b5b5"/>
    <path id="Path_103572" data-name="Path 103572" d="M113.067,2H4.615A3.421,3.421,0,0,0,1,5.187V81.671a3.421,3.421,0,0,0,3.615,3.187H113.067a3.421,3.421,0,0,0,3.615-3.187V5.187A3.421,3.421,0,0,0,113.067,2ZM4.23,82.011V6.016H113.452V82.011Z" transform="translate(6.925 12.318)" fill="#b5b5b5" stroke="#fff" stroke-width="1"/>
    <g id="Rectangle_151572" data-name="Rectangle 151572" transform="translate(90.337 50)" fill="#fff" stroke="#fff" stroke-width="5">
      <rect width="44" height="36" rx="3" stroke="none"/>
      <rect x="-2.5" y="-2.5" width="49" height="41" rx="5.5" fill="none"/>
    </g>
    <rect id="Rectangle_151571" data-name="Rectangle 151571" width="44" height="36" rx="3" transform="translate(90.337 50)" fill="#fff" stroke="#5c5ce0" stroke-width="3"/>
    <path id="code" d="M11.523,22.237l-.946.946a.595.595,0,0,1-.87,0L.889,14.366a.595.595,0,0,1,0-.87L9.707,4.679a.595.595,0,0,1,.87,0l.946.946a.595.595,0,0,1,0,.87L4.087,13.931l7.436,7.436a.595.595,0,0,1,0,.87ZM22.705,2.049,15.648,26.476a.617.617,0,0,1-.293.369.526.526,0,0,1-.445.047l-1.173-.322a.617.617,0,0,1-.369-.293.564.564,0,0,1-.047-.464L20.378,1.386a.617.617,0,0,1,.293-.369A.526.526,0,0,1,21.116.97l1.173.322a.617.617,0,0,1,.369.293A.564.564,0,0,1,22.705,2.049ZM35.137,14.366l-8.817,8.817a.595.595,0,0,1-.87,0l-.946-.946a.595.595,0,0,1,0-.87l7.436-7.436L24.5,6.495a.595.595,0,0,1,0-.87l.946-.946a.595.595,0,0,1,.87,0L35.137,13.5a.595.595,0,0,1,0,.87Z" transform="translate(94.137 54.069)" fill="#b5b5b5"/>
    <g id="Path_103585" data-name="Path 103585" transform="translate(119.683 75.541) rotate(8)" fill="#5c5ce0">
      <path d="M 0.4949665069580078 35.94001388549805 C -1.156463503837585 35.94001388549805 -2.500003576278687 34.59647369384766 -2.500003576278687 32.94504547119141 L -2.500003576278687 0.4949950873851776 C -2.500003576278687 -1.150286436080933 -1.166358232498169 -2.489966154098511 0.4766248464584351 -2.499918937683105 L 0.4821465313434601 -2.499974966049194 L 0.4999465048313141 -2.500005006790161 C 1.288599729537964 -2.500005006790161 2.058622598648071 -2.179907560348511 2.615064144134521 -1.621333718299866 L 25.40242576599121 21.08883476257324 C 26.26531600952148 21.9494743347168 26.5211067199707 23.23200416564941 26.05477714538574 24.35693550109863 C 25.58945655822754 25.47955513000488 24.50344657897949 26.20500564575195 23.2880859375 26.20500564575195 L 23.2859058380127 26.20500564575195 L 23.28285598754883 26.20500564575195 L 11.45458984375 26.20500564575195 L 2.614777326583862 35.05669021606445 C 2.05780816078186 35.6182975769043 1.286247253417969 35.94001388549805 0.4949665069580078 35.94001388549805 Z M 4.479866504669189 9.941844940185547 L 4.479866504669189 23.60906600952148 L 8.131576538085938 19.95735549926758 L 8.863816261291504 19.22512435913086 L 9.899346351623535 19.22512435913086 L 13.76314640045166 19.22512435913086 L 4.479866504669189 9.941844940185547 Z" stroke="none"/>
      <path d="M 0.4999504089355469 0 C 0.4982891082763672 0 0.4966297149658203 7.62939453125e-06 0.4949665069580078 2.6702880859375e-05 C 0.2216072082519531 2.6702880859375e-05 -3.814697265625e-06 0.2216262817382812 -3.814697265625e-06 0.4949951171875 L -3.814697265625e-06 32.94504547119141 C -3.814697265625e-06 33.21840667724609 0.2216072082519531 33.44001388549805 0.4949665069580078 33.44001388549805 C 0.625396728515625 33.44000625610352 0.7502555847167969 33.38754653930664 0.8414974212646484 33.2944450378418 L 10.41807651519775 23.70499420166016 L 23.28721618652344 23.70499420166016 C 23.48765754699707 23.7049503326416 23.66858673095703 23.58475494384766 23.74534606933594 23.39956474304199 C 23.82211685180664 23.21437454223633 23.77959632873535 23.00116539001465 23.63765716552734 22.85959625244141 L 0.8454055786132812 0.1445541381835938 C 0.7541942596435547 0.05202865600585938 0.6297359466552734 0 0.4999504089355469 0 M 19.79868698120117 21.72512435913086 L 9.899346351623535 21.72512435913086 L 1.979866027832031 29.64460563659668 L 1.979866027832031 3.906305313110352 L 19.79868698120117 21.72512435913086 M 0.4999465942382812 -5.000003814697266 C 1.94587516784668 -5.000003814697266 3.357553482055664 -4.414596557617188 4.379463195800781 -3.392463684082031 L 27.16718673706055 19.31806564331055 C 28.75048637390137 20.89724540710449 29.21979713439941 23.2503547668457 28.36419677734375 25.31429481506348 C 27.51044654846191 27.37399482727051 25.51793670654297 28.70499420166016 23.28811645507812 28.70499420166016 L 12.49111557006836 28.70499420166016 L 4.385854721069336 36.82114791870117 C 3.362865447998047 37.85027694702148 1.947093963623047 38.43990707397461 0.4953460693359375 38.44001388549805 C -2.53497314453125 38.44001388549805 -5.000003814697266 35.97498321533203 -5.000003814697266 32.94504547119141 L -5.000003814697266 0.4949951171875 C -5.000003814697266 -2.519596099853516 -2.559938430786133 -4.974983215332031 0.4489097595214844 -4.999782562255859 L 0.4999465942382812 -5.000003814697266 Z M 7.777952194213867 16.77544975280762 L 6.979866027832031 15.97736549377441 L 6.979866027832031 17.57353973388672 L 7.777952194213867 16.77544975280762 Z" stroke="none" fill="#fff"/>
    </g>
    <g id="Group_162043" data-name="Group 162043" transform="translate(108 75)">
      <rect id="Canvas-2" data-name="Canvas" width="36" height="36" transform="translate(0.021)" fill="#ff13dc" opacity="0"/>
      <g id="Path_103574" data-name="Path 103574" transform="translate(11.683 0.541) rotate(8)" fill="#5c5ce0">
        <path d="M 0.4949665069580078 33.69001388549805 C 0.08418651670217514 33.69001388549805 -0.2500034868717194 33.3558235168457 -0.2500034868717194 32.94504547119141 L -0.2500034868717194 0.4949950873851776 C -0.2500034868717194 0.08421508967876434 0.08418651670217514 -0.2499749064445496 0.4949665069580078 -0.2499749064445496 C 0.6954064965248108 -0.250004917383194 0.8862065076828003 -0.1701649129390717 1.023446559906006 -0.03095490671694279 L 23.81413650512695 22.68251419067383 C 24.02865600585938 22.896484375 24.09228706359863 23.21549415588379 23.97628593444824 23.49530601501465 C 23.86053657531738 23.77455520629883 23.59040641784668 23.95500564575195 23.2880859375 23.95500564575195 L 10.52173519134521 23.95500564575195 L 1.018396496772766 33.47110366821289 C 0.8826665282249451 33.60961532592773 0.691276490688324 33.69001388549805 0.4949665069580078 33.69001388549805 Z M 2.229866504669189 4.509865283966064 L 2.229866504669189 29.04104423522949 L 9.722566604614258 21.5483455657959 L 9.795796394348145 21.47512435913086 L 9.899346351623535 21.47512435913086 L 19.19512557983398 21.47512435913086 L 2.229866504669189 4.509865283966064 Z" stroke="none"/>
        <path d="M 0.4999504089355469 0 C 0.4982891082763672 0 0.4966297149658203 7.62939453125e-06 0.4949665069580078 2.6702880859375e-05 C 0.2216072082519531 2.6702880859375e-05 -3.814697265625e-06 0.2216262817382812 -3.814697265625e-06 0.4949951171875 L -3.814697265625e-06 32.94504547119141 C -3.814697265625e-06 33.21840667724609 0.2216072082519531 33.44001388549805 0.4949665069580078 33.44001388549805 C 0.625396728515625 33.44000625610352 0.7502555847167969 33.38754653930664 0.8414974212646484 33.2944450378418 L 10.41807651519775 23.70499420166016 L 23.28721618652344 23.70499420166016 C 23.48765754699707 23.7049503326416 23.66858673095703 23.58475494384766 23.74534606933594 23.39956474304199 C 23.82211685180664 23.21437454223633 23.77959632873535 23.00116539001465 23.63765716552734 22.85959625244141 L 0.8454055786132812 0.1445541381835938 C 0.7541942596435547 0.05202865600585938 0.6297359466552734 0 0.4999504089355469 0 M 19.79868698120117 21.72512435913086 L 9.899346351623535 21.72512435913086 L 1.979866027832031 29.64460563659668 L 1.979866027832031 3.906305313110352 L 19.79868698120117 21.72512435913086 M 0.4999465942382812 -0.5000038146972656 C 0.7618865966796875 -0.5000038146972656 1.017597198486328 -0.39300537109375 1.201486587524414 -0.2064437866210938 L 23.9906063079834 22.50544548034668 C 24.27717590332031 22.7912654876709 24.36215591430664 23.21732521057129 24.20723724365234 23.59103393554688 C 24.05263710021973 23.9639949798584 23.69186592102051 24.20499420166016 23.28811645507812 24.20499420166016 L 10.6253833770752 24.20499420166016 L 1.195285797119141 33.64776611328125 C 1.014516830444336 33.83225631713867 0.7580661773681641 33.93999481201172 0.4950065612792969 33.94001388549805 C -0.05366325378417969 33.94001388549805 -0.5000038146972656 33.49367523193359 -0.5000038146972656 32.94504547119141 L -0.5000038146972656 0.4949951171875 C -0.5000038146972656 -0.05246353149414062 -0.05553054809570312 -0.4980659484863281 0.4914894104003906 -0.499969482421875 L 0.4999465942382812 -0.5000038146972656 Z M 18.59158706665039 21.22512435913086 L 2.479866027832031 5.113405227661133 L 2.479866027832031 28.4375057220459 L 9.69223690032959 21.22512435913086 L 18.59158706665039 21.22512435913086 Z" stroke="none" fill="#5c5ce0"/>
      </g>
    </g>
  </g>
</svg>
