<svg xmlns="http://www.w3.org/2000/svg" width="420.334" height="518.455" viewBox="0 0 420.334 518.455">
  <g id="Code_asset" data-name="Code asset" transform="translate(0 0.001)">
    <g id="Code_lines" data-name="Code lines" transform="translate(14.162 0.003)" opacity="0.24">
      <rect id="Rectangle_151726" data-name="Rectangle 151726" width="35.617" height="4.721" transform="translate(0 0)" fill="#fff"/>
      <rect id="Rectangle_151727" data-name="Rectangle 151727" width="64.96" height="4.721" transform="translate(44.416 0)" fill="#fff"/>
      <rect id="Rectangle_151728" data-name="Rectangle 151728" width="88.76" height="4.721" transform="translate(0 13.887)" fill="#fff"/>
      <rect id="Rectangle_151729" data-name="Rectangle 151729" width="156.607" height="4.721" transform="translate(97.562 13.887)" fill="#fff"/>
      <rect id="Rectangle_151730" data-name="Rectangle 151730" width="35.617" height="4.721" transform="translate(0 27.775)" fill="#fff"/>
      <rect id="Rectangle_151731" data-name="Rectangle 151731" width="20.611" height="4.721" transform="translate(0 41.666)" fill="#fff"/>
      <rect id="Rectangle_151732" data-name="Rectangle 151732" width="59.35" height="4.721" transform="translate(29.41 41.666)" fill="#fff"/>
      <rect id="Rectangle_151733" data-name="Rectangle 151733" width="35.617" height="4.721" transform="translate(17.806 55.553)" fill="#fff"/>
      <rect id="Rectangle_151734" data-name="Rectangle 151734" width="78.379" height="4.721" transform="translate(62.222 55.553)" fill="#fff"/>
      <rect id="Rectangle_151735" data-name="Rectangle 151735" width="266.963" height="4.721" transform="translate(17.806 69.44)" fill="#fff"/>
      <rect id="Rectangle_151737" data-name="Rectangle 151737" width="36.044" height="4.721" transform="translate(295.574 69.046)" fill="#fff"/>
      <rect id="Rectangle_151738" data-name="Rectangle 151738" width="367.908" height="4.721" transform="translate(38.26 83.328)" fill="#fff"/>
      <rect id="Rectangle_151739" data-name="Rectangle 151739" width="222.101" height="4.721" transform="translate(38.26 97.215)" fill="#fff"/>
      <rect id="Rectangle_151740" data-name="Rectangle 151740" width="61.775" height="4.721" transform="translate(269.839 97.215)" fill="#fff"/>
      <rect id="Rectangle_151741" data-name="Rectangle 151741" width="20.453" height="4.721" transform="translate(17.806 111.106)" fill="#fff"/>
      <rect id="Rectangle_151742" data-name="Rectangle 151742" width="35.617" height="4.721" transform="translate(17.806 124.811)" fill="#fff"/>
      <rect id="Rectangle_151743" data-name="Rectangle 151743" width="78.379" height="4.721" transform="translate(62.222 124.811)" fill="#fff"/>
      <rect id="Rectangle_151744" data-name="Rectangle 151744" width="266.963" height="4.721" transform="translate(17.806 138.698)" fill="#fff"/>
      <rect id="Rectangle_151746" data-name="Rectangle 151746" width="36.044" height="4.721" transform="translate(295.574 138.304)" fill="#fff"/>
      <rect id="Rectangle_151747" data-name="Rectangle 151747" width="367.908" height="4.721" transform="translate(38.26 152.585)" fill="#fff"/>
      <rect id="Rectangle_151748" data-name="Rectangle 151748" width="66.285" height="4.721" transform="translate(38.26 166.473)" fill="#fff"/>
      <rect id="Rectangle_151749" data-name="Rectangle 151749" width="144.193" height="4.721" transform="translate(116.168 166.473)" fill="#fff"/>
      <rect id="Rectangle_151750" data-name="Rectangle 151750" width="61.775" height="4.721" transform="translate(269.839 166.473)" fill="#fff"/>
      <rect id="Rectangle_151751" data-name="Rectangle 151751" width="20.453" height="4.721" transform="translate(17.806 180.36)" fill="#fff"/>
      <rect id="Rectangle_151752" data-name="Rectangle 151752" width="35.617" height="4.721" transform="translate(17.806 194.068)" fill="#fff"/>
      <rect id="Rectangle_151753" data-name="Rectangle 151753" width="78.379" height="4.721" transform="translate(62.222 194.068)" fill="#fff"/>
      <rect id="Rectangle_151754" data-name="Rectangle 151754" width="266.963" height="4.721" transform="translate(17.806 207.955)" fill="#fff"/>
      <rect id="Rectangle_151756" data-name="Rectangle 151756" width="36.044" height="4.721" transform="translate(295.574 207.561)" fill="#fff"/>
      <rect id="Rectangle_151757" data-name="Rectangle 151757" width="367.908" height="4.721" transform="translate(38.26 221.843)" fill="#fff"/>
      <rect id="Rectangle_151758" data-name="Rectangle 151758" width="222.101" height="4.721" transform="translate(38.26 235.73)" fill="#fff"/>
      <rect id="Rectangle_151759" data-name="Rectangle 151759" width="61.775" height="4.721" transform="translate(269.839 235.73)" fill="#fff"/>
      <rect id="Rectangle_151760" data-name="Rectangle 151760" width="61.775" height="4.721" transform="translate(344.396 235.73)" fill="#fff"/>
      <rect id="Rectangle_151761" data-name="Rectangle 151761" width="20.453" height="4.721" transform="translate(17.806 249.618)" fill="#fff"/>
      <rect id="Rectangle_152087" data-name="Rectangle 152087" width="35.617" height="4.721" transform="translate(0 264.114)" fill="#fff"/>
      <rect id="Rectangle_152086" data-name="Rectangle 152086" width="64.96" height="4.721" transform="translate(44.416 264.114)" fill="#fff"/>
      <rect id="Rectangle_152085" data-name="Rectangle 152085" width="88.76" height="4.721" transform="translate(0 278.001)" fill="#fff"/>
      <rect id="Rectangle_152084" data-name="Rectangle 152084" width="156.607" height="4.721" transform="translate(97.562 278.001)" fill="#fff"/>
      <rect id="Rectangle_152083" data-name="Rectangle 152083" width="35.617" height="4.721" transform="translate(0 291.889)" fill="#fff"/>
      <rect id="Rectangle_152082" data-name="Rectangle 152082" width="20.611" height="4.721" transform="translate(0 305.779)" fill="#fff"/>
      <rect id="Rectangle_152081" data-name="Rectangle 152081" width="59.35" height="4.721" transform="translate(29.41 305.779)" fill="#fff"/>
      <rect id="Rectangle_152080" data-name="Rectangle 152080" width="35.617" height="4.721" transform="translate(17.806 319.667)" fill="#fff"/>
      <rect id="Rectangle_152079" data-name="Rectangle 152079" width="78.379" height="4.721" transform="translate(62.222 319.667)" fill="#fff"/>
      <rect id="Rectangle_152078" data-name="Rectangle 152078" width="266.963" height="4.721" transform="translate(17.806 333.554)" fill="#fff"/>
      <rect id="Rectangle_152077" data-name="Rectangle 152077" width="36.044" height="4.721" transform="translate(295.574 333.16)" fill="#fff"/>
      <rect id="Rectangle_152076" data-name="Rectangle 152076" width="367.908" height="4.721" transform="translate(38.259 347.441)" fill="#fff"/>
      <rect id="Rectangle_152075" data-name="Rectangle 152075" width="222.101" height="4.721" transform="translate(38.259 361.329)" fill="#fff"/>
      <rect id="Rectangle_152074" data-name="Rectangle 152074" width="61.775" height="4.721" transform="translate(269.839 361.329)" fill="#fff"/>
      <rect id="Rectangle_152073" data-name="Rectangle 152073" width="20.453" height="4.721" transform="translate(17.806 375.22)" fill="#fff"/>
      <rect id="Rectangle_152072" data-name="Rectangle 152072" width="35.617" height="4.721" transform="translate(17.806 388.925)" fill="#fff"/>
      <rect id="Rectangle_152071" data-name="Rectangle 152071" width="78.379" height="4.721" transform="translate(62.222 388.925)" fill="#fff"/>
      <rect id="Rectangle_152070" data-name="Rectangle 152070" width="266.963" height="4.721" transform="translate(17.806 402.812)" fill="#fff"/>
      <rect id="Rectangle_152069" data-name="Rectangle 152069" width="36.044" height="4.721" transform="translate(295.574 402.418)" fill="#fff"/>
      <rect id="Rectangle_152068" data-name="Rectangle 152068" width="367.908" height="4.721" transform="translate(38.259 416.699)" fill="#fff"/>
      <rect id="Rectangle_152067" data-name="Rectangle 152067" width="66.285" height="4.721" transform="translate(38.259 430.586)" fill="#fff"/>
      <rect id="Rectangle_152066" data-name="Rectangle 152066" width="144.193" height="4.721" transform="translate(116.167 430.586)" fill="#fff"/>
      <rect id="Rectangle_152065" data-name="Rectangle 152065" width="61.775" height="4.721" transform="translate(269.839 430.586)" fill="#fff"/>
      <rect id="Rectangle_152064" data-name="Rectangle 152064" width="20.453" height="4.721" transform="translate(17.806 444.474)" fill="#fff"/>
      <rect id="Rectangle_152063" data-name="Rectangle 152063" width="35.617" height="4.721" transform="translate(17.806 458.182)" fill="#fff"/>
      <rect id="Rectangle_152062" data-name="Rectangle 152062" width="78.379" height="4.721" transform="translate(62.222 458.182)" fill="#fff"/>
      <rect id="Rectangle_152061" data-name="Rectangle 152061" width="266.963" height="4.721" transform="translate(17.806 472.069)" fill="#fff"/>
      <rect id="Rectangle_152060" data-name="Rectangle 152060" width="36.044" height="4.721" transform="translate(295.574 471.675)" fill="#fff"/>
      <rect id="Rectangle_152059" data-name="Rectangle 152059" width="367.908" height="4.721" transform="translate(38.259 485.957)" fill="#fff"/>
      <rect id="Rectangle_152058" data-name="Rectangle 152058" width="222.101" height="4.721" transform="translate(38.259 499.845)" fill="#fff"/>
      <rect id="Rectangle_152057" data-name="Rectangle 152057" width="61.775" height="4.721" transform="translate(269.839 499.845)" fill="#fff"/>
      <rect id="Rectangle_152056" data-name="Rectangle 152056" width="61.775" height="4.721" transform="translate(344.396 499.845)" fill="#fff"/>
      <rect id="Rectangle_152055" data-name="Rectangle 152055" width="20.453" height="4.721" transform="translate(17.806 513.731)" fill="#fff"/>
    </g>
    <g id="Code_row_dots" data-name="Code row dots" opacity="0.24">
      <path id="Path_103672" data-name="Path 103672" d="M347.88,90.42h0a2.349,2.349,0,0,1-2.35-2.35h0a2.349,2.349,0,0,1,2.35-2.35h0a2.349,2.349,0,0,1,2.35,2.35h0A2.349,2.349,0,0,1,347.88,90.42Z" transform="translate(-345.53 178.397)" fill="#fff"/>
      <path id="Path_103673" data-name="Path 103673" d="M347.88,134.5h0a2.349,2.349,0,0,1-2.35-2.35h0a2.349,2.349,0,0,1,2.35-2.35h0a2.349,2.349,0,0,1,2.35,2.35h0A2.349,2.349,0,0,1,347.88,134.5Z" transform="translate(-345.53 148.148)" fill="#fff"/>
      <path id="Path_103674" data-name="Path 103674" d="M347.88,178.57h0a2.349,2.349,0,0,1-2.35-2.35h0a2.349,2.349,0,0,1,2.35-2.35h0a2.349,2.349,0,0,1,2.35,2.35h0A2.349,2.349,0,0,1,347.88,178.57Z" transform="translate(-345.53 117.905)" fill="#fff"/>
      <path id="Path_103675" data-name="Path 103675" d="M347.88,222.64h0a2.349,2.349,0,0,1-2.35-2.35h0a2.349,2.349,0,0,1,2.35-2.35h0a2.349,2.349,0,0,1,2.35,2.35h0A2.349,2.349,0,0,1,347.88,222.64Z" transform="translate(-345.53 87.663)" fill="#fff"/>
      <path id="Path_103676" data-name="Path 103676" d="M347.88,266.71h0a2.349,2.349,0,0,1-2.35-2.35h0a2.349,2.349,0,0,1,2.35-2.35h0a2.349,2.349,0,0,1,2.35,2.35h0A2.349,2.349,0,0,1,347.88,266.71Z" transform="translate(-345.53 57.42)" fill="#fff"/>
      <path id="Path_103677" data-name="Path 103677" d="M347.88,310.78h0a2.349,2.349,0,0,1-2.35-2.35h0a2.349,2.349,0,0,1,2.35-2.35h0a2.349,2.349,0,0,1,2.35,2.35h0A2.349,2.349,0,0,1,347.88,310.78Z" transform="translate(-345.53 27.178)" fill="#fff"/>
      <path id="Path_103678" data-name="Path 103678" d="M347.88,354.86h0a2.349,2.349,0,0,1-2.35-2.35h0a2.349,2.349,0,0,1,2.35-2.35h0a2.349,2.349,0,0,1,2.35,2.35h0A2.349,2.349,0,0,1,347.88,354.86Z" transform="translate(-345.53 -3.072)" fill="#fff"/>
      <path id="Path_103679" data-name="Path 103679" d="M347.88,398.93h0a2.349,2.349,0,0,1-2.35-2.35h0a2.349,2.349,0,0,1,2.35-2.35h0a2.349,2.349,0,0,1,2.35,2.35h0A2.349,2.349,0,0,1,347.88,398.93Z" transform="translate(-345.53 -33.314)" fill="#fff"/>
      <path id="Path_103680" data-name="Path 103680" d="M347.88,443h0a2.349,2.349,0,0,1-2.35-2.35h0a2.349,2.349,0,0,1,2.35-2.35h0a2.349,2.349,0,0,1,2.35,2.35h0A2.349,2.349,0,0,1,347.88,443Z" transform="translate(-345.53 -63.558)" fill="#fff"/>
      <path id="Path_103681" data-name="Path 103681" d="M347.88,486.49h0a2.349,2.349,0,0,1-2.35-2.35h0a2.349,2.349,0,0,1,2.35-2.35h0a2.349,2.349,0,0,1,2.35,2.35h0A2.349,2.349,0,0,1,347.88,486.49Z" transform="translate(-345.53 -93.402)" fill="#fff"/>
      <path id="Path_103682" data-name="Path 103682" d="M347.88,530.56h0a2.349,2.349,0,0,1-2.35-2.35h0a2.349,2.349,0,0,1,2.35-2.35h0a2.349,2.349,0,0,1,2.35,2.35h0A2.349,2.349,0,0,1,347.88,530.56Z" transform="translate(-345.53 -123.645)" fill="#fff"/>
      <path id="Path_103683" data-name="Path 103683" d="M347.88,574.64h0a2.349,2.349,0,0,1-2.35-2.35h0a2.349,2.349,0,0,1,2.35-2.35h0a2.349,2.349,0,0,1,2.35,2.35h0A2.349,2.349,0,0,1,347.88,574.64Z" transform="translate(-345.53 -153.895)" fill="#fff"/>
      <path id="Path_103684" data-name="Path 103684" d="M347.88,618.71h0a2.349,2.349,0,0,1-2.35-2.35h0a2.349,2.349,0,0,1,2.35-2.35h0a2.349,2.349,0,0,1,2.35,2.35h0A2.349,2.349,0,0,1,347.88,618.71Z" transform="translate(-345.53 -184.137)" fill="#fff"/>
      <path id="Path_103685" data-name="Path 103685" d="M347.88,662.78h0a2.349,2.349,0,0,1-2.35-2.35h0a2.349,2.349,0,0,1,2.35-2.35h0a2.349,2.349,0,0,1,2.35,2.35h0A2.349,2.349,0,0,1,347.88,662.78Z" transform="translate(-345.53 -214.38)" fill="#fff"/>
      <path id="Path_103686" data-name="Path 103686" d="M347.88,706.27h0a2.349,2.349,0,0,1-2.35-2.35h0a2.349,2.349,0,0,1,2.35-2.35h0a2.349,2.349,0,0,1,2.35,2.35h0A2.349,2.349,0,0,1,347.88,706.27Z" transform="translate(-345.53 -244.225)" fill="#fff"/>
      <path id="Path_103687" data-name="Path 103687" d="M347.88,750.34h0a2.349,2.349,0,0,1-2.35-2.35h0a2.349,2.349,0,0,1,2.35-2.35h0a2.349,2.349,0,0,1,2.35,2.35h0A2.349,2.349,0,0,1,347.88,750.34Z" transform="translate(-345.53 -274.468)" fill="#fff"/>
      <path id="Path_103688" data-name="Path 103688" d="M347.88,794.42h0a2.349,2.349,0,0,1-2.35-2.35h0a2.349,2.349,0,0,1,2.35-2.35h0a2.349,2.349,0,0,1,2.35,2.35h0A2.349,2.349,0,0,1,347.88,794.42Z" transform="translate(-345.53 -304.717)" fill="#fff"/>
      <path id="Path_103689" data-name="Path 103689" d="M347.88,838.49h0a2.349,2.349,0,0,1-2.35-2.35h0a2.349,2.349,0,0,1,2.35-2.35h0a2.349,2.349,0,0,1,2.35,2.35h0A2.349,2.349,0,0,1,347.88,838.49Z" transform="translate(-345.53 -334.96)" fill="#fff"/>
      <path id="Path_103690" data-name="Path 103690" d="M347.88,882.56h0a2.349,2.349,0,0,1-2.35-2.35h0a2.349,2.349,0,0,1,2.35-2.35h0a2.349,2.349,0,0,1,2.35,2.35h0A2.349,2.349,0,0,1,347.88,882.56Z" transform="translate(-345.53 -365.202)" fill="#fff"/>
      <path id="Path_103672-2" data-name="Path 103672" d="M347.88,90.42h0a2.349,2.349,0,0,1-2.35-2.35h0a2.349,2.349,0,0,1,2.35-2.35h0a2.349,2.349,0,0,1,2.35,2.35h0A2.349,2.349,0,0,1,347.88,90.42Z" transform="translate(-345.53 -85.721)" fill="#fff"/>
      <path id="Path_103673-2" data-name="Path 103673" d="M347.88,134.5h0a2.349,2.349,0,0,1-2.35-2.35h0a2.349,2.349,0,0,1,2.35-2.35h0a2.349,2.349,0,0,1,2.35,2.35h0A2.349,2.349,0,0,1,347.88,134.5Z" transform="translate(-345.53 -115.969)" fill="#fff"/>
      <path id="Path_103674-2" data-name="Path 103674" d="M347.88,178.57h0a2.349,2.349,0,0,1-2.35-2.35h0a2.349,2.349,0,0,1,2.35-2.35h0a2.349,2.349,0,0,1,2.35,2.35h0A2.349,2.349,0,0,1,347.88,178.57Z" transform="translate(-345.53 -146.212)" fill="#fff"/>
      <path id="Path_103675-2" data-name="Path 103675" d="M347.88,222.64h0a2.349,2.349,0,0,1-2.35-2.35h0a2.349,2.349,0,0,1,2.35-2.35h0a2.349,2.349,0,0,1,2.35,2.35h0A2.349,2.349,0,0,1,347.88,222.64Z" transform="translate(-345.53 -176.455)" fill="#fff"/>
      <path id="Path_103676-2" data-name="Path 103676" d="M347.88,266.71h0a2.349,2.349,0,0,1-2.35-2.35h0a2.349,2.349,0,0,1,2.35-2.35h0a2.349,2.349,0,0,1,2.35,2.35h0A2.349,2.349,0,0,1,347.88,266.71Z" transform="translate(-345.53 -206.698)" fill="#fff"/>
      <path id="Path_103677-2" data-name="Path 103677" d="M347.88,310.78h0a2.349,2.349,0,0,1-2.35-2.35h0a2.349,2.349,0,0,1,2.35-2.35h0a2.349,2.349,0,0,1,2.35,2.35h0A2.349,2.349,0,0,1,347.88,310.78Z" transform="translate(-345.53 -236.94)" fill="#fff"/>
      <path id="Path_103678-2" data-name="Path 103678" d="M347.88,354.86h0a2.349,2.349,0,0,1-2.35-2.35h0a2.349,2.349,0,0,1,2.35-2.35h0a2.349,2.349,0,0,1,2.35,2.35h0A2.349,2.349,0,0,1,347.88,354.86Z" transform="translate(-345.53 -267.19)" fill="#fff"/>
      <path id="Path_103679-2" data-name="Path 103679" d="M347.88,398.93h0a2.349,2.349,0,0,1-2.35-2.35h0a2.349,2.349,0,0,1,2.35-2.35h0a2.349,2.349,0,0,1,2.35,2.35h0A2.349,2.349,0,0,1,347.88,398.93Z" transform="translate(-345.53 -297.433)" fill="#fff"/>
      <path id="Path_103680-2" data-name="Path 103680" d="M347.88,443h0a2.349,2.349,0,0,1-2.35-2.35h0a2.349,2.349,0,0,1,2.35-2.35h0a2.349,2.349,0,0,1,2.35,2.35h0A2.349,2.349,0,0,1,347.88,443Z" transform="translate(-345.53 -327.676)" fill="#fff"/>
      <path id="Path_103681-2" data-name="Path 103681" d="M347.88,486.49h0a2.349,2.349,0,0,1-2.35-2.35h0a2.349,2.349,0,0,1,2.35-2.35h0a2.349,2.349,0,0,1,2.35,2.35h0A2.349,2.349,0,0,1,347.88,486.49Z" transform="translate(-345.53 -357.521)" fill="#fff"/>
      <path id="Path_103682-2" data-name="Path 103682" d="M347.88,530.56h0a2.349,2.349,0,0,1-2.35-2.35h0a2.349,2.349,0,0,1,2.35-2.35h0a2.349,2.349,0,0,1,2.35,2.35h0A2.349,2.349,0,0,1,347.88,530.56Z" transform="translate(-345.53 -387.763)" fill="#fff"/>
      <path id="Path_103683-2" data-name="Path 103683" d="M347.88,574.64h0a2.349,2.349,0,0,1-2.35-2.35h0a2.349,2.349,0,0,1,2.35-2.35h0a2.349,2.349,0,0,1,2.35,2.35h0A2.349,2.349,0,0,1,347.88,574.64Z" transform="translate(-345.53 -418.013)" fill="#fff"/>
      <path id="Path_103684-2" data-name="Path 103684" d="M347.88,618.71h0a2.349,2.349,0,0,1-2.35-2.35h0a2.349,2.349,0,0,1,2.35-2.35h0a2.349,2.349,0,0,1,2.35,2.35h0A2.349,2.349,0,0,1,347.88,618.71Z" transform="translate(-345.53 -448.255)" fill="#fff"/>
      <path id="Path_103685-2" data-name="Path 103685" d="M347.88,662.78h0a2.349,2.349,0,0,1-2.35-2.35h0a2.349,2.349,0,0,1,2.35-2.35h0a2.349,2.349,0,0,1,2.35,2.35h0A2.349,2.349,0,0,1,347.88,662.78Z" transform="translate(-345.53 -478.498)" fill="#fff"/>
      <path id="Path_103686-2" data-name="Path 103686" d="M347.88,706.27h0a2.349,2.349,0,0,1-2.35-2.35h0a2.349,2.349,0,0,1,2.35-2.35h0a2.349,2.349,0,0,1,2.35,2.35h0A2.349,2.349,0,0,1,347.88,706.27Z" transform="translate(-345.53 -508.343)" fill="#fff"/>
      <path id="Path_103687-2" data-name="Path 103687" d="M347.88,750.34h0a2.349,2.349,0,0,1-2.35-2.35h0a2.349,2.349,0,0,1,2.35-2.35h0a2.349,2.349,0,0,1,2.35,2.35h0A2.349,2.349,0,0,1,347.88,750.34Z" transform="translate(-345.53 -538.586)" fill="#fff"/>
      <path id="Path_103688-2" data-name="Path 103688" d="M347.88,794.42h0a2.349,2.349,0,0,1-2.35-2.35h0a2.349,2.349,0,0,1,2.35-2.35h0a2.349,2.349,0,0,1,2.35,2.35h0A2.349,2.349,0,0,1,347.88,794.42Z" transform="translate(-345.53 -568.835)" fill="#fff"/>
      <path id="Path_103689-2" data-name="Path 103689" d="M347.88,838.49h0a2.349,2.349,0,0,1-2.35-2.35h0a2.349,2.349,0,0,1,2.35-2.35h0a2.349,2.349,0,0,1,2.35,2.35h0A2.349,2.349,0,0,1,347.88,838.49Z" transform="translate(-345.53 -599.078)" fill="#fff"/>
      <path id="Path_103690-2" data-name="Path 103690" d="M347.88,882.56h0a2.349,2.349,0,0,1-2.35-2.35h0a2.349,2.349,0,0,1,2.35-2.35h0a2.349,2.349,0,0,1,2.35,2.35h0A2.349,2.349,0,0,1,347.88,882.56Z" transform="translate(-345.53 -629.32)" fill="#fff"/>
    </g>
  </g>
</svg>
