<svg id="Group_187340" data-name="Group 187340" xmlns="http://www.w3.org/2000/svg" width="45.512" height="45.765" viewBox="0 0 45.512 45.765">
  <g id="SLMOCK" transform="translate(0)">
    <rect id="Canvas" width="45.512" height="45.765" fill="rgba(255,19,220,0)"/>
  </g>
  <g id="Illu" transform="translate(1.685 3.074)">
    <path id="Path_127224" data-name="Path 127224" d="M5.4,29.318a14.813,14.813,0,0,0,3.845,2.323,21.086,21.086,0,0,0,3.141,1.024v.718a3.389,3.389,0,0,0,.98,2.389,3.543,3.543,0,0,0,2.511,1.046,3.462,3.462,0,0,0,2.156-.766A7.882,7.882,0,0,0,25.7,42H36.235a7.843,7.843,0,0,0,7.9-7.768V23.873a7.843,7.843,0,0,0-7.9-7.768h-7.9V14.612a1.58,1.58,0,0,0-3.16,0v3.046a1.567,1.567,0,0,0,1.58,1.554h9.48a4.706,4.706,0,0,1,4.74,4.661V34.229a4.706,4.706,0,0,1-4.74,4.661H25.7a4.706,4.706,0,0,1-4.74-4.661V33.194c0-.015,0-.029,0-.044l3.3-3.335.068-.071A3.247,3.247,0,0,0,24.8,25.96a1.55,1.55,0,0,0,1.829-.5,7.711,7.711,0,0,0,1.2-2.209,1.548,1.548,0,0,0-.99-1.97,1.587,1.587,0,0,0-2,.973,4.613,4.613,0,0,1-.716,1.325,1.527,1.527,0,0,0-.3,1.172l-5.452-5.541-.052-.051a3.477,3.477,0,0,0-2.433-.987,3.54,3.54,0,0,0-2.506,1.04,3.384,3.384,0,0,0-.985,2.4v.692a10.244,10.244,0,0,1-1.312.13c-.079,0-.148,0-.218,0a5.681,5.681,0,0,1-1.584-.212,7,7,0,0,1-1.86-.871,3.543,3.543,0,0,0-4.387.446,3.4,3.4,0,0,0-.455,4.314,15.363,15.363,0,0,0,1.852,2.3C4.732,28.733,5.06,29.037,5.4,29.318ZM5.258,24a.329.329,0,0,1,.413-.045l.008,0a10.17,10.17,0,0,0,2.707,1.254,8.917,8.917,0,0,0,2.466.336q.151,0,.3,0a23.034,23.034,0,0,0,4.387-.71V21.61a.321.321,0,0,1,.092-.229.358.358,0,0,1,.238-.1.3.3,0,0,1,.214.092l5.9,6a.207.207,0,0,1,0,.279l-5.9,5.971a.3.3,0,0,1-.213.091.358.358,0,0,1-.239-.1.323.323,0,0,1-.092-.23V30.171a25.946,25.946,0,0,1-5.062-1.389,11.761,11.761,0,0,1-3.034-1.829q-.4-.334-.756-.7a12.2,12.2,0,0,1-1.473-1.829A.342.342,0,0,1,5.258,24Z" transform="translate(-1.996 -2.641)"/>
    <path id="Path_127225" data-name="Path 127225" d="M3.375,10.5A1.584,1.584,0,0,0,5.32,9.422a4.586,4.586,0,0,1,.64-1.359,1.537,1.537,0,0,0-.419-2.157,1.6,1.6,0,0,0-2.194.412A7.64,7.64,0,0,0,2.275,8.591a1.551,1.551,0,0,0,1.1,1.913Z" transform="translate(-1.984 -2.906)"/>
    <path id="Path_127226" data-name="Path 127226" d="M23.789,9.422A1.584,1.584,0,0,0,25.735,10.5a1.551,1.551,0,0,0,1.1-1.913,7.64,7.64,0,0,0-1.072-2.274,1.6,1.6,0,0,0-2.194-.412,1.537,1.537,0,0,0-.419,2.157A4.586,4.586,0,0,1,23.789,9.422Z" transform="translate(-0.882 -2.906)"/>
    <path id="Path_127227" data-name="Path 127227" d="M17.58,6.107h2.008a1.584,1.584,0,0,0,1.6-1.554,1.525,1.525,0,0,0-.452-1.1A1.578,1.578,0,0,0,19.625,3H17.58a1.554,1.554,0,1,0,0,3.107Z" transform="translate(-1.249 -3)"/>
    <path id="Path_127228" data-name="Path 127228" d="M9.581,6.107h2.008a1.554,1.554,0,1,0,0-3.107H9.544a1.578,1.578,0,0,0-1.11.457,1.525,1.525,0,0,0-.452,1.1A1.584,1.584,0,0,0,9.581,6.107Z" transform="translate(-1.677 -3)"/>
    <path id="Path_127229" data-name="Path 127229" d="M3.58,18.176a1.567,1.567,0,0,0,1.58-1.554V14.612a1.58,1.58,0,0,0-3.16,0v2.011a1.567,1.567,0,0,0,1.58,1.554Z" transform="translate(-1.996 -2.641)"/>
  </g>
</svg>
