<svg xmlns="http://www.w3.org/2000/svg" width="84" height="84" viewBox="0 0 84 84">
  <g id="Quick_action_icon_3" data-name="Quick action icon 3" transform="translate(0.417 -0.267)">
    <g id="Ellipse_10155" data-name="Ellipse 10155" transform="translate(-0.417 0.267)" stroke="#e9e9e9" stroke-width="2">
      <circle cx="42" cy="42" r="42" stroke="none"/>
      <circle cx="42" cy="42" r="41" fill="none"/>
    </g>
    <g id="Illu" transform="translate(29.192 28.427)">
      <path id="Path_127612" data-name="Path 127612" d="M8.822,23.825h2.872a1.077,1.077,0,1,0,0-2.154H8.822A4.673,4.673,0,0,1,4.154,17V9.822A4.673,4.673,0,0,1,8.822,5.154h8.617a4.673,4.673,0,0,1,4.668,4.668v5.745a1.077,1.077,0,0,0,2.154,0V9.822A6.83,6.83,0,0,0,17.439,3H8.822A6.83,6.83,0,0,0,2,9.822V17A6.83,6.83,0,0,0,8.822,23.825Z" transform="translate(-2 -3)" fill="#e9e9e9"/>
      <path id="Path_127613" data-name="Path 127613" d="M14.755,12.163A1.149,1.149,0,0,0,13,13.074v5.745a1.149,1.149,0,0,0,1.755.914l4.887-2.872a1.044,1.044,0,0,0,0-1.828Z" transform="translate(-5.101 -5.534)" fill="#e9e9e9"/>
      <path id="Path_131255" data-name="Path 131255" d="M36.285,34.053H27.778a.47.47,0,0,1-.47-.47V25.077a1.077,1.077,0,1,0-2.154,0v1.077H24.077a1.077,1.077,0,1,0,0,2.154h1.077v5.275a2.627,2.627,0,0,0,2.624,2.624h5.275v1.077a1.077,1.077,0,0,0,2.154,0V36.208h1.077a1.077,1.077,0,0,0,0-2.154Z" transform="translate(-10.792 -10.356)" fill="#e9e9e9"/>
      <path id="Path_131256" data-name="Path 131256" d="M31,28.077a1.077,1.077,0,0,0,1.077,1.077h2.762a.47.47,0,0,1,.47.47v2.762a1.077,1.077,0,0,0,2.154,0V29.624A2.627,2.627,0,0,0,34.839,27H32.077A1.077,1.077,0,0,0,31,28.077Z" transform="translate(-13.048 -11.202)" fill="#e9e9e9"/>
    </g>
  </g>
</svg>
