<svg xmlns="http://www.w3.org/2000/svg" width="25.882" height="22" viewBox="0 0 25.882 22">
  <g id="Designed_for_Developers_-_quick_actions_icon" data-name="Designed for Developers - quick actions icon" transform="translate(-2 -5)">
    <circle id="Ellipse_24863" data-name="Ellipse 24863" cx="2" cy="2" r="2" transform="translate(17.941 10)" fill="#5c5ce0"/>
    <path id="Path_129340" data-name="Path 129340" d="M24.711,17H22v5.235l.593.588h2.916l1.417-1.345a2.34,2.34,0,0,1,.9-.486v-3.2A1.924,1.924,0,0,1,24.711,17Z" transform="translate(-7.059 -4.235)" fill="#5c5ce0" opacity="0.3"/>
    <path id="Path_129341" data-name="Path 129341" d="M31.974,8H31v3.735a1.891,1.891,0,0,1,.533,2.088H36.18V12.206A4.211,4.211,0,0,0,31.974,8Z" transform="translate(-10.235 -1.059)" fill="#5c5ce0" opacity="0.3"/>
    <path id="Path_129342" data-name="Path 129342" d="M8.955,18.211a2.352,2.352,0,0,1,1.224-.536V17H5.006v4.9Z" transform="translate(-1.061 -4.235)" fill="#5c5ce0" opacity="0.3"/>
    <rect id="Rectangle_163137" data-name="Rectangle 163137" width="6" height="6" transform="translate(8.941 7)" fill="#5c5ce0" opacity="0.3"/>
    <path id="Path_129343" data-name="Path 129343" d="M27.882,11.147A6.154,6.154,0,0,0,21.735,5H8.147A6.154,6.154,0,0,0,2,11.147v9.708A6.154,6.154,0,0,0,8.147,27H21.735a6.157,6.157,0,0,0,5.877-4.349.956.956,0,0,0,.129-.518,6.139,6.139,0,0,0,.14-1.281ZM8.147,6.941H21.735a4.21,4.21,0,0,1,4.206,4.206v8.929l-3.012-2.812a2.265,2.265,0,0,0-3.065-.023l-2.681,2.544a.324.324,0,0,1-.237.089.379.379,0,0,1-.268-.149l-5.729-5.683a2.272,2.272,0,0,0-3.059-.065L3.941,17.661V11.147A4.21,4.21,0,0,1,8.147,6.941ZM21.735,25.059H8.147a4.21,4.21,0,0,1-4.206-4.206v-.536L9.175,15.43a.324.324,0,0,1,.419,0l5.676,5.629a2.265,2.265,0,0,0,3.248.133l2.653-2.518a.324.324,0,0,1,.434.008l4.023,3.753A4.211,4.211,0,0,1,21.735,25.059Z" fill="#5c5ce0"/>
  </g>
</svg>
