<svg xmlns="http://www.w3.org/2000/svg" width="62" height="62" viewBox="0 0 62 62">
  <g id="Quick_action_icon_4" data-name="Quick action icon 4" transform="translate(-0.179 -0.451)">
    <g id="Ellipse_10155" data-name="Ellipse 10155" transform="translate(0.179 0.451)" stroke="#e9e9e9" stroke-width="2">
      <circle cx="31" cy="31" r="31" stroke="none"/>
      <circle cx="31" cy="31" r="30" fill="none"/>
    </g>
    <g id="Illu" transform="translate(18.362 18.353)">
      <circle id="Ellipse_24757" data-name="Ellipse 24757" cx="1.599" cy="1.599" r="1.599" transform="translate(11.992 3.997)" fill="#e9e9e9"/>
      <path id="Path_127683" data-name="Path 127683" d="M18.272,13.477a.306.306,0,0,1,.328-.039l2.144,1.619a.919.919,0,0,0,1.47-.735V8.167A5.211,5.211,0,0,0,16.975,3H7.244A5.211,5.211,0,0,0,2,8.167V15.6a5.211,5.211,0,0,0,5.244,5.167h4.865a.919.919,0,1,0,0-1.838H7.244A3.37,3.37,0,0,1,3.838,15.6v-.48l4.012-4.012a.441.441,0,0,1,.634.025l5.542,5.119a.919.919,0,0,0,1.247,0Zm-3.622.847L9.758,9.806a2.271,2.271,0,0,0-3.207,0L3.838,12.522V8.167A3.37,3.37,0,0,1,7.244,4.838h9.731a3.37,3.37,0,0,1,3.406,3.329v4.315l-.722-.545a.78.78,0,0,0-.075-.053,2.163,2.163,0,0,0-2.519.208Z" transform="translate(-2 -3)" fill="#e9e9e9"/>
      <path id="Path_127684" data-name="Path 127684" d="M34.335,31.352a.919.919,0,0,0-.919.919,2.144,2.144,0,0,1-2.144,2.144H30.3a.914.914,0,0,0-1.726,0H26.982a2.144,2.144,0,0,1-2.144-2.144V30.683a.914.914,0,0,0,0-1.726v-.975a2.144,2.144,0,0,1,2.144-2.144.919.919,0,1,0,0-1.838A3.987,3.987,0,0,0,23,27.982v4.289a3.987,3.987,0,0,0,3.982,3.982h4.289a3.987,3.987,0,0,0,3.982-3.982.919.919,0,0,0-.919-.919Z" transform="translate(-10.134 -11.134)" fill="#e9e9e9"/>
      <path id="Path_127685" data-name="Path 127685" d="M38.208,24H34.532a.919.919,0,1,0,0,1.838h1.458l-2.72,2.72a.919.919,0,1,0,1.3,1.3l2.72-2.72V28.6a.919.919,0,1,0,1.838,0V24.919A.919.919,0,0,0,38.208,24Z" transform="translate(-14.007 -11.134)" fill="#e9e9e9"/>
      <ellipse id="Ellipse_24758" data-name="Ellipse 24758" cx="0.799" cy="1.199" rx="0.799" ry="1.199" transform="translate(15.99 17.589)" fill="#e9e9e9"/>
      <ellipse id="Ellipse_24759" data-name="Ellipse 24759" cx="0.799" cy="1.199" rx="0.799" ry="1.199" transform="translate(18.388 19.987)" fill="#e9e9e9"/>
    </g>
  </g>
</svg>
