<svg xmlns="http://www.w3.org/2000/svg" width="63" height="63" viewBox="0 0 63 63">
  <g id="Quick_action_icon_1" data-name="Quick action icon 1" transform="translate(-0.37 0.421)">
    <g id="Ellipse_10155" data-name="Ellipse 10155" transform="translate(0.37 -0.421)" stroke="#e9e9e9" stroke-width="2">
      <circle cx="31.5" cy="31.5" r="31.5" stroke="none"/>
      <circle cx="31.5" cy="31.5" r="30.5" fill="none"/>
    </g>
    <g id="Illu" transform="translate(18.529 18.118)">
      <path id="Path_127606" data-name="Path 127606" d="M30.474,28.64a2.82,2.82,0,1,0-2.82-2.82,2.79,2.79,0,0,0,.093.682L24.72,28.46,18.453,24.4a.94.94,0,1,0-1.021,1.579l5.559,3.6-5.559,3.6a.94.94,0,1,0,1.021,1.579L24.72,30.7l2.945,1.906c0,.036-.011.071-.011.108a2.848,2.848,0,1,0,.734-1.88L26.452,29.58l2.338-1.513A2.793,2.793,0,0,0,30.474,28.64Zm0-3.76a.94.94,0,1,1-.94.94A.94.94,0,0,1,30.474,24.88Zm0,6.893a.94.94,0,1,1-.94.94A.94.94,0,0,1,30.474,31.773Z" transform="translate(-7.601 -10.467)" fill="#e9e9e9"/>
      <path id="Path_127607" data-name="Path 127607" d="M14.532,12.141a1,1,0,0,0-1.532.8v5.013a1,1,0,0,0,1.532.8L18.8,16.24a.911.911,0,0,0,0-1.6Z" transform="translate(-6.107 -6.356)" fill="#e9e9e9"/>
      <path id="Path_127608" data-name="Path 127608" d="M7.953,21.173H9.207a.94.94,0,1,0,0-1.88H7.953A4.078,4.078,0,0,1,3.88,15.22V8.953A4.078,4.078,0,0,1,7.953,4.88h7.52a4.078,4.078,0,0,1,4.073,4.073v5.013a.94.94,0,1,0,1.88,0V8.953A5.96,5.96,0,0,0,15.473,3H7.953A5.96,5.96,0,0,0,2,8.953V15.22A5.96,5.96,0,0,0,7.953,21.173Z" transform="translate(-2 -3)" fill="#e9e9e9"/>
    </g>
  </g>
</svg>
