<svg id="Illu" xmlns="http://www.w3.org/2000/svg" width="41.375" height="35.169" viewBox="0 0 41.375 35.169">
  <circle id="Ellipse_24863" data-name="Ellipse 24863" cx="3.103" cy="3.103" r="3.103" transform="translate(24.831 8.275)"/>
  <path id="Path_129340" data-name="Path 129340" d="M26.334,17H22v8.369l.947.94H27.61l2.265-2.15a3.741,3.741,0,0,1,1.434-.777V18.269A3.076,3.076,0,0,1,26.334,17Z" transform="translate(-1.313 -4.588)" opacity="0.3"/>
  <path id="Path_129341" data-name="Path 129341" d="M32.558,8H31v5.972a3.023,3.023,0,0,1,.851,3.337h7.43V14.723A6.731,6.731,0,0,0,32.558,8Z" transform="translate(-1.003 -4.897)" opacity="0.3"/>
  <path id="Path_129342" data-name="Path 129342" d="M11.319,18.936a3.76,3.76,0,0,1,1.956-.856V17H5.006v7.828Z" transform="translate(-1.897 -4.588)" opacity="0.3"/>
  <rect id="Rectangle_163137" data-name="Rectangle 163137" width="9.309" height="9.309" transform="translate(11.378 3.103)" opacity="0.3"/>
  <path id="Path_129343" data-name="Path 129343" d="M43.375,14.827A9.838,9.838,0,0,0,33.548,5H11.827A9.838,9.838,0,0,0,2,14.827V28.74c0,.019,0,.036,0,.055v1.547a9.838,9.838,0,0,0,9.826,9.827H33.548a9.843,9.843,0,0,0,9.4-6.952,1.528,1.528,0,0,0,.212-.823,9.815,9.815,0,0,0,.219-2.052ZM11.827,8.1H33.548a6.731,6.731,0,0,1,6.723,6.723V29.1l-4.815-4.5a3.622,3.622,0,0,0-4.9-.036L26.27,28.639a.514.514,0,0,1-.379.141.607.607,0,0,1-.428-.238l-9.158-9.087a3.632,3.632,0,0,0-4.889-.106L5.1,25.24V14.827A6.731,6.731,0,0,1,11.827,8.1ZM33.548,37.066H11.827A6.731,6.731,0,0,1,5.1,30.342v-.858l8.367-7.811a.513.513,0,0,1,.67,0l9.074,9a3.621,3.621,0,0,0,5.191.213l4.24-4.025a.517.517,0,0,1,.694.012l6.431,6A6.731,6.731,0,0,1,33.548,37.066Z" transform="translate(-2 -5)"/>
</svg>
