<svg id="SXmock_IlluImageResize_44_N" xmlns="http://www.w3.org/2000/svg" width="43.805" height="43.805" viewBox="0 0 43.805 43.805">
  <g id="SLMOCK" transform="translate(0 0)">
    <rect id="Canvas" width="43.805" height="43.805" fill="rgba(255,19,220,0)"/>
  </g>
  <g id="Illu" transform="translate(0 0)">
    <ellipse id="Ellipse_24757" data-name="Ellipse 24757" cx="2.489" cy="2.489" rx="2.489" ry="2.489" transform="translate(19.911 6.969)"/>
    <path id="Path_127683" data-name="Path 127683" d="M28.441,20.029a.5.5,0,0,1,.533-.063l3.487,2.63A1.493,1.493,0,0,0,34.854,21.4V11.4A8.469,8.469,0,0,0,26.333,3H10.521A8.469,8.469,0,0,0,2,11.4V23.475a8.469,8.469,0,0,0,8.521,8.4h7.906a1.493,1.493,0,1,0,0-2.987H10.521a5.479,5.479,0,0,1-5.534-5.41V22.7l6.52-6.52a.717.717,0,0,1,1.031.041l9,8.318a1.493,1.493,0,0,0,2.027,0Zm-5.885,1.377-7.949-7.341a3.689,3.689,0,0,0-5.212,0L4.987,18.473V11.4a5.479,5.479,0,0,1,5.534-5.41H26.333a5.479,5.479,0,0,1,5.534,5.41v7.011l-1.173-.885a1.266,1.266,0,0,0-.121-.083,3.514,3.514,0,0,0-4.093.338Z" transform="translate(-2 -3)"/>
    <path id="Path_127684" data-name="Path 127684" d="M41.418,35.947a1.493,1.493,0,0,0-1.493,1.493,3.489,3.489,0,0,1-3.485,3.485H34.856a1.485,1.485,0,0,0-2.8,0h-2.58a3.489,3.489,0,0,1-3.485-3.484V34.86a1.485,1.485,0,0,0,0-2.8V30.471a3.489,3.489,0,0,1,3.485-3.485,1.493,1.493,0,1,0,0-2.987A6.479,6.479,0,0,0,23,30.471V37.44a6.479,6.479,0,0,0,6.471,6.471H36.44a6.479,6.479,0,0,0,6.471-6.471,1.493,1.493,0,0,0-1.493-1.493Z" transform="translate(-2.093 -3.093)"/>
    <path id="Path_127685" data-name="Path 127685" d="M41.462,24H35.489a1.493,1.493,0,1,0,0,2.987h2.368l-4.42,4.42a1.493,1.493,0,0,0,2.112,2.112l4.42-4.42v2.368a1.493,1.493,0,0,0,2.987,0V25.493A1.493,1.493,0,0,0,41.462,24Z" transform="translate(-2.137 -3.093)"/>
    <ellipse id="Ellipse_24758" data-name="Ellipse 24758" cx="1.493" cy="1.493" rx="1.493" ry="1.493" transform="translate(25.885 28.872)"/>
    <ellipse id="Ellipse_24759" data-name="Ellipse 24759" cx="1.493" cy="1.493" rx="1.493" ry="1.493" transform="translate(29.867 32.854)"/>
  </g>
</svg>
