<?xml version="1.0" encoding="UTF-8"?>
<svg id="ICONS" xmlns="http://www.w3.org/2000/svg" width="18" height="18" viewBox="0 0 18 18">
  <defs>
    <style>
      .fill {
        fill: #222;
        stroke-width: 0px;
      }
    </style>
  </defs>
  <path class="fill" d="M15,8.16797c-.55225,0-1,.44727-1,1v2.73657l-1.33398-1.21509c-.79004-.79102-2.20947-.75293-2.91846-.03809l-.97119.87012-2.58105-2.58105c-.81396-.81445-2.14111-.81445-2.94531-.01172l-1.25,1.20996v-1.04883c0-1.8418,1.49854-3.33984,3.34033-3.33984.55225,0,1-.44727,1-1s-.44775-1-1-1C2.39551,3.75,0,6.14551,0,9.08984v3.57031c0,2.94434,2.39551,5.33984,5.34033,5.33984h5.31934c2.94482,0,5.34033-2.39551,5.34033-5.33984v-3.49219c0-.55273-.44775-1-1-1ZM10.65967,16h-5.31934c-1.76007,0-3.19135-1.37256-3.31622-3.10132l2.62775-2.54419c.03613-.03516.09473-.03516.12988,0l3.24951,3.25c.37598.37598.97949.3916,1.37402.03809l1.67627-1.50098c.01367-.0127.0918-.05176.10498-.06543l2.39905,2.16162c-.56555,1.04346-1.65765,1.76221-2.9259,1.76221Z"/>
  <path class="fill" d="M11.46799,7.80451c.02124-.05182.02989-.10478.03058-.15793,0-.00255.00146-.00479.00142-.00734-.00004-.00341-.00199-.00636-.00211-.00973-.0015-.05347-.01247-.10521-.03379-.15476-.0011-.00255-.00171-.00518-.00284-.00769-.02368-.05221-.05422-.10199-.09907-.14389l-.89269-.83204.05776-.79936.02876-.39593c.00459-.06151-.00784-.11945-.02725-.17468-.00325-.00906-.00707-.01714-.01093-.02597-.04358-.10176-.12157-.1879-.23217-.23557-.00171-.00075-.00353-.00067-.00524-.00137-.02238-.01059-.04403-.01165-.06722-.01781-.03704-.00945-.0736-.01495-.11089-.01534-.00361.00051-.00735-.0022-.01093-.00153-.00394.00008-.00735.00216-.01129.00231-.05264.00192-.10349.01216-.1524.03146-.00569.0022-.01145.00353-.01706.00592-.05154.02271-.10061.05174-.14228.09332l-.86173.8624-1.23801-.08442c-.06978-.00494-.13501.00969-.19638.03248-.00016.00008-.00032.00012-.00049.0002-.11048.04115-.20374.11902-.25447.22968-.00317.0069-.00321.01424-.00601.02122-.00024.00055-.00028.00122-.00049.00177-.02051.05166-.02884.10439-.02896.15735-.00004.00643.00049.01255.00077.01899.00207.04805.01202.09442.03018.13934.00321.00824.0054.01632.0091.0244.02242.04692.05134.09113.09106.12953.0026.00259.00341.00608.00609.00863l.89139.83329-.0463.63562-.04119.56218c-.00032.0049.00244.00938.00227.01424-.00138.05253.00768.10235.02388.15005.00528.01561.0119.0297.01897.04472.01905.04037.04391.07681.07474.10988.00735.00804.00991.01875.01791.02632.00313.00294.00735.00377.01052.00659.03607.03174.07713.05896.12396.07905.00097.00039.00199.00024.00297.00063.05837.02456.11998.03927.18262.03927.1199,0,.23948-.04456.33014-.13432l.86238-.85863,1.24159.08034c.02165.00239.04184-.00749.06332-.00879.02953-.00243.05869-.00435.08692-.012.02868-.00812.05431-.01816.08095-.03189.03404-.01624.06446-.03707.0935-.06096.00881-.00753.02059-.01067.02884-.01879.00256-.00251.00333-.006.00581-.00855.0357-.03578.06677-.07638.08871-.12392.00171-.00373.00162-.00773.00325-.01149.00089-.00212.00102-.00435.00183-.00647Z"/>
  <path class="fill" d="M13.27881,7.00195c-.23291,0-.46582-.08398-.64648-.25293-.20801-.19824-.31348-.46973-.29395-.75l.12402-1.74316-1.28271-1.21289c-.18604-.17773-.28955-.41406-.29297-.66797-.00391-.25293.09229-.49219.27051-.67188.19385-.19824.46533-.29883.7373-.2793l1.79395.12305,1.24414-1.26562c.36377-.36426.95752-.37305,1.32666-.01953.20264.19238.30811.46387.28857.74414v.00098l-.125,1.74023,1.28369,1.21484c.18311.17383.28955.41699.29346.66797.00342.25-.0957.49609-.27246.67383-.18799.19043-.46045.30176-.72266.27832l-1.80615-.125-1.24512,1.26562c-.18359.18555-.4292.2793-.6748.2793ZM13.3457,3.02637l.34131.32324c.20459.19531.31006.4668.29053.74707l-.03564.49902.3667-.37305c.19824-.19727.47168-.30566.73877-.2793l.49365.03418-.34131-.32324c-.20459-.19336-.31201-.46582-.29199-.74707l.03564-.49707-.36572.37207c-.20166.20117-.47656.30762-.75195.27734l-.47998-.0332ZM16.22949,2.56348l.00244.00195c-.00098-.00098-.00195-.00195-.00244-.00195ZM13.92432,1.56348l.0166.00098c-.00537-.00098-.01123-.00098-.0166-.00098ZM15.7998.95312h.00977-.00977Z"/>
</svg>