<svg id="SXmock_IlluVideoCutout_44_N" xmlns="http://www.w3.org/2000/svg" width="45.781" height="45.894" viewBox="0 0 45.781 45.894">
  <g id="SLMOCK" transform="translate(0 0.382)">
    <rect id="Canvas" width="45.512" height="45.512" fill="rgba(255,19,220,0)"/>
  </g>
  <g id="SXmock_IlluVideoReverse_44_N" transform="translate(0.101 0)">
    <g id="SLMOCK-2" data-name="SLMOCK">
      <rect id="Canvas-2" data-name="Canvas" width="45.681" height="45.681" fill="rgba(255,19,220,0)"/>
    </g>
    <g id="Illu" transform="translate(2.064 3.096)">
      <path id="Path_127611" data-name="Path 127611" d="M39.018,21.306a1.548,1.548,0,1,0-1.848,2.483,5.672,5.672,0,0,1,2.472,4.951,6.716,6.716,0,0,1-6.708,6.708H24.49l3.3-3.067a1.548,1.548,0,0,0-2.106-2.27l-6.192,5.75a1.549,1.549,0,0,0,0,2.27l6.192,5.75a1.548,1.548,0,0,0,2.106-2.27l-3.3-3.067h8.443a9.816,9.816,0,0,0,9.8-9.8,8.833,8.833,0,0,0-3.72-7.434Z" transform="translate(-1.455 -2.423)"/>
      <path id="Path_127612" data-name="Path 127612" d="M11.8,32.93h4.128a1.548,1.548,0,1,0,0-3.1H11.8A6.716,6.716,0,0,1,5.1,23.125V12.8A6.716,6.716,0,0,1,11.8,6.1H24.19A6.716,6.716,0,0,1,30.9,12.8v8.257a1.548,1.548,0,0,0,3.1,0V12.8A9.816,9.816,0,0,0,24.19,3H11.8A9.816,9.816,0,0,0,2,12.8V23.125a9.816,9.816,0,0,0,9.8,9.8Z" transform="translate(-2 -3)"/>
      <path id="Path_127613" data-name="Path 127613" d="M15.522,12.238A1.653,1.653,0,0,0,13,13.552V21.8a1.653,1.653,0,0,0,2.522,1.314l7.024-4.125a1.5,1.5,0,0,0,0-2.627Z" transform="translate(-1.647 -2.712)"/>
    </g>
  </g>
</svg>
