<svg xmlns="http://www.w3.org/2000/svg" width="130" height="115" viewBox="0 0 130 115">
  <g id="Benefits_blade_image_2" data-name="Benefits blade image 2" transform="translate(0 20)">
    <rect id="Canvas" width="130" height="115" transform="translate(0 -20)" fill="#ff13dc" opacity="0"/>
    <g id="Group_162052" data-name="Group 162052" transform="translate(10.984 -13)">
      <rect id="Canvas-2" data-name="Canvas" width="91" height="91" transform="translate(6.016 0)" fill="#ff13dc" opacity="0"/>
      <rect id="Rectangle_151579" data-name="Rectangle 151579" width="107" height="3" transform="translate(0.016 86)" fill="#b5b5b5"/>
      <rect id="Rectangle_151580" data-name="Rectangle 151580" width="87.72" height="3" transform="translate(0 89) rotate(-90)" fill="#b5b5b5"/>
    </g>
    <g id="Group_162053" data-name="Group 162053" transform="translate(21 -4)">
      <rect id="Canvas-3" data-name="Canvas" width="77" height="77" transform="translate(0 0)" fill="#b5b5b5" opacity="0"/>
      <path id="Path_103592" data-name="Path 103592" d="M12.287,15.683a2.126,2.126,0,0,0,1.237-3.856l-3.458-2.47A2.126,2.126,0,1,0,7.61,12.82l3.448,2.472a2.145,2.145,0,0,0,1.229.391Z" transform="translate(21.974 29.399)" fill="#b5b5b5"/>
      <path id="Path_103593" data-name="Path 103593" d="M7.891,14.882l3.146-2.861A2.126,2.126,0,1,0,8.27,8.793l-.09.082L5.034,11.736A2.126,2.126,0,0,0,7.8,14.963Z" transform="translate(14.418 27.404)" fill="#b5b5b5"/>
      <path id="Path_103594" data-name="Path 103594" d="M5.672,16.9l3.146-2.861a2.126,2.126,0,1,0-2.767-3.227l-.09.082L2.815,13.754a2.126,2.126,0,1,0,2.767,3.227Z" transform="translate(7.204 33.966)" fill="#b5b5b5"/>
      <path id="Path_103595" data-name="Path 103595" d="M54.915,13.754a2.151,2.151,0,0,0-1.154.593L34.236,33.872,22.956,18.827a2.153,2.153,0,0,0-1.458-.84,2.228,2.228,0,0,0-1.607.482L0,35.047v5.526L20.9,23.159,32.308,38.38a2.138,2.138,0,0,0,1.552.85,2.036,2.036,0,0,0,1.652-.619L56.284,17.835l20.235-3.373V10.153Z" transform="translate(0.465 33.489)" fill="#b5b5b5" stroke="#fff" stroke-width="1"/>
      <path id="Path_103596" data-name="Path 103596" d="M6.119,16.027a2.125,2.125,0,1,0-2.857-3.148L.117,15.74,0,15.857v2.914a2.126,2.126,0,0,0,2.976.117Z" transform="translate(0.465 40.557)" fill="#b5b5b5"/>
      <path id="Path_103597" data-name="Path 103597" d="M16.465,10.9l3.467-.993A2.126,2.126,0,0,0,18.76,5.824L15.075,6.887a2.1,2.1,0,0,0-.918.54l-.3.3A1.962,1.962,0,0,0,13.91,10.5l.1.087a2,2,0,0,0,1.424.553,2.551,2.551,0,0,0,1.035-.234Z" transform="translate(43.738 19.191)" fill="#b5b5b5"/>
      <path id="Path_103598" data-name="Path 103598" d="M76.468,0l-24.7,9.261a2.089,2.089,0,0,0-.755.487L34.859,25.9,19.021,21.94A2.14,2.14,0,0,0,17,22.5l-17,17v6.011l19.16-19.16L35,30.317a2.143,2.143,0,0,0,2.017-.559L53.7,13.076l22.824-8.56V0Z" transform="translate(0.465 0.48)" fill="#5c5ce0" stroke="#fff" stroke-width="1"/>
      <path id="Path_103599" data-name="Path 103599" d="M21.781,5.015l-4.09,1.171a2.126,2.126,0,0,0,.585,4.168,2.051,2.051,0,0,0,.585-.083L22.95,9.1A2.11,2.11,0,0,0,24,8.414V5.7a2.092,2.092,0,0,0-2.221-.68Z" transform="translate(52.982 16.498)" fill="#b5b5b5"/>
      <path id="Path_103600" data-name="Path 103600" d="M12.7,16.241l3.01-3.006a2.127,2.127,0,0,0-3.006-3.01l-3.01,3.01a2.126,2.126,0,1,0,2.953,3.058Z" transform="translate(29.87 31.703)" fill="#b5b5b5"/>
      <path id="Path_103601" data-name="Path 103601" d="M14.821,14.117l3.006-3.006a2.125,2.125,0,1,0-3.006-3.006l-3.005,3.006a2.126,2.126,0,0,0,2.953,3.058Z" transform="translate(36.769 24.81)" fill="#b5b5b5"/>
    </g>
  </g>
</svg>
