<?xml version="1.0" encoding="UTF-8"?>
<svg id="ICONS" xmlns="http://www.w3.org/2000/svg" width="18" height="18" viewBox="0 0 18 18">
  <defs>
    <style>
      .fill {
        fill: #222;
        stroke-width: 0px;
      }
    </style>
  </defs>
  <path class="fill" d="m7.50391,15.19531c0-.06641.01428-.12988.01892-.19531h-2.52283c-1.6543,0-3-1.3457-3-3v-.01221l3.01172-2.91455c.09766-.09766.25586-.09668.35156-.00098l2.73535,2.73633c.39062.39062,1.02344.39062,1.41406,0s.39062-1.02344,0-1.41406l-2.73633-2.7373c-.875-.87305-2.30078-.87598-3.16602-.01074l-1.61035,1.55835v-3.20483c0-1.6543,1.3457-3,3-3h8c1.6543,0,3,1.3457,3,3v1.40186c.71924.0564,1.41504.30493,2,.74902v-2.15088c0-2.75684-2.24316-5-5-5H5C2.24316,1,0,3.24316,0,6v6c0,2.75684,2.24316,5,5,5h2.50049l.00342-1.80469Z"/>
  <path class="fill" d="m17.32812,9.5293c-.87598-.89551-2.40625-.89746-3.28418,0l-4.67969,4.78516c-.23242.2373-.36035.55176-.36035.88379l-.00391,2.04688c-.00098.41406.33398.75.74902.75098l2.00879.00391h.00098c.33496,0,.65039-.13184.89062-.375l4.69141-4.79688c.87988-.91309.87402-2.39355-.0127-3.29883Zm-1.07227,1.04883c.27832.28418.30481.71558.10583,1.04956l-1.11292-1.1377c.31104-.20532.73962-.18433,1.00708.08813Zm-4.74854,3.69067l2.66931-2.72974,1.16394,1.1897-2.66418,2.72339c-.26184-.50732-.66858-.91919-1.16907-1.18335Zm-1.00391,1.22949c.48682.10791.85413.4939.94971,1.00122l-.95215-.00244.00244-.99878Z"/>
  <circle class="fill" cx="12.5" cy="5.49993" r="1.5"/>
</svg>