<?xml version="1.0" encoding="UTF-8"?>
<svg id="ICONS" xmlns="http://www.w3.org/2000/svg" width="44" height="44" viewBox="0 0 44 44">
  <defs>
    <style>
      .fill {
        fill: #444;
      }
    </style>
  </defs>
  <path class="fill" d="M17.5,4c-5.6167,0-10.20435,4.4364-10.47406,9.98779l-1.46539-1.46533c-.58594-.58594-1.53516-.58594-2.12109,0s-.58594,1.53516,0,2.12109l4,4c.29297,.29297,.67676,.43945,1.06055,.43945s.76758-.14648,1.06055-.43945l4-4c.58594-.58594,.58594-1.53516,0-2.12109s-1.53516-.58594-2.12109,0l-1.41071,1.41064c.29156-3.87109,3.52686-6.93311,7.47125-6.93311,.82861,0,1.5-.67188,1.5-1.5s-.67139-1.5-1.5-1.5Z"/>
  <circle class="fill" cx="3.5" cy="31.5" r="1.5"/>
  <circle class="fill" cx="3.5" cy="26.8" r="1.5"/>
  <circle class="fill" cx="6.75" cy="23.3" r="1.5"/>
  <circle class="fill" cx="11.5" cy="22.5" r="1.5"/>
  <circle class="fill" cx="16.5" cy="22.5" r="1.5"/>
  <path class="fill" d="M34.5,2h-6c-4.13574,0-7.5,3.36426-7.5,7.5v11.5918c-.58124,.20654-1,.7561-1,1.4082s.41876,1.20166,1,1.4082v10.5918c0,4.13574,3.36426,7.5,7.5,7.5h6c4.13574,0,7.5-3.36426,7.5-7.5V9.5c0-4.13574-3.36426-7.5-7.5-7.5Zm4.5,32.5c0,2.48145-2.01855,4.5-4.5,4.5h-6c-2.48145,0-4.5-2.01855-4.5-4.5V9.5c0-2.48145,2.01855-4.5,4.5-4.5h6c2.48145,0,4.5,2.01855,4.5,4.5v25Z"/>
  <circle class="fill" cx="3.5" cy="36.2" r="1.5"/>
  <circle class="fill" cx="6.75" cy="39.7" r="1.5"/>
  <circle class="fill" cx="11.5" cy="40.5" r="1.5"/>
  <circle class="fill" cx="16.5" cy="40.5" r="1.5"/>
  <circle class="fill" cx="21.5" cy="40.5" r="1.5"/>
</svg>