<svg id="SXmock_IlluImageCrop_44_N" xmlns="http://www.w3.org/2000/svg" width="38.23" height="38.666" viewBox="0 0 38.23 38.666">
  <g id="SLMOCK" transform="translate(0 0)">
    <rect id="Canvas" width="38.23" height="38.23" fill="rgba(255,19,220,0)"/>
  </g>
  <g id="Illu" transform="translate(1.341 2.23)">
    <path id="Path_127591" data-name="Path 127591" d="M39.441,36.442H28.913a.582.582,0,0,1-.581-.581V25.333a1.333,1.333,0,0,0-2.666,0v1.333H24.333a1.333,1.333,0,0,0,0,2.666h1.333V35.86a3.251,3.251,0,0,0,3.247,3.248h6.528v1.333a1.333,1.333,0,0,0,2.666,0V39.108h1.333a1.333,1.333,0,0,0,0-2.666Z" transform="translate(-4.338 -5.338)"/>
    <path id="Path_127592" data-name="Path 127592" d="M31,28.333a1.333,1.333,0,0,0,1.333,1.333h3.418a.582.582,0,0,1,.581.581v3.418a1.333,1.333,0,0,0,2.666,0V30.248A3.251,3.251,0,0,0,35.751,27H32.333A1.333,1.333,0,0,0,31,28.333Z" transform="translate(-5.228 -5.671)"/>
    <circle id="Ellipse_24747" data-name="Ellipse 24747" cx="2.276" cy="2.276" r="2.276" transform="translate(17.774 5.962)"/>
    <path id="Path_127593" data-name="Path 127593" d="M9.606,28.772h7.057a1.333,1.333,0,0,0,0-2.666H9.606a4.891,4.891,0,0,1-4.94-4.829v-.7l5.82-5.82a.641.641,0,0,1,.92.036l8.038,7.425a1.333,1.333,0,0,0,1.809,0L25.6,18.2a.445.445,0,0,1,.476-.056l3.113,2.348a1.333,1.333,0,0,0,2.136-1.064V10.495A7.559,7.559,0,0,0,23.721,3H9.606A7.559,7.559,0,0,0,2,10.495V21.277a7.559,7.559,0,0,0,7.606,7.495ZM4.666,10.495a4.891,4.891,0,0,1,4.94-4.829H23.721a4.891,4.891,0,0,1,4.94,4.829v6.258l-1.047-.79a1.131,1.131,0,0,0-.108-.074,3.135,3.135,0,0,0-3.654.3l-3.5,3.238-7.1-6.553a3.293,3.293,0,0,0-4.652,0L4.666,16.811Z" transform="translate(-2 -3)"/>
  </g>
</svg>
