<svg xmlns="http://www.w3.org/2000/svg" xmlns:xlink="http://www.w3.org/1999/xlink" width="440" height="350" viewBox="0 0 440 350">
  <defs>
    <clipPath id="clip-path">
      <rect id="Rectangle_151938" data-name="Rectangle 151938" width="440" height="350" transform="translate(1060)" fill="#fff"/>
    </clipPath>
    <linearGradient id="linear-gradient" x1="0.02" y1="0.903" x2="0.682" y2="0.12" gradientUnits="objectBoundingBox">
      <stop offset="0" stop-color="#5f74ff"/>
      <stop offset="1" stop-color="#ea32e4"/>
    </linearGradient>
  </defs>
  <g id="Summary_Block_image" data-name="Summary Block image" transform="translate(-1060)" clip-path="url(#clip-path)">
    <g id="Group_162130" data-name="Group 162130" transform="translate(-6389.539 -11348)" opacity="0.351" style="mix-blend-mode: color-burn;isolation: isolate">
      <rect id="Rectangle_151794" data-name="Rectangle 151794" width="50.659" height="8" rx="4" transform="translate(7550.532 11941.575)" fill="#5a60eb"/>
      <rect id="Rectangle_151795" data-name="Rectangle 151795" width="17.824" height="8" rx="4" transform="translate(7758.797 11941.575)" fill="#5a60eb"/>
      <rect id="Rectangle_151796" data-name="Rectangle 151796" width="17.824" height="8" rx="4" transform="translate(7794.447 11941.575)" fill="#5a60eb"/>
      <rect id="Rectangle_151797" data-name="Rectangle 151797" width="121.019" height="8" rx="4" transform="translate(7619.016 11941.575)" fill="#5a60eb"/>
      <rect id="Rectangle_151798" data-name="Rectangle 151798" width="50.659" height="8" rx="4" transform="translate(7695.944 11920.575)" fill="#5a60eb"/>
      <rect id="Rectangle_151799" data-name="Rectangle 151799" width="50.659" height="8" rx="4" transform="translate(7764.427 11920.575)" fill="#5a60eb"/>
      <rect id="Rectangle_151800" data-name="Rectangle 151800" width="17.824" height="8" rx="4" transform="translate(7832.911 11920.575)" fill="#5a60eb"/>
      <rect id="Rectangle_151801" data-name="Rectangle 151801" width="17.824" height="8" rx="4" transform="translate(7522.389 11920.575)" fill="#5a60eb"/>
      <rect id="Rectangle_151802" data-name="Rectangle 151802" width="121.019" height="8" rx="4" transform="translate(7558.038 11920.575)" fill="#5a60eb"/>
      <rect id="Rectangle_151803" data-name="Rectangle 151803" width="50.659" height="8" rx="4" transform="translate(7590.873 11899.575)" fill="#5a60eb"/>
      <rect id="Rectangle_151804" data-name="Rectangle 151804" width="50.659" height="8" rx="4" transform="translate(7522.389 11899.575)" fill="#5a60eb"/>
      <rect id="Rectangle_151805" data-name="Rectangle 151805" width="17.824" height="8" rx="4" transform="translate(7832.911 11899.575)" fill="#5a60eb"/>
      <rect id="Rectangle_151806" data-name="Rectangle 151806" width="17.824" height="8" rx="4" transform="translate(7797.262 11899.575)" fill="#5a60eb"/>
      <rect id="Rectangle_151807" data-name="Rectangle 151807" width="121.019" height="8" rx="4" transform="translate(7658.418 11899.575)" fill="#5a60eb"/>
      <rect id="Rectangle_151808" data-name="Rectangle 151808" width="50.659" height="8" rx="4" transform="translate(7486.74 11878.575)" fill="#5a60eb"/>
      <rect id="Rectangle_151809" data-name="Rectangle 151809" width="17.824" height="8" rx="4" transform="translate(7695.005 11878.575)" fill="#5a60eb"/>
      <rect id="Rectangle_151810" data-name="Rectangle 151810" width="17.824" height="8" rx="4" transform="translate(7730.654 11878.575)" fill="#5a60eb"/>
      <rect id="Rectangle_151811" data-name="Rectangle 151811" width="121.019" height="8" rx="4" transform="translate(7555.224 11878.575)" fill="#5a60eb"/>
      <rect id="Rectangle_151812" data-name="Rectangle 151812" width="50.659" height="8" rx="4" transform="translate(7800.077 11857.575)" fill="#5a60eb"/>
      <rect id="Rectangle_151813" data-name="Rectangle 151813" width="17.824" height="8" rx="4" transform="translate(7624.646 11857.575)" fill="#5a60eb"/>
      <rect id="Rectangle_151814" data-name="Rectangle 151814" width="17.824" height="8" rx="4" transform="translate(7588.997 11857.575)" fill="#5a60eb"/>
      <rect id="Rectangle_151815" data-name="Rectangle 151815" width="121.019" height="8" rx="4" transform="translate(7661.233 11857.575)" fill="#5a60eb"/>
      <rect id="Rectangle_151816" data-name="Rectangle 151816" width="50.659" height="8" rx="4" transform="translate(7695.945 11836.575)" fill="#5a60eb"/>
      <rect id="Rectangle_151817" data-name="Rectangle 151817" width="50.659" height="8" rx="4" transform="translate(7764.429 11836.575)" fill="#5a60eb"/>
      <rect id="Rectangle_151818" data-name="Rectangle 151818" width="17.824" height="8" rx="4" transform="translate(7486.74 11836.575)" fill="#5a60eb"/>
      <rect id="Rectangle_151819" data-name="Rectangle 151819" width="17.824" height="8" rx="4" transform="translate(7522.39 11836.575)" fill="#5a60eb"/>
      <rect id="Rectangle_151820" data-name="Rectangle 151820" width="121.019" height="8" rx="4" transform="translate(7558.04 11836.575)" fill="#5a60eb"/>
      <rect id="Rectangle_151821" data-name="Rectangle 151821" width="50.659" height="8" rx="4" transform="translate(7590.874 11815.575)" fill="#5a60eb"/>
      <rect id="Rectangle_151822" data-name="Rectangle 151822" width="50.659" height="8" rx="4" transform="translate(7522.39 11815.575)" fill="#5a60eb"/>
      <rect id="Rectangle_151823" data-name="Rectangle 151823" width="17.824" height="8" rx="4" transform="translate(7486.74 11815.575)" fill="#5a60eb"/>
      <rect id="Rectangle_151824" data-name="Rectangle 151824" width="17.824" height="8" rx="4" transform="translate(7797.263 11815.575)" fill="#5a60eb"/>
      <rect id="Rectangle_151825" data-name="Rectangle 151825" width="121.019" height="8" rx="4" transform="translate(7658.419 11815.575)" fill="#5a60eb"/>
      <rect id="Rectangle_151826" data-name="Rectangle 151826" width="50.659" height="8" rx="4" transform="translate(7736.285 11794.575)" fill="#5a60eb"/>
      <rect id="Rectangle_151827" data-name="Rectangle 151827" width="17.824" height="8" rx="4" transform="translate(7560.854 11794.575)" fill="#5a60eb"/>
      <rect id="Rectangle_151828" data-name="Rectangle 151828" width="17.824" height="8" rx="4" transform="translate(7525.204 11794.575)" fill="#5a60eb"/>
      <rect id="Rectangle_151829" data-name="Rectangle 151829" width="121.019" height="8" rx="4" transform="translate(7597.441 11794.575)" fill="#5a60eb"/>
      <rect id="Rectangle_151830" data-name="Rectangle 151830" width="50.659" height="8" rx="4" transform="translate(7736.285 11773.575)" fill="#5a60eb"/>
      <rect id="Rectangle_151831" data-name="Rectangle 151831" width="17.825" height="8" rx="4" transform="translate(7560.854 11773.575)" fill="#5a60eb"/>
      <rect id="Rectangle_151832" data-name="Rectangle 151832" width="17.825" height="8" rx="4" transform="translate(7525.204 11773.575)" fill="#5a60eb"/>
      <rect id="Rectangle_151833" data-name="Rectangle 151833" width="121.019" height="8" rx="4" transform="translate(7597.441 11773.575)" fill="#5a60eb"/>
      <rect id="Rectangle_151834" data-name="Rectangle 151834" width="50.659" height="8" rx="4" transform="translate(7590.873 11752.575)" fill="#5a60eb"/>
      <rect id="Rectangle_151835" data-name="Rectangle 151835" width="50.659" height="8" rx="4" transform="translate(7522.389 11752.575)" fill="#5a60eb"/>
      <rect id="Rectangle_151836" data-name="Rectangle 151836" width="17.825" height="8" rx="4" transform="translate(7486.74 11752.575)" fill="#5a60eb"/>
      <rect id="Rectangle_151837" data-name="Rectangle 151837" width="17.825" height="8" rx="4" transform="translate(7797.263 11752.575)" fill="#5a60eb"/>
      <rect id="Rectangle_151838" data-name="Rectangle 151838" width="121.019" height="8" rx="4" transform="translate(7658.418 11752.575)" fill="#5a60eb"/>
      <rect id="Rectangle_151839" data-name="Rectangle 151839" width="50.659" height="8" rx="4" transform="translate(7695.944 11731.575)" fill="#5a60eb"/>
      <rect id="Rectangle_151840" data-name="Rectangle 151840" width="50.659" height="8" rx="4" transform="translate(7764.429 11731.575)" fill="#5a60eb"/>
      <rect id="Rectangle_151841" data-name="Rectangle 151841" width="17.825" height="8" rx="4" transform="translate(7486.74 11731.575)" fill="#5a60eb"/>
      <rect id="Rectangle_151842" data-name="Rectangle 151842" width="17.825" height="8" rx="4" transform="translate(7522.39 11731.575)" fill="#5a60eb"/>
      <rect id="Rectangle_151843" data-name="Rectangle 151843" width="121.019" height="8" rx="4" transform="translate(7558.039 11731.575)" fill="#5a60eb"/>
      <rect id="Rectangle_151844" data-name="Rectangle 151844" width="50.659" height="8" rx="4" transform="translate(7800.077 11710.575)" fill="#5a60eb"/>
      <rect id="Rectangle_151845" data-name="Rectangle 151845" width="17.825" height="8" rx="4" transform="translate(7624.646 11710.575)" fill="#5a60eb"/>
      <rect id="Rectangle_151846" data-name="Rectangle 151846" width="17.825" height="8" rx="4" transform="translate(7588.997 11710.575)" fill="#5a60eb"/>
      <rect id="Rectangle_151847" data-name="Rectangle 151847" width="121.019" height="8" rx="4" transform="translate(7661.232 11710.575)" fill="#5a60eb"/>
      <rect id="Rectangle_151848" data-name="Rectangle 151848" width="50.659" height="8" rx="4" transform="translate(7486.74 11689.575)" fill="#5a60eb"/>
      <rect id="Rectangle_151849" data-name="Rectangle 151849" width="17.824" height="8" rx="4" transform="translate(7695.005 11689.575)" fill="#5a60eb"/>
      <rect id="Rectangle_151850" data-name="Rectangle 151850" width="17.824" height="8" rx="4" transform="translate(7730.654 11689.575)" fill="#5a60eb"/>
      <rect id="Rectangle_151851" data-name="Rectangle 151851" width="121.019" height="8" rx="4" transform="translate(7555.224 11689.575)" fill="#5a60eb"/>
      <rect id="Rectangle_151852" data-name="Rectangle 151852" width="50.659" height="8" rx="4" transform="translate(7590.873 11668.575)" fill="#5a60eb"/>
      <rect id="Rectangle_151853" data-name="Rectangle 151853" width="50.659" height="8" rx="4" transform="translate(7522.389 11668.575)" fill="#5a60eb"/>
      <rect id="Rectangle_151854" data-name="Rectangle 151854" width="17.824" height="8" rx="4" transform="translate(7832.911 11668.575)" fill="#5a60eb"/>
      <rect id="Rectangle_151855" data-name="Rectangle 151855" width="17.824" height="8" rx="4" transform="translate(7797.262 11668.575)" fill="#5a60eb"/>
      <rect id="Rectangle_151856" data-name="Rectangle 151856" width="121.019" height="8" rx="4" transform="translate(7658.418 11668.575)" fill="#5a60eb"/>
      <rect id="Rectangle_151857" data-name="Rectangle 151857" width="50.659" height="8" rx="4" transform="translate(7695.944 11647.575)" fill="#5a60eb"/>
      <rect id="Rectangle_151858" data-name="Rectangle 151858" width="50.659" height="8" rx="4" transform="translate(7764.427 11647.575)" fill="#5a60eb"/>
      <rect id="Rectangle_151859" data-name="Rectangle 151859" width="17.824" height="8" rx="4" transform="translate(7832.911 11647.575)" fill="#5a60eb"/>
      <rect id="Rectangle_151860" data-name="Rectangle 151860" width="17.824" height="8" rx="4" transform="translate(7522.389 11647.575)" fill="#5a60eb"/>
      <rect id="Rectangle_151861" data-name="Rectangle 151861" width="121.019" height="8" rx="4" transform="translate(7558.038 11647.575)" fill="#5a60eb"/>
      <rect id="Rectangle_151862" data-name="Rectangle 151862" width="50.659" height="8" rx="4" transform="translate(7550.532 11626.575)" fill="#5a60eb"/>
      <rect id="Rectangle_151863" data-name="Rectangle 151863" width="17.824" height="8" rx="4" transform="translate(7758.797 11626.575)" fill="#5a60eb"/>
      <rect id="Rectangle_151864" data-name="Rectangle 151864" width="17.824" height="8" rx="4" transform="translate(7794.447 11626.575)" fill="#5a60eb"/>
      <rect id="Rectangle_151865" data-name="Rectangle 151865" width="121.019" height="8" rx="4" transform="translate(7619.016 11626.575)" fill="#5a60eb"/>
      <rect id="Rectangle_151866" data-name="Rectangle 151866" width="50.659" height="8" rx="4" transform="translate(7736.285 11605.575)" fill="#5a60eb"/>
      <rect id="Rectangle_151867" data-name="Rectangle 151867" width="17.825" height="8" rx="4" transform="translate(7560.854 11605.575)" fill="#5a60eb"/>
      <rect id="Rectangle_151868" data-name="Rectangle 151868" width="17.825" height="8" rx="4" transform="translate(7525.204 11605.575)" fill="#5a60eb"/>
      <rect id="Rectangle_151869" data-name="Rectangle 151869" width="121.019" height="8" rx="4" transform="translate(7597.441 11605.575)" fill="#5a60eb"/>
      <rect id="Rectangle_151870" data-name="Rectangle 151870" width="50.659" height="8" rx="4" transform="translate(7590.873 11584.575)" fill="#5a60eb"/>
      <rect id="Rectangle_151871" data-name="Rectangle 151871" width="50.659" height="8" rx="4" transform="translate(7522.389 11584.575)" fill="#5a60eb"/>
      <rect id="Rectangle_151872" data-name="Rectangle 151872" width="17.825" height="8" rx="4" transform="translate(7486.74 11584.575)" fill="#5a60eb"/>
      <rect id="Rectangle_151873" data-name="Rectangle 151873" width="17.825" height="8" rx="4" transform="translate(7797.263 11584.575)" fill="#5a60eb"/>
      <rect id="Rectangle_151874" data-name="Rectangle 151874" width="121.019" height="8" rx="4" transform="translate(7658.418 11584.575)" fill="#5a60eb"/>
      <rect id="Rectangle_151875" data-name="Rectangle 151875" width="50.659" height="8" rx="4" transform="translate(7695.944 11563.575)" fill="#5a60eb"/>
      <rect id="Rectangle_151876" data-name="Rectangle 151876" width="50.659" height="8" rx="4" transform="translate(7764.429 11563.575)" fill="#5a60eb"/>
      <rect id="Rectangle_151877" data-name="Rectangle 151877" width="17.825" height="8" rx="4" transform="translate(7486.74 11563.575)" fill="#5a60eb"/>
      <rect id="Rectangle_151878" data-name="Rectangle 151878" width="17.825" height="8" rx="4" transform="translate(7522.39 11563.575)" fill="#5a60eb"/>
      <rect id="Rectangle_151879" data-name="Rectangle 151879" width="121.019" height="8" rx="4" transform="translate(7558.039 11563.575)" fill="#5a60eb"/>
      <rect id="Rectangle_151880" data-name="Rectangle 151880" width="50.659" height="8" rx="4" transform="translate(7800.077 11542.575)" fill="#5a60eb"/>
      <rect id="Rectangle_151881" data-name="Rectangle 151881" width="17.825" height="8" rx="4" transform="translate(7624.646 11542.575)" fill="#5a60eb"/>
      <rect id="Rectangle_151882" data-name="Rectangle 151882" width="17.825" height="8" rx="4" transform="translate(7588.997 11542.575)" fill="#5a60eb"/>
      <rect id="Rectangle_151883" data-name="Rectangle 151883" width="121.019" height="8" rx="4" transform="translate(7661.232 11542.575)" fill="#5a60eb"/>
      <rect id="Rectangle_151884" data-name="Rectangle 151884" width="50.659" height="8" rx="4" transform="translate(7550.532 11521.575)" fill="#5a60eb"/>
      <rect id="Rectangle_151885" data-name="Rectangle 151885" width="17.824" height="8" rx="4" transform="translate(7758.797 11521.575)" fill="#5a60eb"/>
      <rect id="Rectangle_151886" data-name="Rectangle 151886" width="17.824" height="8" rx="4" transform="translate(7794.447 11521.575)" fill="#5a60eb"/>
      <rect id="Rectangle_151887" data-name="Rectangle 151887" width="121.019" height="8" rx="4" transform="translate(7619.016 11521.575)" fill="#5a60eb"/>
      <rect id="Rectangle_151888" data-name="Rectangle 151888" width="50.659" height="8" rx="4" transform="translate(7695.944 11500.575)" fill="#5a60eb"/>
      <rect id="Rectangle_151889" data-name="Rectangle 151889" width="50.659" height="8" rx="4" transform="translate(7764.427 11500.575)" fill="#5a60eb"/>
      <rect id="Rectangle_151890" data-name="Rectangle 151890" width="17.824" height="8" rx="4" transform="translate(7832.911 11500.575)" fill="#5a60eb"/>
      <rect id="Rectangle_151891" data-name="Rectangle 151891" width="17.824" height="8" rx="4" transform="translate(7522.389 11500.575)" fill="#5a60eb"/>
      <rect id="Rectangle_151892" data-name="Rectangle 151892" width="121.019" height="8" rx="4" transform="translate(7558.038 11500.575)" fill="#5a60eb"/>
      <rect id="Rectangle_151893" data-name="Rectangle 151893" width="50.659" height="8" rx="4" transform="translate(7590.873 11479.575)" fill="#5a60eb"/>
      <rect id="Rectangle_151894" data-name="Rectangle 151894" width="50.659" height="8" rx="4" transform="translate(7522.389 11479.575)" fill="#5a60eb"/>
      <rect id="Rectangle_151895" data-name="Rectangle 151895" width="17.824" height="8" rx="4" transform="translate(7832.911 11479.575)" fill="#5a60eb"/>
      <rect id="Rectangle_151896" data-name="Rectangle 151896" width="17.824" height="8" rx="4" transform="translate(7797.262 11479.575)" fill="#5a60eb"/>
      <rect id="Rectangle_151897" data-name="Rectangle 151897" width="121.019" height="8" rx="4" transform="translate(7658.418 11479.575)" fill="#5a60eb"/>
      <rect id="Rectangle_151898" data-name="Rectangle 151898" width="50.659" height="8" rx="4" transform="translate(7486.74 11458.575)" fill="#5a60eb"/>
      <rect id="Rectangle_151899" data-name="Rectangle 151899" width="17.824" height="8" rx="4" transform="translate(7695.005 11458.575)" fill="#5a60eb"/>
      <rect id="Rectangle_151900" data-name="Rectangle 151900" width="17.824" height="8" rx="4" transform="translate(7730.654 11458.575)" fill="#5a60eb"/>
      <rect id="Rectangle_151901" data-name="Rectangle 151901" width="121.019" height="8" rx="4" transform="translate(7555.224 11458.575)" fill="#5a60eb"/>
      <rect id="Rectangle_151902" data-name="Rectangle 151902" width="50.659" height="8" rx="4" transform="translate(7800.077 11437.575)" fill="#5a60eb"/>
      <rect id="Rectangle_151903" data-name="Rectangle 151903" width="17.824" height="8" rx="4" transform="translate(7624.646 11437.575)" fill="#5a60eb"/>
      <rect id="Rectangle_151904" data-name="Rectangle 151904" width="17.824" height="8" rx="4" transform="translate(7588.997 11437.575)" fill="#5a60eb"/>
      <rect id="Rectangle_151905" data-name="Rectangle 151905" width="121.019" height="8" rx="4" transform="translate(7661.233 11437.575)" fill="#5a60eb"/>
      <rect id="Rectangle_151906" data-name="Rectangle 151906" width="50.659" height="8" rx="4" transform="translate(7695.945 11416.575)" fill="#5a60eb"/>
      <rect id="Rectangle_151907" data-name="Rectangle 151907" width="50.659" height="8" rx="4" transform="translate(7764.429 11416.575)" fill="#5a60eb"/>
      <rect id="Rectangle_151908" data-name="Rectangle 151908" width="17.824" height="8" rx="4" transform="translate(7486.74 11416.575)" fill="#5a60eb"/>
      <rect id="Rectangle_151909" data-name="Rectangle 151909" width="17.824" height="8" rx="4" transform="translate(7522.39 11416.575)" fill="#5a60eb"/>
      <rect id="Rectangle_151910" data-name="Rectangle 151910" width="121.019" height="8" rx="4" transform="translate(7558.04 11416.575)" fill="#5a60eb"/>
      <rect id="Rectangle_151911" data-name="Rectangle 151911" width="50.659" height="8" rx="4" transform="translate(7590.874 11395.575)" fill="#5a60eb"/>
      <rect id="Rectangle_151912" data-name="Rectangle 151912" width="50.659" height="8" rx="4" transform="translate(7522.39 11395.575)" fill="#5a60eb"/>
      <rect id="Rectangle_151913" data-name="Rectangle 151913" width="17.824" height="8" rx="4" transform="translate(7486.74 11395.575)" fill="#5a60eb"/>
      <rect id="Rectangle_151914" data-name="Rectangle 151914" width="17.824" height="8" rx="4" transform="translate(7797.263 11395.575)" fill="#5a60eb"/>
      <rect id="Rectangle_151915" data-name="Rectangle 151915" width="121.019" height="8" rx="4" transform="translate(7658.419 11395.575)" fill="#5a60eb"/>
      <rect id="Rectangle_151916" data-name="Rectangle 151916" width="50.659" height="8" rx="4" transform="translate(7736.285 11374.575)" fill="#5a60eb"/>
      <rect id="Rectangle_151917" data-name="Rectangle 151917" width="17.824" height="8" rx="4" transform="translate(7560.854 11374.575)" fill="#5a60eb"/>
      <rect id="Rectangle_151918" data-name="Rectangle 151918" width="17.824" height="8" rx="4" transform="translate(7525.204 11374.575)" fill="#5a60eb"/>
      <rect id="Rectangle_151919" data-name="Rectangle 151919" width="121.019" height="8" rx="4" transform="translate(7597.441 11374.575)" fill="#5a60eb"/>
      <rect id="Rectangle_151920" data-name="Rectangle 151920" width="50.659" height="8" rx="4" transform="translate(7486.74 11353.575)" fill="#5a60eb"/>
      <rect id="Rectangle_151921" data-name="Rectangle 151921" width="17.824" height="8" rx="4" transform="translate(7695.005 11353.575)" fill="#5a60eb"/>
      <rect id="Rectangle_151922" data-name="Rectangle 151922" width="17.824" height="8" rx="4" transform="translate(7730.654 11353.575)" fill="#5a60eb"/>
      <rect id="Rectangle_151923" data-name="Rectangle 151923" width="121.019" height="8" rx="4" transform="translate(7555.224 11353.575)" fill="#5a60eb"/>
      <rect id="Rectangle_151924" data-name="Rectangle 151924" width="50.659" height="8" rx="4" transform="translate(7590.873 11332.575)" fill="#5a60eb"/>
      <rect id="Rectangle_151925" data-name="Rectangle 151925" width="50.659" height="8" rx="4" transform="translate(7522.389 11332.575)" fill="#5a60eb"/>
      <rect id="Rectangle_151926" data-name="Rectangle 151926" width="17.824" height="8" rx="4" transform="translate(7832.911 11332.575)" fill="#5a60eb"/>
      <rect id="Rectangle_151927" data-name="Rectangle 151927" width="17.824" height="8" rx="4" transform="translate(7797.262 11332.575)" fill="#5a60eb"/>
      <rect id="Rectangle_151928" data-name="Rectangle 151928" width="121.019" height="8" rx="4" transform="translate(7658.418 11332.575)" fill="#5a60eb"/>
      <rect id="Rectangle_151929" data-name="Rectangle 151929" width="50.659" height="8" rx="4" transform="translate(7695.944 11311.575)" fill="#5a60eb"/>
      <rect id="Rectangle_151930" data-name="Rectangle 151930" width="50.659" height="8" rx="4" transform="translate(7764.427 11311.575)" fill="#5a60eb"/>
      <rect id="Rectangle_151931" data-name="Rectangle 151931" width="17.824" height="8" rx="4" transform="translate(7832.911 11311.575)" fill="#5a60eb"/>
      <rect id="Rectangle_151932" data-name="Rectangle 151932" width="17.824" height="8" rx="4" transform="translate(7522.389 11311.575)" fill="#5a60eb"/>
      <rect id="Rectangle_151933" data-name="Rectangle 151933" width="121.019" height="8" rx="4" transform="translate(7558.038 11311.575)" fill="#5a60eb"/>
      <rect id="Rectangle_151934" data-name="Rectangle 151934" width="50.659" height="8" rx="4" transform="translate(7550.532 11290.575)" fill="#5a60eb"/>
      <rect id="Rectangle_151935" data-name="Rectangle 151935" width="17.824" height="8" rx="4" transform="translate(7758.797 11290.575)" fill="#5a60eb"/>
      <rect id="Rectangle_151936" data-name="Rectangle 151936" width="17.824" height="8" rx="4" transform="translate(7794.447 11290.575)" fill="#5a60eb"/>
      <rect id="Rectangle_151937" data-name="Rectangle 151937" width="121.019" height="8" rx="4" transform="translate(7619.016 11290.575)" fill="#5a60eb"/>
    </g>
    <path id="Path_103700" data-name="Path 103700" d="M324.118,71.57a98.452,98.452,0,0,0-181.369.182L18.45,367.777c-17.039,40.441,12.62,85.164,56.493,85.164H213.365a61.686,61.686,0,0,0-.182-123.373c-1.4,0-23.66.182-23.66.182A14,14,0,0,1,176.63,310.3l44.116-105.134a13.624,13.624,0,0,1,25.3-.076l90.024,210.481c12.362,28.094,35.9,37.267,56.629,37.328,43.979,0,73.623-44.784,56.493-85.271Z" transform="translate(1046.114 -59.92)" opacity="0.596" fill="url(#linear-gradient)" style="mix-blend-mode: color-burn;isolation: isolate"/>
  </g>
</svg>
